ISO-10303-21;
HEADER;
/* Generated by software containing ST-Developer
 * from STEP Tools, Inc. (www.steptools.com) 
 */
/* OPTION: using custom renumber hook */

FILE_DESCRIPTION(
/* description */ ('STEP AP242 Edition 2',
'CAx-IF Rec.Pracs.---Representation and Presentation of Product Manufa
cturing Information (PMI)---4.0---2014-10-13',
'CAx-IF Rec.Pracs.---3D Tessellated Geometry---0.4---2014-09-14','2;1',
'CAx-IF Rec.Pracs.---User Defined Attributes---1.5---2016-08-15'),
/* implementation_level */ '2;1');

FILE_NAME(
/* name */ 'protoMIDI ENCLOSURE BOTTOM',
/* time_stamp */ '2026-06-28T16:56:44Z',
/* author */ (''),
/* organization */ (''),
/* preprocessor_version */ 'ST-DEVELOPER v20',
/* originating_system */ 'ONSHAPE BY PTC INC, 1.217',
/* authorisation */ '  ');

FILE_SCHEMA (('AP242_MANAGED_MODEL_BASED_3D_ENGINEERING_MIM_LF { 1 0 10303 442 3 1 4 }'));
ENDSEC;

DATA;
#10=SHAPE_REPRESENTATION_RELATIONSHIP('','',#1081,#11);
#11=ADVANCED_BREP_SHAPE_REPRESENTATION('',(#1079),#1839);
#12=CONICAL_SURFACE('',#1183,0.004,0.78539816339745);
#13=CONICAL_SURFACE('',#1186,0.004,0.78539816339745);
#14=CONICAL_SURFACE('',#1187,0.004,0.78539816339745);
#15=CONICAL_SURFACE('',#1190,0.004,0.78539816339745);
#16=LINE('',#1537,#104);
#17=LINE('',#1540,#105);
#18=LINE('',#1542,#106);
#19=LINE('',#1544,#107);
#20=LINE('',#1546,#108);
#21=LINE('',#1551,#109);
#22=LINE('',#1555,#110);
#23=LINE('',#1560,#111);
#24=LINE('',#1564,#112);
#25=LINE('',#1568,#113);
#26=LINE('',#1572,#114);
#27=LINE('',#1576,#115);
#28=LINE('',#1580,#116);
#29=LINE('',#1584,#117);
#30=LINE('',#1588,#118);
#31=LINE('',#1592,#119);
#32=LINE('',#1596,#120);
#33=LINE('',#1600,#121);
#34=LINE('',#1619,#122);
#35=LINE('',#1621,#123);
#36=LINE('',#1623,#124);
#37=LINE('',#1625,#125);
#38=LINE('',#1627,#126);
#39=LINE('',#1631,#127);
#40=LINE('',#1634,#128);
#41=LINE('',#1635,#129);
#42=LINE('',#1637,#130);
#43=LINE('',#1639,#131);
#44=LINE('',#1643,#132);
#45=LINE('',#1647,#133);
#46=LINE('',#1649,#134);
#47=LINE('',#1652,#135);
#48=LINE('',#1653,#136);
#49=LINE('',#1655,#137);
#50=LINE('',#1657,#138);
#51=LINE('',#1659,#139);
#52=LINE('',#1661,#140);
#53=LINE('',#1665,#141);
#54=LINE('',#1669,#142);
#55=LINE('',#1674,#143);
#56=LINE('',#1678,#144);
#57=LINE('',#1682,#145);
#58=LINE('',#1692,#146);
#59=LINE('',#1697,#147);
#60=LINE('',#1701,#148);
#61=LINE('',#1704,#149);
#62=LINE('',#1705,#150);
#63=LINE('',#1707,#151);
#64=LINE('',#1713,#152);
#65=LINE('',#1716,#153);
#66=LINE('',#1717,#154);
#67=LINE('',#1719,#155);
#68=LINE('',#1725,#156);
#69=LINE('',#1728,#157);
#70=LINE('',#1729,#158);
#71=LINE('',#1731,#159);
#72=LINE('',#1737,#160);
#73=LINE('',#1738,#161);
#74=LINE('',#1740,#162);
#75=LINE('',#1745,#163);
#76=LINE('',#1746,#164);
#77=LINE('',#1751,#165);
#78=LINE('',#1755,#166);
#79=LINE('',#1760,#167);
#80=LINE('',#1761,#168);
#81=LINE('',#1766,#169);
#82=LINE('',#1767,#170);
#83=LINE('',#1772,#171);
#84=LINE('',#1774,#172);
#85=LINE('',#1776,#173);
#86=LINE('',#1778,#174);
#87=LINE('',#1780,#175);
#88=LINE('',#1782,#176);
#89=LINE('',#1784,#177);
#90=LINE('',#1786,#178);
#91=LINE('',#1788,#179);
#92=LINE('',#1807,#180);
#93=LINE('',#1808,#181);
#94=LINE('',#1810,#182);
#95=LINE('',#1812,#183);
#96=LINE('',#1814,#184);
#97=LINE('',#1816,#185);
#98=LINE('',#1818,#186);
#99=LINE('',#1820,#187);
#100=LINE('',#1823,#188);
#101=LINE('',#1824,#189);
#102=LINE('',#1826,#190);
#103=LINE('',#1828,#191);
#104=VECTOR('',#1212,1.);
#105=VECTOR('',#1213,1.);
#106=VECTOR('',#1214,1.);
#107=VECTOR('',#1215,1.);
#108=VECTOR('',#1218,1.);
#109=VECTOR('',#1221,1.);
#110=VECTOR('',#1224,1.);
#111=VECTOR('',#1229,1.);
#112=VECTOR('',#1232,1.);
#113=VECTOR('',#1235,1.);
#114=VECTOR('',#1238,1.);
#115=VECTOR('',#1241,1.);
#116=VECTOR('',#1244,1.);
#117=VECTOR('',#1247,1.);
#118=VECTOR('',#1250,1.);
#119=VECTOR('',#1253,1.);
#120=VECTOR('',#1256,1.);
#121=VECTOR('',#1259,1.);
#122=VECTOR('',#1282,1.);
#123=VECTOR('',#1283,1.);
#124=VECTOR('',#1284,1.);
#125=VECTOR('',#1287,1.);
#126=VECTOR('',#1288,1.);
#127=VECTOR('',#1293,1.);
#128=VECTOR('',#1294,1.);
#129=VECTOR('',#1295,1.);
#130=VECTOR('',#1298,1.);
#131=VECTOR('',#1299,1.);
#132=VECTOR('',#1304,1.);
#133=VECTOR('',#1307,1.);
#134=VECTOR('',#1310,1.);
#135=VECTOR('',#1311,1.);
#136=VECTOR('',#1312,1.);
#137=VECTOR('',#1315,1.);
#138=VECTOR('',#1316,1.);
#139=VECTOR('',#1317,1.);
#140=VECTOR('',#1320,1.);
#141=VECTOR('',#1323,1.);
#142=VECTOR('',#1328,1.);
#143=VECTOR('',#1331,1.);
#144=VECTOR('',#1334,1.);
#145=VECTOR('',#1337,1.);
#146=VECTOR('',#1348,1.);
#147=VECTOR('',#1351,1.);
#148=VECTOR('',#1356,1.);
#149=VECTOR('',#1357,1.);
#150=VECTOR('',#1358,1.);
#151=VECTOR('',#1361,1.);
#152=VECTOR('',#1368,1.);
#153=VECTOR('',#1369,1.);
#154=VECTOR('',#1370,1.);
#155=VECTOR('',#1373,1.);
#156=VECTOR('',#1380,1.);
#157=VECTOR('',#1381,1.);
#158=VECTOR('',#1382,1.);
#159=VECTOR('',#1385,1.);
#160=VECTOR('',#1392,1.);
#161=VECTOR('',#1393,1.);
#162=VECTOR('',#1396,1.);
#163=VECTOR('',#1401,1.);
#164=VECTOR('',#1402,1.);
#165=VECTOR('',#1407,1.);
#166=VECTOR('',#1410,1.);
#167=VECTOR('',#1415,1.);
#168=VECTOR('',#1416,1.);
#169=VECTOR('',#1421,1.);
#170=VECTOR('',#1422,1.);
#171=VECTOR('',#1427,1.);
#172=VECTOR('',#1430,1.);
#173=VECTOR('',#1433,1.);
#174=VECTOR('',#1436,1.);
#175=VECTOR('',#1439,1.);
#176=VECTOR('',#1442,1.);
#177=VECTOR('',#1445,1.);
#178=VECTOR('',#1448,1.);
#179=VECTOR('',#1451,1.);
#180=VECTOR('',#1482,1.);
#181=VECTOR('',#1483,1.);
#182=VECTOR('',#1486,1.);
#183=VECTOR('',#1489,1.);
#184=VECTOR('',#1492,1.);
#185=VECTOR('',#1495,1.);
#186=VECTOR('',#1498,1.);
#187=VECTOR('',#1501,1.);
#188=VECTOR('',#1506,1.);
#189=VECTOR('',#1507,1.);
#190=VECTOR('',#1510,1.);
#191=VECTOR('',#1513,1.);
#192=PLANE('',#1086);
#193=PLANE('',#1087);
#194=PLANE('',#1112);
#195=PLANE('',#1115);
#196=PLANE('',#1120);
#197=PLANE('',#1121);
#198=PLANE('',#1124);
#199=PLANE('',#1136);
#200=PLANE('',#1140);
#201=PLANE('',#1144);
#202=PLANE('',#1148);
#203=PLANE('',#1149);
#204=PLANE('',#1161);
#205=PLANE('',#1162);
#206=PLANE('',#1163);
#207=PLANE('',#1164);
#208=PLANE('',#1165);
#209=PLANE('',#1166);
#210=PLANE('',#1167);
#211=PLANE('',#1168);
#212=PLANE('',#1184);
#213=PLANE('',#1185);
#214=PLANE('',#1188);
#215=PLANE('',#1189);
#216=PLANE('',#1191);
#217=PLANE('',#1193);
#218=PLANE('',#1196);
#219=PLANE('',#1197);
#220=PLANE('',#1198);
#221=PLANE('',#1201);
#222=ORIENTED_EDGE('',*,*,#514,.T.);
#223=ORIENTED_EDGE('',*,*,#515,.F.);
#224=ORIENTED_EDGE('',*,*,#516,.T.);
#225=ORIENTED_EDGE('',*,*,#517,.T.);
#226=ORIENTED_EDGE('',*,*,#518,.F.);
#227=ORIENTED_EDGE('',*,*,#519,.T.);
#228=ORIENTED_EDGE('',*,*,#520,.F.);
#229=ORIENTED_EDGE('',*,*,#521,.T.);
#230=ORIENTED_EDGE('',*,*,#522,.F.);
#231=ORIENTED_EDGE('',*,*,#523,.F.);
#232=ORIENTED_EDGE('',*,*,#524,.T.);
#233=ORIENTED_EDGE('',*,*,#525,.T.);
#234=ORIENTED_EDGE('',*,*,#516,.F.);
#235=ORIENTED_EDGE('',*,*,#526,.T.);
#236=ORIENTED_EDGE('',*,*,#527,.T.);
#237=ORIENTED_EDGE('',*,*,#528,.F.);
#238=ORIENTED_EDGE('',*,*,#529,.F.);
#239=ORIENTED_EDGE('',*,*,#530,.T.);
#240=ORIENTED_EDGE('',*,*,#531,.F.);
#241=ORIENTED_EDGE('',*,*,#532,.T.);
#242=ORIENTED_EDGE('',*,*,#533,.T.);
#243=ORIENTED_EDGE('',*,*,#534,.F.);
#244=ORIENTED_EDGE('',*,*,#535,.F.);
#245=ORIENTED_EDGE('',*,*,#536,.T.);
#246=ORIENTED_EDGE('',*,*,#537,.F.);
#247=ORIENTED_EDGE('',*,*,#538,.T.);
#248=ORIENTED_EDGE('',*,*,#539,.T.);
#249=ORIENTED_EDGE('',*,*,#540,.F.);
#250=ORIENTED_EDGE('',*,*,#541,.F.);
#251=ORIENTED_EDGE('',*,*,#542,.T.);
#252=ORIENTED_EDGE('',*,*,#543,.F.);
#253=ORIENTED_EDGE('',*,*,#544,.T.);
#254=ORIENTED_EDGE('',*,*,#545,.T.);
#255=ORIENTED_EDGE('',*,*,#546,.F.);
#256=ORIENTED_EDGE('',*,*,#547,.F.);
#257=ORIENTED_EDGE('',*,*,#548,.T.);
#258=ORIENTED_EDGE('',*,*,#549,.T.);
#259=ORIENTED_EDGE('',*,*,#550,.F.);
#260=ORIENTED_EDGE('',*,*,#551,.T.);
#261=ORIENTED_EDGE('',*,*,#552,.F.);
#262=ORIENTED_EDGE('',*,*,#553,.T.);
#263=ORIENTED_EDGE('',*,*,#554,.F.);
#264=ORIENTED_EDGE('',*,*,#537,.T.);
#265=ORIENTED_EDGE('',*,*,#555,.T.);
#266=ORIENTED_EDGE('',*,*,#556,.F.);
#267=ORIENTED_EDGE('',*,*,#557,.T.);
#268=ORIENTED_EDGE('',*,*,#558,.F.);
#269=ORIENTED_EDGE('',*,*,#534,.T.);
#270=ORIENTED_EDGE('',*,*,#559,.T.);
#271=ORIENTED_EDGE('',*,*,#560,.F.);
#272=ORIENTED_EDGE('',*,*,#561,.F.);
#273=ORIENTED_EDGE('',*,*,#562,.T.);
#274=ORIENTED_EDGE('',*,*,#531,.T.);
#275=ORIENTED_EDGE('',*,*,#563,.T.);
#276=ORIENTED_EDGE('',*,*,#564,.F.);
#277=ORIENTED_EDGE('',*,*,#528,.T.);
#278=ORIENTED_EDGE('',*,*,#565,.T.);
#279=ORIENTED_EDGE('',*,*,#566,.F.);
#280=ORIENTED_EDGE('',*,*,#540,.T.);
#281=ORIENTED_EDGE('',*,*,#567,.T.);
#282=ORIENTED_EDGE('',*,*,#568,.F.);
#283=ORIENTED_EDGE('',*,*,#569,.F.);
#284=ORIENTED_EDGE('',*,*,#570,.F.);
#285=ORIENTED_EDGE('',*,*,#571,.T.);
#286=ORIENTED_EDGE('',*,*,#520,.T.);
#287=ORIENTED_EDGE('',*,*,#572,.T.);
#288=ORIENTED_EDGE('',*,*,#543,.T.);
#289=ORIENTED_EDGE('',*,*,#573,.T.);
#290=ORIENTED_EDGE('',*,*,#574,.F.);
#291=ORIENTED_EDGE('',*,*,#575,.T.);
#292=ORIENTED_EDGE('',*,*,#546,.T.);
#293=ORIENTED_EDGE('',*,*,#576,.T.);
#294=ORIENTED_EDGE('',*,*,#577,.F.);
#295=ORIENTED_EDGE('',*,*,#578,.F.);
#296=ORIENTED_EDGE('',*,*,#579,.F.);
#297=ORIENTED_EDGE('',*,*,#580,.T.);
#298=ORIENTED_EDGE('',*,*,#581,.T.);
#299=ORIENTED_EDGE('',*,*,#582,.T.);
#300=ORIENTED_EDGE('',*,*,#583,.T.);
#301=ORIENTED_EDGE('',*,*,#584,.T.);
#302=ORIENTED_EDGE('',*,*,#585,.T.);
#303=ORIENTED_EDGE('',*,*,#586,.T.);
#304=ORIENTED_EDGE('',*,*,#587,.T.);
#305=ORIENTED_EDGE('',*,*,#588,.F.);
#306=ORIENTED_EDGE('',*,*,#589,.F.);
#307=ORIENTED_EDGE('',*,*,#590,.F.);
#308=ORIENTED_EDGE('',*,*,#591,.F.);
#309=ORIENTED_EDGE('',*,*,#592,.T.);
#310=ORIENTED_EDGE('',*,*,#593,.T.);
#311=ORIENTED_EDGE('',*,*,#594,.F.);
#312=ORIENTED_EDGE('',*,*,#595,.F.);
#313=ORIENTED_EDGE('',*,*,#596,.T.);
#314=ORIENTED_EDGE('',*,*,#591,.T.);
#315=ORIENTED_EDGE('',*,*,#597,.T.);
#316=ORIENTED_EDGE('',*,*,#598,.F.);
#317=ORIENTED_EDGE('',*,*,#599,.T.);
#318=ORIENTED_EDGE('',*,*,#595,.T.);
#319=ORIENTED_EDGE('',*,*,#600,.F.);
#320=ORIENTED_EDGE('',*,*,#601,.F.);
#321=ORIENTED_EDGE('',*,*,#602,.T.);
#322=ORIENTED_EDGE('',*,*,#598,.T.);
#323=ORIENTED_EDGE('',*,*,#603,.T.);
#324=ORIENTED_EDGE('',*,*,#604,.F.);
#325=ORIENTED_EDGE('',*,*,#605,.T.);
#326=ORIENTED_EDGE('',*,*,#601,.T.);
#327=ORIENTED_EDGE('',*,*,#606,.F.);
#328=ORIENTED_EDGE('',*,*,#607,.F.);
#329=ORIENTED_EDGE('',*,*,#608,.T.);
#330=ORIENTED_EDGE('',*,*,#604,.T.);
#331=ORIENTED_EDGE('',*,*,#609,.T.);
#332=ORIENTED_EDGE('',*,*,#610,.F.);
#333=ORIENTED_EDGE('',*,*,#611,.T.);
#334=ORIENTED_EDGE('',*,*,#607,.T.);
#335=ORIENTED_EDGE('',*,*,#612,.F.);
#336=ORIENTED_EDGE('',*,*,#593,.F.);
#337=ORIENTED_EDGE('',*,*,#613,.T.);
#338=ORIENTED_EDGE('',*,*,#610,.T.);
#339=ORIENTED_EDGE('',*,*,#614,.T.);
#340=ORIENTED_EDGE('',*,*,#615,.T.);
#341=ORIENTED_EDGE('',*,*,#616,.T.);
#342=ORIENTED_EDGE('',*,*,#561,.T.);
#343=ORIENTED_EDGE('',*,*,#617,.T.);
#344=ORIENTED_EDGE('',*,*,#618,.F.);
#345=ORIENTED_EDGE('',*,*,#566,.T.);
#346=ORIENTED_EDGE('',*,*,#619,.T.);
#347=ORIENTED_EDGE('',*,*,#620,.T.);
#348=ORIENTED_EDGE('',*,*,#518,.T.);
#349=ORIENTED_EDGE('',*,*,#621,.T.);
#350=ORIENTED_EDGE('',*,*,#622,.F.);
#351=ORIENTED_EDGE('',*,*,#623,.T.);
#352=ORIENTED_EDGE('',*,*,#624,.T.);
#353=ORIENTED_EDGE('',*,*,#625,.T.);
#354=ORIENTED_EDGE('',*,*,#570,.T.);
#355=ORIENTED_EDGE('',*,*,#626,.T.);
#356=ORIENTED_EDGE('',*,*,#627,.F.);
#357=ORIENTED_EDGE('',*,*,#577,.T.);
#358=ORIENTED_EDGE('',*,*,#628,.T.);
#359=ORIENTED_EDGE('',*,*,#629,.T.);
#360=ORIENTED_EDGE('',*,*,#574,.T.);
#361=ORIENTED_EDGE('',*,*,#630,.T.);
#362=ORIENTED_EDGE('',*,*,#631,.F.);
#363=ORIENTED_EDGE('',*,*,#568,.T.);
#364=ORIENTED_EDGE('',*,*,#632,.T.);
#365=ORIENTED_EDGE('',*,*,#633,.T.);
#366=ORIENTED_EDGE('',*,*,#556,.T.);
#367=ORIENTED_EDGE('',*,*,#634,.T.);
#368=ORIENTED_EDGE('',*,*,#635,.F.);
#369=ORIENTED_EDGE('',*,*,#560,.T.);
#370=ORIENTED_EDGE('',*,*,#597,.F.);
#371=ORIENTED_EDGE('',*,*,#594,.T.);
#372=ORIENTED_EDGE('',*,*,#614,.F.);
#373=ORIENTED_EDGE('',*,*,#612,.T.);
#374=ORIENTED_EDGE('',*,*,#609,.F.);
#375=ORIENTED_EDGE('',*,*,#606,.T.);
#376=ORIENTED_EDGE('',*,*,#603,.F.);
#377=ORIENTED_EDGE('',*,*,#600,.T.);
#378=ORIENTED_EDGE('',*,*,#553,.F.);
#379=ORIENTED_EDGE('',*,*,#551,.F.);
#380=ORIENTED_EDGE('',*,*,#549,.F.);
#381=ORIENTED_EDGE('',*,*,#514,.F.);
#382=ORIENTED_EDGE('',*,*,#627,.T.);
#383=ORIENTED_EDGE('',*,*,#636,.T.);
#384=ORIENTED_EDGE('',*,*,#547,.T.);
#385=ORIENTED_EDGE('',*,*,#578,.T.);
#386=ORIENTED_EDGE('',*,*,#545,.F.);
#387=ORIENTED_EDGE('',*,*,#637,.T.);
#388=ORIENTED_EDGE('',*,*,#628,.F.);
#389=ORIENTED_EDGE('',*,*,#576,.F.);
#390=ORIENTED_EDGE('',*,*,#527,.F.);
#391=ORIENTED_EDGE('',*,*,#638,.T.);
#392=ORIENTED_EDGE('',*,*,#619,.F.);
#393=ORIENTED_EDGE('',*,*,#565,.F.);
#394=ORIENTED_EDGE('',*,*,#631,.T.);
#395=ORIENTED_EDGE('',*,*,#639,.T.);
#396=ORIENTED_EDGE('',*,*,#541,.T.);
#397=ORIENTED_EDGE('',*,*,#569,.T.);
#398=ORIENTED_EDGE('',*,*,#618,.T.);
#399=ORIENTED_EDGE('',*,*,#640,.T.);
#400=ORIENTED_EDGE('',*,*,#529,.T.);
#401=ORIENTED_EDGE('',*,*,#564,.T.);
#402=ORIENTED_EDGE('',*,*,#533,.F.);
#403=ORIENTED_EDGE('',*,*,#641,.T.);
#404=ORIENTED_EDGE('',*,*,#615,.F.);
#405=ORIENTED_EDGE('',*,*,#559,.F.);
#406=ORIENTED_EDGE('',*,*,#635,.T.);
#407=ORIENTED_EDGE('',*,*,#642,.T.);
#408=ORIENTED_EDGE('',*,*,#535,.T.);
#409=ORIENTED_EDGE('',*,*,#558,.T.);
#410=ORIENTED_EDGE('',*,*,#539,.F.);
#411=ORIENTED_EDGE('',*,*,#643,.T.);
#412=ORIENTED_EDGE('',*,*,#632,.F.);
#413=ORIENTED_EDGE('',*,*,#567,.F.);
#414=ORIENTED_EDGE('',*,*,#532,.F.);
#415=ORIENTED_EDGE('',*,*,#562,.F.);
#416=ORIENTED_EDGE('',*,*,#616,.F.);
#417=ORIENTED_EDGE('',*,*,#641,.F.);
#418=ORIENTED_EDGE('',*,*,#536,.F.);
#419=ORIENTED_EDGE('',*,*,#642,.F.);
#420=ORIENTED_EDGE('',*,*,#634,.F.);
#421=ORIENTED_EDGE('',*,*,#555,.F.);
#422=ORIENTED_EDGE('',*,*,#530,.F.);
#423=ORIENTED_EDGE('',*,*,#640,.F.);
#424=ORIENTED_EDGE('',*,*,#617,.F.);
#425=ORIENTED_EDGE('',*,*,#563,.F.);
#426=ORIENTED_EDGE('',*,*,#526,.F.);
#427=ORIENTED_EDGE('',*,*,#519,.F.);
#428=ORIENTED_EDGE('',*,*,#620,.F.);
#429=ORIENTED_EDGE('',*,*,#638,.F.);
#430=ORIENTED_EDGE('',*,*,#538,.F.);
#431=ORIENTED_EDGE('',*,*,#557,.F.);
#432=ORIENTED_EDGE('',*,*,#633,.F.);
#433=ORIENTED_EDGE('',*,*,#643,.F.);
#434=ORIENTED_EDGE('',*,*,#542,.F.);
#435=ORIENTED_EDGE('',*,*,#639,.F.);
#436=ORIENTED_EDGE('',*,*,#630,.F.);
#437=ORIENTED_EDGE('',*,*,#573,.F.);
#438=ORIENTED_EDGE('',*,*,#544,.F.);
#439=ORIENTED_EDGE('',*,*,#575,.F.);
#440=ORIENTED_EDGE('',*,*,#629,.F.);
#441=ORIENTED_EDGE('',*,*,#637,.F.);
#442=ORIENTED_EDGE('',*,*,#548,.F.);
#443=ORIENTED_EDGE('',*,*,#636,.F.);
#444=ORIENTED_EDGE('',*,*,#626,.F.);
#445=ORIENTED_EDGE('',*,*,#572,.F.);
#446=ORIENTED_EDGE('',*,*,#644,.F.);
#447=ORIENTED_EDGE('',*,*,#590,.T.);
#448=ORIENTED_EDGE('',*,*,#645,.F.);
#449=ORIENTED_EDGE('',*,*,#588,.T.);
#450=ORIENTED_EDGE('',*,*,#646,.F.);
#451=ORIENTED_EDGE('',*,*,#589,.T.);
#452=ORIENTED_EDGE('',*,*,#647,.F.);
#453=ORIENTED_EDGE('',*,*,#585,.F.);
#454=ORIENTED_EDGE('',*,*,#648,.F.);
#455=ORIENTED_EDGE('',*,*,#599,.F.);
#456=ORIENTED_EDGE('',*,*,#648,.T.);
#457=ORIENTED_EDGE('',*,*,#584,.F.);
#458=ORIENTED_EDGE('',*,*,#649,.F.);
#459=ORIENTED_EDGE('',*,*,#596,.F.);
#460=ORIENTED_EDGE('',*,*,#647,.T.);
#461=ORIENTED_EDGE('',*,*,#602,.F.);
#462=ORIENTED_EDGE('',*,*,#650,.F.);
#463=ORIENTED_EDGE('',*,*,#586,.F.);
#464=ORIENTED_EDGE('',*,*,#649,.T.);
#465=ORIENTED_EDGE('',*,*,#583,.F.);
#466=ORIENTED_EDGE('',*,*,#651,.F.);
#467=ORIENTED_EDGE('',*,*,#592,.F.);
#468=ORIENTED_EDGE('',*,*,#650,.T.);
#469=ORIENTED_EDGE('',*,*,#605,.F.);
#470=ORIENTED_EDGE('',*,*,#652,.F.);
#471=ORIENTED_EDGE('',*,*,#587,.F.);
#472=ORIENTED_EDGE('',*,*,#651,.T.);
#473=ORIENTED_EDGE('',*,*,#582,.F.);
#474=ORIENTED_EDGE('',*,*,#653,.F.);
#475=ORIENTED_EDGE('',*,*,#613,.F.);
#476=ORIENTED_EDGE('',*,*,#652,.T.);
#477=ORIENTED_EDGE('',*,*,#608,.F.);
#478=ORIENTED_EDGE('',*,*,#654,.F.);
#479=ORIENTED_EDGE('',*,*,#580,.F.);
#480=ORIENTED_EDGE('',*,*,#653,.T.);
#481=ORIENTED_EDGE('',*,*,#581,.F.);
#482=ORIENTED_EDGE('',*,*,#654,.T.);
#483=ORIENTED_EDGE('',*,*,#611,.F.);
#484=ORIENTED_EDGE('',*,*,#522,.T.);
#485=ORIENTED_EDGE('',*,*,#655,.T.);
#486=ORIENTED_EDGE('',*,*,#624,.F.);
#487=ORIENTED_EDGE('',*,*,#656,.T.);
#488=ORIENTED_EDGE('',*,*,#623,.F.);
#489=ORIENTED_EDGE('',*,*,#657,.T.);
#490=ORIENTED_EDGE('',*,*,#523,.T.);
#491=ORIENTED_EDGE('',*,*,#656,.F.);
#492=ORIENTED_EDGE('',*,*,#622,.T.);
#493=ORIENTED_EDGE('',*,*,#658,.T.);
#494=ORIENTED_EDGE('',*,*,#524,.F.);
#495=ORIENTED_EDGE('',*,*,#657,.F.);
#496=ORIENTED_EDGE('',*,*,#625,.F.);
#497=ORIENTED_EDGE('',*,*,#655,.F.);
#498=ORIENTED_EDGE('',*,*,#521,.F.);
#499=ORIENTED_EDGE('',*,*,#571,.F.);
#500=ORIENTED_EDGE('',*,*,#621,.F.);
#501=ORIENTED_EDGE('',*,*,#517,.F.);
#502=ORIENTED_EDGE('',*,*,#525,.F.);
#503=ORIENTED_EDGE('',*,*,#658,.F.);
#504=ORIENTED_EDGE('',*,*,#550,.T.);
#505=ORIENTED_EDGE('',*,*,#646,.T.);
#506=ORIENTED_EDGE('',*,*,#552,.T.);
#507=ORIENTED_EDGE('',*,*,#645,.T.);
#508=ORIENTED_EDGE('',*,*,#554,.T.);
#509=ORIENTED_EDGE('',*,*,#644,.T.);
#510=ORIENTED_EDGE('',*,*,#659,.F.);
#511=ORIENTED_EDGE('',*,*,#579,.T.);
#512=ORIENTED_EDGE('',*,*,#515,.T.);
#513=ORIENTED_EDGE('',*,*,#659,.T.);
#514=EDGE_CURVE('',#660,#660,#760,.T.);
#515=EDGE_CURVE('',#661,#661,#761,.T.);
#516=EDGE_CURVE('',#662,#663,#16,.T.);
#517=EDGE_CURVE('',#663,#664,#17,.F.);
#518=EDGE_CURVE('',#665,#664,#18,.T.);
#519=EDGE_CURVE('',#665,#662,#19,.F.);
#520=EDGE_CURVE('',#666,#667,#20,.T.);
#521=EDGE_CURVE('',#666,#668,#762,.T.);
#522=EDGE_CURVE('',#669,#668,#21,.T.);
#523=EDGE_CURVE('',#670,#669,#763,.T.);
#524=EDGE_CURVE('',#670,#671,#22,.T.);
#525=EDGE_CURVE('',#671,#663,#764,.T.);
#526=EDGE_CURVE('',#662,#672,#765,.T.);
#527=EDGE_CURVE('',#672,#673,#23,.T.);
#528=EDGE_CURVE('',#674,#673,#766,.T.);
#529=EDGE_CURVE('',#675,#674,#24,.T.);
#530=EDGE_CURVE('',#675,#676,#767,.T.);
#531=EDGE_CURVE('',#677,#676,#25,.T.);
#532=EDGE_CURVE('',#677,#678,#768,.T.);
#533=EDGE_CURVE('',#678,#679,#26,.T.);
#534=EDGE_CURVE('',#680,#679,#769,.T.);
#535=EDGE_CURVE('',#681,#680,#27,.T.);
#536=EDGE_CURVE('',#681,#682,#770,.T.);
#537=EDGE_CURVE('',#683,#682,#28,.T.);
#538=EDGE_CURVE('',#683,#684,#771,.T.);
#539=EDGE_CURVE('',#684,#685,#29,.T.);
#540=EDGE_CURVE('',#686,#685,#772,.T.);
#541=EDGE_CURVE('',#687,#686,#30,.T.);
#542=EDGE_CURVE('',#687,#688,#773,.T.);
#543=EDGE_CURVE('',#689,#688,#31,.T.);
#544=EDGE_CURVE('',#689,#690,#774,.T.);
#545=EDGE_CURVE('',#690,#691,#32,.T.);
#546=EDGE_CURVE('',#692,#691,#775,.T.);
#547=EDGE_CURVE('',#693,#692,#33,.T.);
#548=EDGE_CURVE('',#693,#667,#776,.T.);
#549=EDGE_CURVE('',#694,#694,#777,.T.);
#550=EDGE_CURVE('',#695,#695,#778,.T.);
#551=EDGE_CURVE('',#696,#696,#779,.T.);
#552=EDGE_CURVE('',#697,#697,#780,.T.);
#553=EDGE_CURVE('',#698,#698,#781,.T.);
#554=EDGE_CURVE('',#699,#699,#782,.T.);
#555=EDGE_CURVE('',#682,#700,#34,.T.);
#556=EDGE_CURVE('',#701,#700,#35,.T.);
#557=EDGE_CURVE('',#701,#683,#36,.F.);
#558=EDGE_CURVE('',#680,#702,#37,.T.);
#559=EDGE_CURVE('',#679,#703,#38,.T.);
#560=EDGE_CURVE('',#702,#703,#783,.T.);
#561=EDGE_CURVE('',#704,#705,#39,.T.);
#562=EDGE_CURVE('',#704,#677,#40,.F.);
#563=EDGE_CURVE('',#676,#705,#41,.T.);
#564=EDGE_CURVE('',#674,#706,#42,.T.);
#565=EDGE_CURVE('',#673,#707,#43,.T.);
#566=EDGE_CURVE('',#706,#707,#784,.T.);
#567=EDGE_CURVE('',#685,#708,#44,.T.);
#568=EDGE_CURVE('',#709,#708,#785,.T.);
#569=EDGE_CURVE('',#686,#709,#45,.T.);
#570=EDGE_CURVE('',#710,#711,#46,.T.);
#571=EDGE_CURVE('',#710,#666,#47,.T.);
#572=EDGE_CURVE('',#667,#711,#48,.T.);
#573=EDGE_CURVE('',#688,#712,#49,.T.);
#574=EDGE_CURVE('',#713,#712,#50,.T.);
#575=EDGE_CURVE('',#713,#689,#51,.F.);
#576=EDGE_CURVE('',#691,#714,#52,.T.);
#577=EDGE_CURVE('',#715,#714,#786,.T.);
#578=EDGE_CURVE('',#692,#715,#53,.T.);
#579=EDGE_CURVE('',#716,#716,#787,.T.);
#580=EDGE_CURVE('',#717,#718,#54,.T.);
#581=EDGE_CURVE('',#718,#719,#788,.F.);
#582=EDGE_CURVE('',#719,#720,#55,.T.);
#583=EDGE_CURVE('',#720,#721,#789,.F.);
#584=EDGE_CURVE('',#721,#722,#56,.T.);
#585=EDGE_CURVE('',#722,#723,#790,.F.);
#586=EDGE_CURVE('',#723,#724,#57,.T.);
#587=EDGE_CURVE('',#724,#717,#791,.F.);
#588=EDGE_CURVE('',#725,#725,#792,.T.);
#589=EDGE_CURVE('',#726,#726,#793,.T.);
#590=EDGE_CURVE('',#727,#727,#794,.T.);
#591=EDGE_CURVE('',#728,#729,#58,.T.);
#592=EDGE_CURVE('',#728,#730,#795,.T.);
#593=EDGE_CURVE('',#730,#731,#59,.T.);
#594=EDGE_CURVE('',#729,#731,#796,.T.);
#595=EDGE_CURVE('',#732,#733,#60,.T.);
#596=EDGE_CURVE('',#732,#728,#61,.T.);
#597=EDGE_CURVE('',#729,#733,#62,.T.);
#598=EDGE_CURVE('',#734,#735,#63,.T.);
#599=EDGE_CURVE('',#734,#732,#797,.T.);
#600=EDGE_CURVE('',#735,#733,#798,.T.);
#601=EDGE_CURVE('',#736,#737,#64,.T.);
#602=EDGE_CURVE('',#736,#734,#65,.T.);
#603=EDGE_CURVE('',#735,#737,#66,.T.);
#604=EDGE_CURVE('',#738,#739,#67,.T.);
#605=EDGE_CURVE('',#738,#736,#799,.T.);
#606=EDGE_CURVE('',#739,#737,#800,.T.);
#607=EDGE_CURVE('',#740,#741,#68,.T.);
#608=EDGE_CURVE('',#740,#738,#69,.T.);
#609=EDGE_CURVE('',#739,#741,#70,.T.);
#610=EDGE_CURVE('',#742,#743,#71,.T.);
#611=EDGE_CURVE('',#742,#740,#801,.T.);
#612=EDGE_CURVE('',#743,#741,#802,.T.);
#613=EDGE_CURVE('',#730,#742,#72,.T.);
#614=EDGE_CURVE('',#743,#731,#73,.T.);
#615=EDGE_CURVE('',#703,#744,#74,.T.);
#616=EDGE_CURVE('',#744,#704,#803,.F.);
#617=EDGE_CURVE('',#705,#745,#804,.F.);
#618=EDGE_CURVE('',#706,#745,#75,.T.);
#619=EDGE_CURVE('',#707,#746,#76,.T.);
#620=EDGE_CURVE('',#746,#665,#805,.F.);
#621=EDGE_CURVE('',#664,#747,#806,.F.);
#622=EDGE_CURVE('',#748,#747,#77,.T.);
#623=EDGE_CURVE('',#748,#749,#807,.T.);
#624=EDGE_CURVE('',#749,#750,#78,.T.);
#625=EDGE_CURVE('',#750,#710,#808,.F.);
#626=EDGE_CURVE('',#711,#751,#809,.F.);
#627=EDGE_CURVE('',#715,#751,#79,.T.);
#628=EDGE_CURVE('',#714,#752,#80,.T.);
#629=EDGE_CURVE('',#752,#713,#810,.F.);
#630=EDGE_CURVE('',#712,#753,#811,.F.);
#631=EDGE_CURVE('',#709,#753,#81,.T.);
#632=EDGE_CURVE('',#708,#754,#82,.T.);
#633=EDGE_CURVE('',#754,#701,#812,.F.);
#634=EDGE_CURVE('',#700,#755,#813,.F.);
#635=EDGE_CURVE('',#702,#755,#83,.T.);
#636=EDGE_CURVE('',#751,#693,#84,.F.);
#637=EDGE_CURVE('',#690,#752,#85,.T.);
#638=EDGE_CURVE('',#672,#746,#86,.T.);
#639=EDGE_CURVE('',#753,#687,#87,.F.);
#640=EDGE_CURVE('',#745,#675,#88,.F.);
#641=EDGE_CURVE('',#678,#744,#89,.T.);
#642=EDGE_CURVE('',#755,#681,#90,.F.);
#643=EDGE_CURVE('',#684,#754,#91,.T.);
#644=EDGE_CURVE('',#756,#756,#814,.T.);
#645=EDGE_CURVE('',#757,#757,#815,.T.);
#646=EDGE_CURVE('',#758,#758,#816,.T.);
#647=EDGE_CURVE('',#723,#734,#92,.T.);
#648=EDGE_CURVE('',#732,#722,#93,.T.);
#649=EDGE_CURVE('',#728,#721,#94,.T.);
#650=EDGE_CURVE('',#724,#736,#95,.T.);
#651=EDGE_CURVE('',#730,#720,#96,.T.);
#652=EDGE_CURVE('',#717,#738,#97,.T.);
#653=EDGE_CURVE('',#742,#719,#98,.T.);
#654=EDGE_CURVE('',#718,#740,#99,.T.);
#655=EDGE_CURVE('',#668,#750,#100,.F.);
#656=EDGE_CURVE('',#749,#669,#101,.T.);
#657=EDGE_CURVE('',#748,#670,#102,.T.);
#658=EDGE_CURVE('',#747,#671,#103,.T.);
#659=EDGE_CURVE('',#759,#759,#817,.T.);
#660=VERTEX_POINT('',#1533);
#661=VERTEX_POINT('',#1535);
#662=VERTEX_POINT('',#1538);
#663=VERTEX_POINT('',#1539);
#664=VERTEX_POINT('',#1541);
#665=VERTEX_POINT('',#1543);
#666=VERTEX_POINT('',#1547);
#667=VERTEX_POINT('',#1548);
#668=VERTEX_POINT('',#1550);
#669=VERTEX_POINT('',#1552);
#670=VERTEX_POINT('',#1554);
#671=VERTEX_POINT('',#1556);
#672=VERTEX_POINT('',#1559);
#673=VERTEX_POINT('',#1561);
#674=VERTEX_POINT('',#1563);
#675=VERTEX_POINT('',#1565);
#676=VERTEX_POINT('',#1567);
#677=VERTEX_POINT('',#1569);
#678=VERTEX_POINT('',#1571);
#679=VERTEX_POINT('',#1573);
#680=VERTEX_POINT('',#1575);
#681=VERTEX_POINT('',#1577);
#682=VERTEX_POINT('',#1579);
#683=VERTEX_POINT('',#1581);
#684=VERTEX_POINT('',#1583);
#685=VERTEX_POINT('',#1585);
#686=VERTEX_POINT('',#1587);
#687=VERTEX_POINT('',#1589);
#688=VERTEX_POINT('',#1591);
#689=VERTEX_POINT('',#1593);
#690=VERTEX_POINT('',#1595);
#691=VERTEX_POINT('',#1597);
#692=VERTEX_POINT('',#1599);
#693=VERTEX_POINT('',#1601);
#694=VERTEX_POINT('',#1605);
#695=VERTEX_POINT('',#1607);
#696=VERTEX_POINT('',#1610);
#697=VERTEX_POINT('',#1612);
#698=VERTEX_POINT('',#1615);
#699=VERTEX_POINT('',#1617);
#700=VERTEX_POINT('',#1620);
#701=VERTEX_POINT('',#1622);
#702=VERTEX_POINT('',#1626);
#703=VERTEX_POINT('',#1628);
#704=VERTEX_POINT('',#1632);
#705=VERTEX_POINT('',#1633);
#706=VERTEX_POINT('',#1638);
#707=VERTEX_POINT('',#1640);
#708=VERTEX_POINT('',#1644);
#709=VERTEX_POINT('',#1646);
#710=VERTEX_POINT('',#1650);
#711=VERTEX_POINT('',#1651);
#712=VERTEX_POINT('',#1656);
#713=VERTEX_POINT('',#1658);
#714=VERTEX_POINT('',#1662);
#715=VERTEX_POINT('',#1664);
#716=VERTEX_POINT('',#1668);
#717=VERTEX_POINT('',#1670);
#718=VERTEX_POINT('',#1671);
#719=VERTEX_POINT('',#1673);
#720=VERTEX_POINT('',#1675);
#721=VERTEX_POINT('',#1677);
#722=VERTEX_POINT('',#1679);
#723=VERTEX_POINT('',#1681);
#724=VERTEX_POINT('',#1683);
#725=VERTEX_POINT('',#1686);
#726=VERTEX_POINT('',#1688);
#727=VERTEX_POINT('',#1690);
#728=VERTEX_POINT('',#1693);
#729=VERTEX_POINT('',#1694);
#730=VERTEX_POINT('',#1696);
#731=VERTEX_POINT('',#1698);
#732=VERTEX_POINT('',#1702);
#733=VERTEX_POINT('',#1703);
#734=VERTEX_POINT('',#1708);
#735=VERTEX_POINT('',#1709);
#736=VERTEX_POINT('',#1714);
#737=VERTEX_POINT('',#1715);
#738=VERTEX_POINT('',#1720);
#739=VERTEX_POINT('',#1721);
#740=VERTEX_POINT('',#1726);
#741=VERTEX_POINT('',#1727);
#742=VERTEX_POINT('',#1732);
#743=VERTEX_POINT('',#1733);
#744=VERTEX_POINT('',#1741);
#745=VERTEX_POINT('',#1744);
#746=VERTEX_POINT('',#1747);
#747=VERTEX_POINT('',#1750);
#748=VERTEX_POINT('',#1752);
#749=VERTEX_POINT('',#1754);
#750=VERTEX_POINT('',#1756);
#751=VERTEX_POINT('',#1759);
#752=VERTEX_POINT('',#1762);
#753=VERTEX_POINT('',#1765);
#754=VERTEX_POINT('',#1768);
#755=VERTEX_POINT('',#1771);
#756=VERTEX_POINT('',#1799);
#757=VERTEX_POINT('',#1802);
#758=VERTEX_POINT('',#1805);
#759=VERTEX_POINT('',#1836);
#760=CIRCLE('',#1084,0.0016);
#761=CIRCLE('',#1085,0.0016);
#762=CIRCLE('',#1088,0.002);
#763=CIRCLE('',#1089,0.00359999795008606);
#764=CIRCLE('',#1090,0.002);
#765=CIRCLE('',#1091,0.002);
#766=CIRCLE('',#1092,0.00369999897504301);
#767=CIRCLE('',#1093,0.002);
#768=CIRCLE('',#1094,0.002);
#769=CIRCLE('',#1095,0.00369999897504301);
#770=CIRCLE('',#1096,0.002);
#771=CIRCLE('',#1097,0.002);
#772=CIRCLE('',#1098,0.00369999897504301);
#773=CIRCLE('',#1099,0.002);
#774=CIRCLE('',#1100,0.002);
#775=CIRCLE('',#1101,0.00369999897504301);
#776=CIRCLE('',#1102,0.002);
#777=CIRCLE('',#1104,0.0016);
#778=CIRCLE('',#1105,0.0016);
#779=CIRCLE('',#1107,0.0016);
#780=CIRCLE('',#1108,0.0016);
#781=CIRCLE('',#1110,0.0016);
#782=CIRCLE('',#1111,0.0016);
#783=CIRCLE('',#1114,0.00369999897504301);
#784=CIRCLE('',#1117,0.00369999897504301);
#785=CIRCLE('',#1119,0.00369999897504301);
#786=CIRCLE('',#1123,0.00369999897504301);
#787=CIRCLE('',#1125,0.003);
#788=CIRCLE('',#1126,0.0027);
#789=CIRCLE('',#1127,0.0027);
#790=CIRCLE('',#1128,0.0027);
#791=CIRCLE('',#1129,0.0027);
#792=CIRCLE('',#1130,0.003);
#793=CIRCLE('',#1131,0.003);
#794=CIRCLE('',#1132,0.003);
#795=CIRCLE('',#1134,0.004);
#796=CIRCLE('',#1135,0.004);
#797=CIRCLE('',#1138,0.004);
#798=CIRCLE('',#1139,0.004);
#799=CIRCLE('',#1142,0.004);
#800=CIRCLE('',#1143,0.004);
#801=CIRCLE('',#1146,0.004);
#802=CIRCLE('',#1147,0.004);
#803=CIRCLE('',#1150,0.002);
#804=CIRCLE('',#1151,0.002);
#805=CIRCLE('',#1152,0.002);
#806=CIRCLE('',#1153,0.002);
#807=CIRCLE('',#1154,0.00359999795008606);
#808=CIRCLE('',#1155,0.002);
#809=CIRCLE('',#1156,0.002);
#810=CIRCLE('',#1157,0.002);
#811=CIRCLE('',#1158,0.002);
#812=CIRCLE('',#1159,0.002);
#813=CIRCLE('',#1160,0.002);
#814=CIRCLE('',#1178,0.003);
#815=CIRCLE('',#1180,0.003);
#816=CIRCLE('',#1182,0.003);
#817=CIRCLE('',#1200,0.003);
#818=EDGE_LOOP('',(#222));
#819=EDGE_LOOP('',(#223));
#820=EDGE_LOOP('',(#224,#225,#226,#227));
#821=EDGE_LOOP('',(#228,#229,#230,#231,#232,#233,#234,#235,#236,#237,#238,
#239,#240,#241,#242,#243,#244,#245,#246,#247,#248,#249,#250,#251,#252,#253,
#254,#255,#256,#257));
#822=EDGE_LOOP('',(#258));
#823=EDGE_LOOP('',(#259));
#824=EDGE_LOOP('',(#260));
#825=EDGE_LOOP('',(#261));
#826=EDGE_LOOP('',(#262));
#827=EDGE_LOOP('',(#263));
#828=EDGE_LOOP('',(#264,#265,#266,#267));
#829=EDGE_LOOP('',(#268,#269,#270,#271));
#830=EDGE_LOOP('',(#272,#273,#274,#275));
#831=EDGE_LOOP('',(#276,#277,#278,#279));
#832=EDGE_LOOP('',(#280,#281,#282,#283));
#833=EDGE_LOOP('',(#284,#285,#286,#287));
#834=EDGE_LOOP('',(#288,#289,#290,#291));
#835=EDGE_LOOP('',(#292,#293,#294,#295));
#836=EDGE_LOOP('',(#296));
#837=EDGE_LOOP('',(#297,#298,#299,#300,#301,#302,#303,#304));
#838=EDGE_LOOP('',(#305));
#839=EDGE_LOOP('',(#306));
#840=EDGE_LOOP('',(#307));
#841=EDGE_LOOP('',(#308,#309,#310,#311));
#842=EDGE_LOOP('',(#312,#313,#314,#315));
#843=EDGE_LOOP('',(#316,#317,#318,#319));
#844=EDGE_LOOP('',(#320,#321,#322,#323));
#845=EDGE_LOOP('',(#324,#325,#326,#327));
#846=EDGE_LOOP('',(#328,#329,#330,#331));
#847=EDGE_LOOP('',(#332,#333,#334,#335));
#848=EDGE_LOOP('',(#336,#337,#338,#339));
#849=EDGE_LOOP('',(#340,#341,#342,#343,#344,#345,#346,#347,#348,#349,#350,
#351,#352,#353,#354,#355,#356,#357,#358,#359,#360,#361,#362,#363,#364,#365,
#366,#367,#368,#369));
#850=EDGE_LOOP('',(#370,#371,#372,#373,#374,#375,#376,#377));
#851=EDGE_LOOP('',(#378));
#852=EDGE_LOOP('',(#379));
#853=EDGE_LOOP('',(#380));
#854=EDGE_LOOP('',(#381));
#855=EDGE_LOOP('',(#382,#383,#384,#385));
#856=EDGE_LOOP('',(#386,#387,#388,#389));
#857=EDGE_LOOP('',(#390,#391,#392,#393));
#858=EDGE_LOOP('',(#394,#395,#396,#397));
#859=EDGE_LOOP('',(#398,#399,#400,#401));
#860=EDGE_LOOP('',(#402,#403,#404,#405));
#861=EDGE_LOOP('',(#406,#407,#408,#409));
#862=EDGE_LOOP('',(#410,#411,#412,#413));
#863=EDGE_LOOP('',(#414,#415,#416,#417));
#864=EDGE_LOOP('',(#418,#419,#420,#421));
#865=EDGE_LOOP('',(#422,#423,#424,#425));
#866=EDGE_LOOP('',(#426,#427,#428,#429));
#867=EDGE_LOOP('',(#430,#431,#432,#433));
#868=EDGE_LOOP('',(#434,#435,#436,#437));
#869=EDGE_LOOP('',(#438,#439,#440,#441));
#870=EDGE_LOOP('',(#442,#443,#444,#445));
#871=EDGE_LOOP('',(#446));
#872=EDGE_LOOP('',(#447));
#873=EDGE_LOOP('',(#448));
#874=EDGE_LOOP('',(#449));
#875=EDGE_LOOP('',(#450));
#876=EDGE_LOOP('',(#451));
#877=EDGE_LOOP('',(#452,#453,#454,#455));
#878=EDGE_LOOP('',(#456,#457,#458,#459));
#879=EDGE_LOOP('',(#460,#461,#462,#463));
#880=EDGE_LOOP('',(#464,#465,#466,#467));
#881=EDGE_LOOP('',(#468,#469,#470,#471));
#882=EDGE_LOOP('',(#472,#473,#474,#475));
#883=EDGE_LOOP('',(#476,#477,#478,#479));
#884=EDGE_LOOP('',(#480,#481,#482,#483));
#885=EDGE_LOOP('',(#484,#485,#486,#487));
#886=EDGE_LOOP('',(#488,#489,#490,#491));
#887=EDGE_LOOP('',(#492,#493,#494,#495));
#888=EDGE_LOOP('',(#496,#497,#498,#499));
#889=EDGE_LOOP('',(#500,#501,#502,#503));
#890=EDGE_LOOP('',(#504));
#891=EDGE_LOOP('',(#505));
#892=EDGE_LOOP('',(#506));
#893=EDGE_LOOP('',(#507));
#894=EDGE_LOOP('',(#508));
#895=EDGE_LOOP('',(#509));
#896=EDGE_LOOP('',(#510));
#897=EDGE_LOOP('',(#511));
#898=EDGE_LOOP('',(#512));
#899=EDGE_LOOP('',(#513));
#900=FACE_BOUND('',#818,.T.);
#901=FACE_BOUND('',#819,.T.);
#902=FACE_BOUND('',#820,.T.);
#903=FACE_BOUND('',#821,.T.);
#904=FACE_BOUND('',#822,.T.);
#905=FACE_BOUND('',#823,.T.);
#906=FACE_BOUND('',#824,.T.);
#907=FACE_BOUND('',#825,.T.);
#908=FACE_BOUND('',#826,.T.);
#909=FACE_BOUND('',#827,.T.);
#910=FACE_BOUND('',#828,.T.);
#911=FACE_BOUND('',#829,.T.);
#912=FACE_BOUND('',#830,.T.);
#913=FACE_BOUND('',#831,.T.);
#914=FACE_BOUND('',#832,.T.);
#915=FACE_BOUND('',#833,.T.);
#916=FACE_BOUND('',#834,.T.);
#917=FACE_BOUND('',#835,.T.);
#918=FACE_BOUND('',#836,.T.);
#919=FACE_BOUND('',#837,.T.);
#920=FACE_BOUND('',#838,.T.);
#921=FACE_BOUND('',#839,.T.);
#922=FACE_BOUND('',#840,.T.);
#923=FACE_BOUND('',#841,.T.);
#924=FACE_BOUND('',#842,.T.);
#925=FACE_BOUND('',#843,.T.);
#926=FACE_BOUND('',#844,.T.);
#927=FACE_BOUND('',#845,.T.);
#928=FACE_BOUND('',#846,.T.);
#929=FACE_BOUND('',#847,.T.);
#930=FACE_BOUND('',#848,.T.);
#931=FACE_BOUND('',#849,.T.);
#932=FACE_BOUND('',#850,.T.);
#933=FACE_BOUND('',#851,.T.);
#934=FACE_BOUND('',#852,.T.);
#935=FACE_BOUND('',#853,.T.);
#936=FACE_BOUND('',#854,.T.);
#937=FACE_BOUND('',#855,.T.);
#938=FACE_BOUND('',#856,.T.);
#939=FACE_BOUND('',#857,.T.);
#940=FACE_BOUND('',#858,.T.);
#941=FACE_BOUND('',#859,.T.);
#942=FACE_BOUND('',#860,.T.);
#943=FACE_BOUND('',#861,.T.);
#944=FACE_BOUND('',#862,.T.);
#945=FACE_BOUND('',#863,.T.);
#946=FACE_BOUND('',#864,.T.);
#947=FACE_BOUND('',#865,.T.);
#948=FACE_BOUND('',#866,.T.);
#949=FACE_BOUND('',#867,.T.);
#950=FACE_BOUND('',#868,.T.);
#951=FACE_BOUND('',#869,.T.);
#952=FACE_BOUND('',#870,.T.);
#953=FACE_BOUND('',#871,.T.);
#954=FACE_BOUND('',#872,.T.);
#955=FACE_BOUND('',#873,.T.);
#956=FACE_BOUND('',#874,.T.);
#957=FACE_BOUND('',#875,.T.);
#958=FACE_BOUND('',#876,.T.);
#959=FACE_BOUND('',#877,.T.);
#960=FACE_BOUND('',#878,.T.);
#961=FACE_BOUND('',#879,.T.);
#962=FACE_BOUND('',#880,.T.);
#963=FACE_BOUND('',#881,.T.);
#964=FACE_BOUND('',#882,.T.);
#965=FACE_BOUND('',#883,.T.);
#966=FACE_BOUND('',#884,.T.);
#967=FACE_BOUND('',#885,.T.);
#968=FACE_BOUND('',#886,.T.);
#969=FACE_BOUND('',#887,.T.);
#970=FACE_BOUND('',#888,.T.);
#971=FACE_BOUND('',#889,.T.);
#972=FACE_BOUND('',#890,.T.);
#973=FACE_BOUND('',#891,.T.);
#974=FACE_BOUND('',#892,.T.);
#975=FACE_BOUND('',#893,.T.);
#976=FACE_BOUND('',#894,.T.);
#977=FACE_BOUND('',#895,.T.);
#978=FACE_BOUND('',#896,.T.);
#979=FACE_BOUND('',#897,.T.);
#980=FACE_BOUND('',#898,.T.);
#981=FACE_BOUND('',#899,.T.);
#982=CYLINDRICAL_SURFACE('',#1083,0.0016);
#983=CYLINDRICAL_SURFACE('',#1103,0.0016);
#984=CYLINDRICAL_SURFACE('',#1106,0.0016);
#985=CYLINDRICAL_SURFACE('',#1109,0.0016);
#986=CYLINDRICAL_SURFACE('',#1113,0.00369999897504301);
#987=CYLINDRICAL_SURFACE('',#1116,0.00369999897504301);
#988=CYLINDRICAL_SURFACE('',#1118,0.00369999897504301);
#989=CYLINDRICAL_SURFACE('',#1122,0.00369999897504301);
#990=CYLINDRICAL_SURFACE('',#1133,0.004);
#991=CYLINDRICAL_SURFACE('',#1137,0.004);
#992=CYLINDRICAL_SURFACE('',#1141,0.004);
#993=CYLINDRICAL_SURFACE('',#1145,0.004);
#994=CYLINDRICAL_SURFACE('',#1169,0.002);
#995=CYLINDRICAL_SURFACE('',#1170,0.002);
#996=CYLINDRICAL_SURFACE('',#1171,0.002);
#997=CYLINDRICAL_SURFACE('',#1172,0.002);
#998=CYLINDRICAL_SURFACE('',#1173,0.002);
#999=CYLINDRICAL_SURFACE('',#1174,0.002);
#1000=CYLINDRICAL_SURFACE('',#1175,0.002);
#1001=CYLINDRICAL_SURFACE('',#1176,0.002);
#1002=CYLINDRICAL_SURFACE('',#1177,0.003);
#1003=CYLINDRICAL_SURFACE('',#1179,0.003);
#1004=CYLINDRICAL_SURFACE('',#1181,0.003);
#1005=CYLINDRICAL_SURFACE('',#1192,0.00359999795008606);
#1006=CYLINDRICAL_SURFACE('',#1194,0.002);
#1007=CYLINDRICAL_SURFACE('',#1195,0.002);
#1008=CYLINDRICAL_SURFACE('',#1199,0.003);
#1009=ADVANCED_FACE('',(#900,#901),#982,.F.);
#1010=ADVANCED_FACE('',(#902),#192,.F.);
#1011=ADVANCED_FACE('',(#903),#193,.T.);
#1012=ADVANCED_FACE('',(#904,#905),#983,.F.);
#1013=ADVANCED_FACE('',(#906,#907),#984,.F.);
#1014=ADVANCED_FACE('',(#908,#909),#985,.F.);
#1015=ADVANCED_FACE('',(#910),#194,.F.);
#1016=ADVANCED_FACE('',(#911),#986,.T.);
#1017=ADVANCED_FACE('',(#912),#195,.F.);
#1018=ADVANCED_FACE('',(#913),#987,.T.);
#1019=ADVANCED_FACE('',(#914),#988,.T.);
#1020=ADVANCED_FACE('',(#915),#196,.F.);
#1021=ADVANCED_FACE('',(#916),#197,.F.);
#1022=ADVANCED_FACE('',(#917),#989,.T.);
#1023=ADVANCED_FACE('',(#918,#919,#920,#921,#922),#198,.F.);
#1024=ADVANCED_FACE('',(#923),#990,.T.);
#1025=ADVANCED_FACE('',(#924),#199,.F.);
#1026=ADVANCED_FACE('',(#925),#991,.T.);
#1027=ADVANCED_FACE('',(#926),#200,.F.);
#1028=ADVANCED_FACE('',(#927),#992,.T.);
#1029=ADVANCED_FACE('',(#928),#201,.F.);
#1030=ADVANCED_FACE('',(#929),#993,.T.);
#1031=ADVANCED_FACE('',(#930),#202,.F.);
#1032=ADVANCED_FACE('',(#931,#932,#933,#934,#935,#936),#203,.T.);
#1033=ADVANCED_FACE('',(#937),#204,.F.);
#1034=ADVANCED_FACE('',(#938),#205,.T.);
#1035=ADVANCED_FACE('',(#939),#206,.T.);
#1036=ADVANCED_FACE('',(#940),#207,.F.);
#1037=ADVANCED_FACE('',(#941),#208,.F.);
#1038=ADVANCED_FACE('',(#942),#209,.T.);
#1039=ADVANCED_FACE('',(#943),#210,.F.);
#1040=ADVANCED_FACE('',(#944),#211,.T.);
#1041=ADVANCED_FACE('',(#945),#994,.F.);
#1042=ADVANCED_FACE('',(#946),#995,.F.);
#1043=ADVANCED_FACE('',(#947),#996,.F.);
#1044=ADVANCED_FACE('',(#948),#997,.F.);
#1045=ADVANCED_FACE('',(#949),#998,.F.);
#1046=ADVANCED_FACE('',(#950),#999,.F.);
#1047=ADVANCED_FACE('',(#951),#1000,.F.);
#1048=ADVANCED_FACE('',(#952),#1001,.F.);
#1049=ADVANCED_FACE('',(#953,#954),#1002,.F.);
#1050=ADVANCED_FACE('',(#955,#956),#1003,.F.);
#1051=ADVANCED_FACE('',(#957,#958),#1004,.F.);
#1052=ADVANCED_FACE('',(#959),#12,.T.);
#1053=ADVANCED_FACE('',(#960),#212,.F.);
#1054=ADVANCED_FACE('',(#961),#213,.F.);
#1055=ADVANCED_FACE('',(#962),#13,.T.);
#1056=ADVANCED_FACE('',(#963),#14,.T.);
#1057=ADVANCED_FACE('',(#964),#214,.F.);
#1058=ADVANCED_FACE('',(#965),#215,.F.);
#1059=ADVANCED_FACE('',(#966),#15,.T.);
#1060=ADVANCED_FACE('',(#967),#216,.F.);
#1061=ADVANCED_FACE('',(#968),#1005,.T.);
#1062=ADVANCED_FACE('',(#969),#217,.T.);
#1063=ADVANCED_FACE('',(#970),#1006,.F.);
#1064=ADVANCED_FACE('',(#971),#1007,.F.);
#1065=ADVANCED_FACE('',(#972,#973),#218,.T.);
#1066=ADVANCED_FACE('',(#974,#975),#219,.T.);
#1067=ADVANCED_FACE('',(#976,#977),#220,.T.);
#1068=ADVANCED_FACE('',(#978,#979),#1008,.F.);
#1069=ADVANCED_FACE('',(#980,#981),#221,.T.);
#1070=CLOSED_SHELL('',(#1009,#1010,#1011,#1012,#1013,#1014,#1015,#1016,
#1017,#1018,#1019,#1020,#1021,#1022,#1023,#1024,#1025,#1026,#1027,#1028,
#1029,#1030,#1031,#1032,#1033,#1034,#1035,#1036,#1037,#1038,#1039,#1040,
#1041,#1042,#1043,#1044,#1045,#1046,#1047,#1048,#1049,#1050,#1051,#1052,
#1053,#1054,#1055,#1056,#1057,#1058,#1059,#1060,#1061,#1062,#1063,#1064,
#1065,#1066,#1067,#1068,#1069));
#1071=STYLED_ITEM('',(#1072),#1079);
#1072=PRESENTATION_STYLE_ASSIGNMENT((#1073));
#1073=SURFACE_STYLE_USAGE(.BOTH.,#1074);
#1074=SURFACE_SIDE_STYLE('',(#1075));
#1075=SURFACE_STYLE_FILL_AREA(#1076);
#1076=FILL_AREA_STYLE('',(#1077));
#1077=FILL_AREA_STYLE_COLOUR('',#1078);
#1078=COLOUR_RGB('',0.901960784313726,0.901960784313726,0.901960784313726);
#1079=MANIFOLD_SOLID_BREP('Part 1',#1070);
#1080=SHAPE_DEFINITION_REPRESENTATION(#1844,#1081);
#1081=SHAPE_REPRESENTATION('Part 1',(#1082),#1839);
#1082=AXIS2_PLACEMENT_3D('',#1530,#1202,#1203);
#1083=AXIS2_PLACEMENT_3D('',#1531,#1204,#1205);
#1084=AXIS2_PLACEMENT_3D('',#1532,#1206,#1207);
#1085=AXIS2_PLACEMENT_3D('',#1534,#1208,#1209);
#1086=AXIS2_PLACEMENT_3D('',#1536,#1210,#1211);
#1087=AXIS2_PLACEMENT_3D('',#1545,#1216,#1217);
#1088=AXIS2_PLACEMENT_3D('',#1549,#1219,#1220);
#1089=AXIS2_PLACEMENT_3D('',#1553,#1222,#1223);
#1090=AXIS2_PLACEMENT_3D('',#1557,#1225,#1226);
#1091=AXIS2_PLACEMENT_3D('',#1558,#1227,#1228);
#1092=AXIS2_PLACEMENT_3D('',#1562,#1230,#1231);
#1093=AXIS2_PLACEMENT_3D('',#1566,#1233,#1234);
#1094=AXIS2_PLACEMENT_3D('',#1570,#1236,#1237);
#1095=AXIS2_PLACEMENT_3D('',#1574,#1239,#1240);
#1096=AXIS2_PLACEMENT_3D('',#1578,#1242,#1243);
#1097=AXIS2_PLACEMENT_3D('',#1582,#1245,#1246);
#1098=AXIS2_PLACEMENT_3D('',#1586,#1248,#1249);
#1099=AXIS2_PLACEMENT_3D('',#1590,#1251,#1252);
#1100=AXIS2_PLACEMENT_3D('',#1594,#1254,#1255);
#1101=AXIS2_PLACEMENT_3D('',#1598,#1257,#1258);
#1102=AXIS2_PLACEMENT_3D('',#1602,#1260,#1261);
#1103=AXIS2_PLACEMENT_3D('',#1603,#1262,#1263);
#1104=AXIS2_PLACEMENT_3D('',#1604,#1264,#1265);
#1105=AXIS2_PLACEMENT_3D('',#1606,#1266,#1267);
#1106=AXIS2_PLACEMENT_3D('',#1608,#1268,#1269);
#1107=AXIS2_PLACEMENT_3D('',#1609,#1270,#1271);
#1108=AXIS2_PLACEMENT_3D('',#1611,#1272,#1273);
#1109=AXIS2_PLACEMENT_3D('',#1613,#1274,#1275);
#1110=AXIS2_PLACEMENT_3D('',#1614,#1276,#1277);
#1111=AXIS2_PLACEMENT_3D('',#1616,#1278,#1279);
#1112=AXIS2_PLACEMENT_3D('',#1618,#1280,#1281);
#1113=AXIS2_PLACEMENT_3D('',#1624,#1285,#1286);
#1114=AXIS2_PLACEMENT_3D('',#1629,#1289,#1290);
#1115=AXIS2_PLACEMENT_3D('',#1630,#1291,#1292);
#1116=AXIS2_PLACEMENT_3D('',#1636,#1296,#1297);
#1117=AXIS2_PLACEMENT_3D('',#1641,#1300,#1301);
#1118=AXIS2_PLACEMENT_3D('',#1642,#1302,#1303);
#1119=AXIS2_PLACEMENT_3D('',#1645,#1305,#1306);
#1120=AXIS2_PLACEMENT_3D('',#1648,#1308,#1309);
#1121=AXIS2_PLACEMENT_3D('',#1654,#1313,#1314);
#1122=AXIS2_PLACEMENT_3D('',#1660,#1318,#1319);
#1123=AXIS2_PLACEMENT_3D('',#1663,#1321,#1322);
#1124=AXIS2_PLACEMENT_3D('',#1666,#1324,#1325);
#1125=AXIS2_PLACEMENT_3D('',#1667,#1326,#1327);
#1126=AXIS2_PLACEMENT_3D('',#1672,#1329,#1330);
#1127=AXIS2_PLACEMENT_3D('',#1676,#1332,#1333);
#1128=AXIS2_PLACEMENT_3D('',#1680,#1335,#1336);
#1129=AXIS2_PLACEMENT_3D('',#1684,#1338,#1339);
#1130=AXIS2_PLACEMENT_3D('',#1685,#1340,#1341);
#1131=AXIS2_PLACEMENT_3D('',#1687,#1342,#1343);
#1132=AXIS2_PLACEMENT_3D('',#1689,#1344,#1345);
#1133=AXIS2_PLACEMENT_3D('',#1691,#1346,#1347);
#1134=AXIS2_PLACEMENT_3D('',#1695,#1349,#1350);
#1135=AXIS2_PLACEMENT_3D('',#1699,#1352,#1353);
#1136=AXIS2_PLACEMENT_3D('',#1700,#1354,#1355);
#1137=AXIS2_PLACEMENT_3D('',#1706,#1359,#1360);
#1138=AXIS2_PLACEMENT_3D('',#1710,#1362,#1363);
#1139=AXIS2_PLACEMENT_3D('',#1711,#1364,#1365);
#1140=AXIS2_PLACEMENT_3D('',#1712,#1366,#1367);
#1141=AXIS2_PLACEMENT_3D('',#1718,#1371,#1372);
#1142=AXIS2_PLACEMENT_3D('',#1722,#1374,#1375);
#1143=AXIS2_PLACEMENT_3D('',#1723,#1376,#1377);
#1144=AXIS2_PLACEMENT_3D('',#1724,#1378,#1379);
#1145=AXIS2_PLACEMENT_3D('',#1730,#1383,#1384);
#1146=AXIS2_PLACEMENT_3D('',#1734,#1386,#1387);
#1147=AXIS2_PLACEMENT_3D('',#1735,#1388,#1389);
#1148=AXIS2_PLACEMENT_3D('',#1736,#1390,#1391);
#1149=AXIS2_PLACEMENT_3D('',#1739,#1394,#1395);
#1150=AXIS2_PLACEMENT_3D('',#1742,#1397,#1398);
#1151=AXIS2_PLACEMENT_3D('',#1743,#1399,#1400);
#1152=AXIS2_PLACEMENT_3D('',#1748,#1403,#1404);
#1153=AXIS2_PLACEMENT_3D('',#1749,#1405,#1406);
#1154=AXIS2_PLACEMENT_3D('',#1753,#1408,#1409);
#1155=AXIS2_PLACEMENT_3D('',#1757,#1411,#1412);
#1156=AXIS2_PLACEMENT_3D('',#1758,#1413,#1414);
#1157=AXIS2_PLACEMENT_3D('',#1763,#1417,#1418);
#1158=AXIS2_PLACEMENT_3D('',#1764,#1419,#1420);
#1159=AXIS2_PLACEMENT_3D('',#1769,#1423,#1424);
#1160=AXIS2_PLACEMENT_3D('',#1770,#1425,#1426);
#1161=AXIS2_PLACEMENT_3D('',#1773,#1428,#1429);
#1162=AXIS2_PLACEMENT_3D('',#1775,#1431,#1432);
#1163=AXIS2_PLACEMENT_3D('',#1777,#1434,#1435);
#1164=AXIS2_PLACEMENT_3D('',#1779,#1437,#1438);
#1165=AXIS2_PLACEMENT_3D('',#1781,#1440,#1441);
#1166=AXIS2_PLACEMENT_3D('',#1783,#1443,#1444);
#1167=AXIS2_PLACEMENT_3D('',#1785,#1446,#1447);
#1168=AXIS2_PLACEMENT_3D('',#1787,#1449,#1450);
#1169=AXIS2_PLACEMENT_3D('',#1789,#1452,#1453);
#1170=AXIS2_PLACEMENT_3D('',#1790,#1454,#1455);
#1171=AXIS2_PLACEMENT_3D('',#1791,#1456,#1457);
#1172=AXIS2_PLACEMENT_3D('',#1792,#1458,#1459);
#1173=AXIS2_PLACEMENT_3D('',#1793,#1460,#1461);
#1174=AXIS2_PLACEMENT_3D('',#1794,#1462,#1463);
#1175=AXIS2_PLACEMENT_3D('',#1795,#1464,#1465);
#1176=AXIS2_PLACEMENT_3D('',#1796,#1466,#1467);
#1177=AXIS2_PLACEMENT_3D('',#1797,#1468,#1469);
#1178=AXIS2_PLACEMENT_3D('',#1798,#1470,#1471);
#1179=AXIS2_PLACEMENT_3D('',#1800,#1472,#1473);
#1180=AXIS2_PLACEMENT_3D('',#1801,#1474,#1475);
#1181=AXIS2_PLACEMENT_3D('',#1803,#1476,#1477);
#1182=AXIS2_PLACEMENT_3D('',#1804,#1478,#1479);
#1183=AXIS2_PLACEMENT_3D('',#1806,#1480,#1481);
#1184=AXIS2_PLACEMENT_3D('',#1809,#1484,#1485);
#1185=AXIS2_PLACEMENT_3D('',#1811,#1487,#1488);
#1186=AXIS2_PLACEMENT_3D('',#1813,#1490,#1491);
#1187=AXIS2_PLACEMENT_3D('',#1815,#1493,#1494);
#1188=AXIS2_PLACEMENT_3D('',#1817,#1496,#1497);
#1189=AXIS2_PLACEMENT_3D('',#1819,#1499,#1500);
#1190=AXIS2_PLACEMENT_3D('',#1821,#1502,#1503);
#1191=AXIS2_PLACEMENT_3D('',#1822,#1504,#1505);
#1192=AXIS2_PLACEMENT_3D('',#1825,#1508,#1509);
#1193=AXIS2_PLACEMENT_3D('',#1827,#1511,#1512);
#1194=AXIS2_PLACEMENT_3D('',#1829,#1514,#1515);
#1195=AXIS2_PLACEMENT_3D('',#1830,#1516,#1517);
#1196=AXIS2_PLACEMENT_3D('',#1831,#1518,#1519);
#1197=AXIS2_PLACEMENT_3D('',#1832,#1520,#1521);
#1198=AXIS2_PLACEMENT_3D('',#1833,#1522,#1523);
#1199=AXIS2_PLACEMENT_3D('',#1834,#1524,#1525);
#1200=AXIS2_PLACEMENT_3D('',#1835,#1526,#1527);
#1201=AXIS2_PLACEMENT_3D('',#1837,#1528,#1529);
#1202=DIRECTION('',(0.,0.,1.));
#1203=DIRECTION('',(1.,0.,0.));
#1204=DIRECTION('',(0.,0.,1.));
#1205=DIRECTION('',(1.,0.,0.));
#1206=DIRECTION('',(0.,0.,1.));
#1207=DIRECTION('',(1.,0.,0.));
#1208=DIRECTION('',(0.,0.,1.));
#1209=DIRECTION('',(1.,0.,0.));
#1210=DIRECTION('',(0.,1.,0.));
#1211=DIRECTION('',(0.,0.,1.));
#1212=DIRECTION('',(1.,0.,0.));
#1213=DIRECTION('',(0.,0.,-1.));
#1214=DIRECTION('',(1.,0.,0.));
#1215=DIRECTION('',(0.,0.,1.));
#1216=DIRECTION('',(0.,0.,1.));
#1217=DIRECTION('',(1.,0.,0.));
#1218=DIRECTION('',(1.,0.,0.));
#1219=DIRECTION('',(0.,0.,1.));
#1220=DIRECTION('',(1.,0.,0.));
#1221=DIRECTION('',(0.,1.,0.));
#1222=DIRECTION('',(0.,0.,1.));
#1223=DIRECTION('',(1.,0.,0.));
#1224=DIRECTION('',(0.,1.,0.));
#1225=DIRECTION('',(0.,0.,1.));
#1226=DIRECTION('',(1.,0.,0.));
#1227=DIRECTION('',(0.,0.,1.));
#1228=DIRECTION('',(1.,0.,0.));
#1229=DIRECTION('',(0.,-1.,0.));
#1230=DIRECTION('',(0.,0.,1.));
#1231=DIRECTION('',(1.,0.,0.));
#1232=DIRECTION('',(1.,0.,0.));
#1233=DIRECTION('',(0.,0.,1.));
#1234=DIRECTION('',(1.,0.,0.));
#1235=DIRECTION('',(0.,1.,0.));
#1236=DIRECTION('',(0.,0.,1.));
#1237=DIRECTION('',(1.,0.,0.));
#1238=DIRECTION('',(1.,0.,0.));
#1239=DIRECTION('',(0.,0.,1.));
#1240=DIRECTION('',(1.,0.,0.));
#1241=DIRECTION('',(0.,1.,0.));
#1242=DIRECTION('',(0.,0.,1.));
#1243=DIRECTION('',(1.,0.,0.));
#1244=DIRECTION('',(-1.,0.,0.));
#1245=DIRECTION('',(0.,0.,1.));
#1246=DIRECTION('',(1.,0.,0.));
#1247=DIRECTION('',(0.,1.,0.));
#1248=DIRECTION('',(0.,0.,1.));
#1249=DIRECTION('',(1.,0.,0.));
#1250=DIRECTION('',(-1.,0.,0.));
#1251=DIRECTION('',(0.,0.,1.));
#1252=DIRECTION('',(1.,0.,0.));
#1253=DIRECTION('',(0.,-1.,0.));
#1254=DIRECTION('',(0.,0.,1.));
#1255=DIRECTION('',(1.,0.,0.));
#1256=DIRECTION('',(-1.,0.,0.));
#1257=DIRECTION('',(0.,0.,1.));
#1258=DIRECTION('',(1.,0.,0.));
#1259=DIRECTION('',(0.,-1.,0.));
#1260=DIRECTION('',(0.,0.,1.));
#1261=DIRECTION('',(1.,0.,0.));
#1262=DIRECTION('',(0.,0.,1.));
#1263=DIRECTION('',(1.,0.,0.));
#1264=DIRECTION('',(0.,0.,1.));
#1265=DIRECTION('',(1.,0.,0.));
#1266=DIRECTION('',(0.,0.,1.));
#1267=DIRECTION('',(1.,0.,0.));
#1268=DIRECTION('',(0.,0.,1.));
#1269=DIRECTION('',(1.,0.,0.));
#1270=DIRECTION('',(0.,0.,1.));
#1271=DIRECTION('',(1.,0.,0.));
#1272=DIRECTION('',(0.,0.,1.));
#1273=DIRECTION('',(1.,0.,0.));
#1274=DIRECTION('',(0.,0.,1.));
#1275=DIRECTION('',(1.,0.,0.));
#1276=DIRECTION('',(0.,0.,1.));
#1277=DIRECTION('',(1.,0.,0.));
#1278=DIRECTION('',(0.,0.,1.));
#1279=DIRECTION('',(1.,0.,0.));
#1280=DIRECTION('',(0.,-1.,0.));
#1281=DIRECTION('',(0.,0.,-1.));
#1282=DIRECTION('',(0.,0.,1.));
#1283=DIRECTION('',(-1.,0.,0.));
#1284=DIRECTION('',(0.,0.,1.));
#1285=DIRECTION('',(0.,0.,-1.));
#1286=DIRECTION('',(-1.,0.,0.));
#1287=DIRECTION('',(0.,0.,1.));
#1288=DIRECTION('',(0.,0.,1.));
#1289=DIRECTION('',(0.,0.,1.));
#1290=DIRECTION('',(1.,0.,0.));
#1291=DIRECTION('',(-1.,0.,0.));
#1292=DIRECTION('',(0.,0.,1.));
#1293=DIRECTION('',(0.,1.,0.));
#1294=DIRECTION('',(0.,0.,1.));
#1295=DIRECTION('',(0.,0.,1.));
#1296=DIRECTION('',(0.,0.,-1.));
#1297=DIRECTION('',(-1.,0.,0.));
#1298=DIRECTION('',(0.,0.,1.));
#1299=DIRECTION('',(0.,0.,1.));
#1300=DIRECTION('',(0.,0.,1.));
#1301=DIRECTION('',(1.,0.,0.));
#1302=DIRECTION('',(0.,0.,-1.));
#1303=DIRECTION('',(-1.,0.,0.));
#1304=DIRECTION('',(0.,0.,1.));
#1305=DIRECTION('',(0.,0.,1.));
#1306=DIRECTION('',(1.,0.,0.));
#1307=DIRECTION('',(0.,0.,1.));
#1308=DIRECTION('',(0.,1.,0.));
#1309=DIRECTION('',(0.,0.,1.));
#1310=DIRECTION('',(1.,0.,0.));
#1311=DIRECTION('',(0.,0.,-1.));
#1312=DIRECTION('',(0.,0.,1.));
#1313=DIRECTION('',(1.,0.,0.));
#1314=DIRECTION('',(0.,0.,-1.));
#1315=DIRECTION('',(0.,0.,1.));
#1316=DIRECTION('',(0.,-1.,0.));
#1317=DIRECTION('',(0.,0.,1.));
#1318=DIRECTION('',(0.,0.,-1.));
#1319=DIRECTION('',(-1.,0.,0.));
#1320=DIRECTION('',(0.,0.,1.));
#1321=DIRECTION('',(0.,0.,1.));
#1322=DIRECTION('',(1.,0.,0.));
#1323=DIRECTION('',(0.,0.,1.));
#1324=DIRECTION('',(0.,0.,1.));
#1325=DIRECTION('',(1.,0.,0.));
#1326=DIRECTION('',(0.,0.,-1.));
#1327=DIRECTION('',(-1.,0.,0.));
#1328=DIRECTION('',(-1.,0.,0.));
#1329=DIRECTION('',(0.,0.,1.));
#1330=DIRECTION('',(1.,0.,0.));
#1331=DIRECTION('',(0.,1.,0.));
#1332=DIRECTION('',(0.,0.,1.));
#1333=DIRECTION('',(1.,0.,0.));
#1334=DIRECTION('',(1.,0.,0.));
#1335=DIRECTION('',(0.,0.,1.));
#1336=DIRECTION('',(1.,0.,0.));
#1337=DIRECTION('',(0.,-1.,0.));
#1338=DIRECTION('',(0.,0.,1.));
#1339=DIRECTION('',(1.,0.,0.));
#1340=DIRECTION('',(0.,0.,-1.));
#1341=DIRECTION('',(-1.,0.,0.));
#1342=DIRECTION('',(0.,0.,-1.));
#1343=DIRECTION('',(-1.,0.,0.));
#1344=DIRECTION('',(0.,0.,-1.));
#1345=DIRECTION('',(-1.,0.,0.));
#1346=DIRECTION('',(0.,0.,1.));
#1347=DIRECTION('',(1.,0.,0.));
#1348=DIRECTION('',(0.,0.,1.));
#1349=DIRECTION('',(0.,0.,1.));
#1350=DIRECTION('',(1.,0.,0.));
#1351=DIRECTION('',(0.,0.,1.));
#1352=DIRECTION('',(0.,0.,1.));
#1353=DIRECTION('',(1.,0.,0.));
#1354=DIRECTION('',(0.,-1.,0.));
#1355=DIRECTION('',(0.,0.,-1.));
#1356=DIRECTION('',(0.,0.,1.));
#1357=DIRECTION('',(-1.,0.,0.));
#1358=DIRECTION('',(1.,0.,0.));
#1359=DIRECTION('',(0.,0.,1.));
#1360=DIRECTION('',(1.,0.,0.));
#1361=DIRECTION('',(0.,0.,1.));
#1362=DIRECTION('',(0.,0.,1.));
#1363=DIRECTION('',(1.,0.,0.));
#1364=DIRECTION('',(0.,0.,1.));
#1365=DIRECTION('',(1.,0.,0.));
#1366=DIRECTION('',(-1.,0.,0.));
#1367=DIRECTION('',(0.,0.,1.));
#1368=DIRECTION('',(0.,0.,1.));
#1369=DIRECTION('',(0.,1.,0.));
#1370=DIRECTION('',(0.,-1.,0.));
#1371=DIRECTION('',(0.,0.,1.));
#1372=DIRECTION('',(1.,0.,0.));
#1373=DIRECTION('',(0.,0.,1.));
#1374=DIRECTION('',(0.,0.,1.));
#1375=DIRECTION('',(1.,0.,0.));
#1376=DIRECTION('',(0.,0.,1.));
#1377=DIRECTION('',(1.,0.,0.));
#1378=DIRECTION('',(0.,1.,0.));
#1379=DIRECTION('',(0.,0.,1.));
#1380=DIRECTION('',(0.,0.,1.));
#1381=DIRECTION('',(1.,0.,0.));
#1382=DIRECTION('',(-1.,0.,0.));
#1383=DIRECTION('',(0.,0.,1.));
#1384=DIRECTION('',(1.,0.,0.));
#1385=DIRECTION('',(0.,0.,1.));
#1386=DIRECTION('',(0.,0.,1.));
#1387=DIRECTION('',(1.,0.,0.));
#1388=DIRECTION('',(0.,0.,1.));
#1389=DIRECTION('',(1.,0.,0.));
#1390=DIRECTION('',(1.,0.,0.));
#1391=DIRECTION('',(0.,0.,-1.));
#1392=DIRECTION('',(0.,-1.,0.));
#1393=DIRECTION('',(0.,1.,0.));
#1394=DIRECTION('',(0.,0.,1.));
#1395=DIRECTION('',(1.,0.,0.));
#1396=DIRECTION('',(-1.,0.,0.));
#1397=DIRECTION('',(0.,0.,1.));
#1398=DIRECTION('',(1.,0.,0.));
#1399=DIRECTION('',(0.,0.,1.));
#1400=DIRECTION('',(1.,0.,0.));
#1401=DIRECTION('',(-1.,0.,0.));
#1402=DIRECTION('',(0.,1.,0.));
#1403=DIRECTION('',(0.,0.,1.));
#1404=DIRECTION('',(1.,0.,0.));
#1405=DIRECTION('',(0.,0.,1.));
#1406=DIRECTION('',(1.,0.,0.));
#1407=DIRECTION('',(0.,1.,0.));
#1408=DIRECTION('',(0.,0.,1.));
#1409=DIRECTION('',(1.,0.,0.));
#1410=DIRECTION('',(0.,1.,0.));
#1411=DIRECTION('',(0.,0.,1.));
#1412=DIRECTION('',(1.,0.,0.));
#1413=DIRECTION('',(0.,0.,1.));
#1414=DIRECTION('',(1.,0.,0.));
#1415=DIRECTION('',(0.,1.,0.));
#1416=DIRECTION('',(1.,0.,0.));
#1417=DIRECTION('',(0.,0.,1.));
#1418=DIRECTION('',(1.,0.,0.));
#1419=DIRECTION('',(0.,0.,1.));
#1420=DIRECTION('',(1.,0.,0.));
#1421=DIRECTION('',(1.,0.,0.));
#1422=DIRECTION('',(0.,-1.,0.));
#1423=DIRECTION('',(0.,0.,1.));
#1424=DIRECTION('',(1.,0.,0.));
#1425=DIRECTION('',(0.,0.,1.));
#1426=DIRECTION('',(1.,0.,0.));
#1427=DIRECTION('',(0.,-1.,0.));
#1428=DIRECTION('',(1.,0.,0.));
#1429=DIRECTION('',(0.,0.,-1.));
#1430=DIRECTION('',(0.,0.,1.));
#1431=DIRECTION('',(0.,-1.,0.));
#1432=DIRECTION('',(0.,0.,-1.));
#1433=DIRECTION('',(0.,0.,1.));
#1434=DIRECTION('',(1.,0.,0.));
#1435=DIRECTION('',(0.,0.,-1.));
#1436=DIRECTION('',(0.,0.,1.));
#1437=DIRECTION('',(0.,-1.,0.));
#1438=DIRECTION('',(0.,0.,-1.));
#1439=DIRECTION('',(0.,0.,1.));
#1440=DIRECTION('',(0.,1.,0.));
#1441=DIRECTION('',(0.,0.,1.));
#1442=DIRECTION('',(0.,0.,1.));
#1443=DIRECTION('',(0.,1.,0.));
#1444=DIRECTION('',(0.,0.,1.));
#1445=DIRECTION('',(0.,0.,1.));
#1446=DIRECTION('',(-1.,0.,0.));
#1447=DIRECTION('',(0.,0.,1.));
#1448=DIRECTION('',(0.,0.,1.));
#1449=DIRECTION('',(-1.,0.,0.));
#1450=DIRECTION('',(0.,0.,1.));
#1451=DIRECTION('',(0.,0.,1.));
#1452=DIRECTION('',(0.,0.,1.));
#1453=DIRECTION('',(1.,0.,0.));
#1454=DIRECTION('',(0.,0.,-1.));
#1455=DIRECTION('',(-1.,0.,0.));
#1456=DIRECTION('',(0.,0.,-1.));
#1457=DIRECTION('',(-1.,0.,0.));
#1458=DIRECTION('',(0.,0.,1.));
#1459=DIRECTION('',(1.,0.,0.));
#1460=DIRECTION('',(0.,0.,1.));
#1461=DIRECTION('',(1.,0.,0.));
#1462=DIRECTION('',(0.,0.,-1.));
#1463=DIRECTION('',(-1.,0.,0.));
#1464=DIRECTION('',(0.,0.,1.));
#1465=DIRECTION('',(1.,0.,0.));
#1466=DIRECTION('',(0.,0.,-1.));
#1467=DIRECTION('',(-1.,0.,0.));
#1468=DIRECTION('',(0.,0.,-1.));
#1469=DIRECTION('',(-1.,0.,0.));
#1470=DIRECTION('',(0.,0.,-1.));
#1471=DIRECTION('',(-1.,0.,0.));
#1472=DIRECTION('',(0.,0.,-1.));
#1473=DIRECTION('',(-1.,0.,0.));
#1474=DIRECTION('',(0.,0.,-1.));
#1475=DIRECTION('',(-1.,0.,0.));
#1476=DIRECTION('',(0.,0.,-1.));
#1477=DIRECTION('',(-1.,0.,0.));
#1478=DIRECTION('',(0.,0.,-1.));
#1479=DIRECTION('',(-1.,0.,0.));
#1480=DIRECTION('',(0.,0.,1.));
#1481=DIRECTION('',(1.,0.,0.));
#1482=DIRECTION('',(0.707106781186548,-3.77426071798984E-15,0.707106781186548));
#1483=DIRECTION('',(0.,-0.707106781186549,-0.707106781186546));
#1484=DIRECTION('',(0.,-0.707106781186548,0.707106781186548));
#1485=DIRECTION('',(1.,0.,0.));
#1486=DIRECTION('',(0.,-0.707106781186548,-0.707106781186548));
#1487=DIRECTION('',(-0.707106781186548,0.,0.707106781186548));
#1488=DIRECTION('',(0.,-1.,0.));
#1489=DIRECTION('',(0.707106781186548,0.,0.707106781186548));
#1490=DIRECTION('',(0.,0.,1.));
#1491=DIRECTION('',(1.,0.,0.));
#1492=DIRECTION('',(0.707106781186549,0.,-0.707106781186546));
#1493=DIRECTION('',(0.,0.,1.));
#1494=DIRECTION('',(1.,0.,0.));
#1495=DIRECTION('',(-7.54852143597967E-15,-0.707106781186548,0.707106781186548));
#1496=DIRECTION('',(0.707106781186548,0.,0.707106781186548));
#1497=DIRECTION('',(0.,1.,0.));
#1498=DIRECTION('',(0.707106781186548,0.,-0.707106781186548));
#1499=DIRECTION('',(0.,0.707106781186548,0.707106781186548));
#1500=DIRECTION('',(-1.,0.,0.));
#1501=DIRECTION('',(-3.77426071798984E-15,-0.707106781186548,0.707106781186548));
#1502=DIRECTION('',(0.,0.,1.));
#1503=DIRECTION('',(1.,0.,0.));
#1504=DIRECTION('',(-1.,0.,0.));
#1505=DIRECTION('',(0.,0.,1.));
#1506=DIRECTION('',(0.,0.,-1.));
#1507=DIRECTION('',(0.,0.,-1.));
#1508=DIRECTION('',(0.,0.,-1.));
#1509=DIRECTION('',(-1.,0.,0.));
#1510=DIRECTION('',(0.,0.,-1.));
#1511=DIRECTION('',(-1.,0.,0.));
#1512=DIRECTION('',(0.,0.,1.));
#1513=DIRECTION('',(0.,0.,-1.));
#1514=DIRECTION('',(0.,0.,1.));
#1515=DIRECTION('',(1.,0.,0.));
#1516=DIRECTION('',(0.,0.,-1.));
#1517=DIRECTION('',(-1.,0.,0.));
#1518=DIRECTION('',(0.,0.,-1.));
#1519=DIRECTION('',(1.,0.,0.));
#1520=DIRECTION('',(0.,0.,-1.));
#1521=DIRECTION('',(1.,0.,0.));
#1522=DIRECTION('',(0.,0.,-1.));
#1523=DIRECTION('',(1.,0.,0.));
#1524=DIRECTION('',(0.,0.,-1.));
#1525=DIRECTION('',(-1.,0.,0.));
#1526=DIRECTION('',(0.,0.,-1.));
#1527=DIRECTION('',(-1.,0.,0.));
#1528=DIRECTION('',(0.,0.,-1.));
#1529=DIRECTION('',(1.,0.,0.));
#1530=CARTESIAN_POINT('',(0.,0.,0.));
#1531=CARTESIAN_POINT('',(0.00708927880544212,0.0482176856532693,-0.023));
#1532=CARTESIAN_POINT('',(0.00708927880544212,0.0482176856532693,0.005));
#1533=CARTESIAN_POINT('',(0.00868927880544212,0.0482176856532693,0.005));
#1534=CARTESIAN_POINT('',(0.00708927880544212,0.0482176856532693,0.0025));
#1535=CARTESIAN_POINT('',(0.00868927880544212,0.0482176856532693,0.0025));
#1536=CARTESIAN_POINT('',(0.00233927880547213,0.0520176856532693,0.005));
#1537=CARTESIAN_POINT('',(0.00233927880547213,0.0520176856532693,0.002));
#1538=CARTESIAN_POINT('',(-0.0243107232444148,0.0520176856532693,0.002));
#1539=CARTESIAN_POINT('',(0.00148928085535606,0.0520176856532693,0.002));
#1540=CARTESIAN_POINT('',(0.00148928085535606,0.0520176856532693,0.005));
#1541=CARTESIAN_POINT('',(0.00148928085535606,0.0520176856532693,0.005));
#1542=CARTESIAN_POINT('',(0.00233927880547213,0.0520176856532693,0.005));
#1543=CARTESIAN_POINT('',(-0.0243107232444148,0.0520176856532693,0.005));
#1544=CARTESIAN_POINT('',(-0.0243107232444148,0.0520176856532693,0.005));
#1545=CARTESIAN_POINT('',(0.,1.38777878078145E-17,0.002));
#1546=CARTESIAN_POINT('',(0.00233927880547213,0.0520176856532693,0.002));
#1547=CARTESIAN_POINT('',(0.0126892767555282,0.0520176856532693,0.002));
#1548=CARTESIAN_POINT('',(0.0289892808553591,0.0520176856532693,0.002));
#1549=CARTESIAN_POINT('',(0.0126892767555282,0.0500176856532693,0.002));
#1550=CARTESIAN_POINT('',(0.0106892767555282,0.0500176856532693,0.002));
#1551=CARTESIAN_POINT('',(0.0106892767555282,0.0501176856532693,0.002));
#1552=CARTESIAN_POINT('',(0.0106892767555282,0.0482176856532693,0.002));
#1553=CARTESIAN_POINT('',(0.00708927880544212,0.0482176856532693,0.002));
#1554=CARTESIAN_POINT('',(0.00348928085535606,0.0482176856532693,0.002));
#1555=CARTESIAN_POINT('',(0.00348928085535606,0.0501176856532693,0.002));
#1556=CARTESIAN_POINT('',(0.00348928085535606,0.0500176856532693,0.002));
#1557=CARTESIAN_POINT('',(0.00148928085535606,0.0500176856532693,0.002));
#1558=CARTESIAN_POINT('',(-0.0243107232444148,0.0500176856532693,0.002));
#1559=CARTESIAN_POINT('',(-0.0263107232444149,0.0500176856532693,0.002));
#1560=CARTESIAN_POINT('',(-0.0263107232444149,0.0501676861657478,0.002));
#1561=CARTESIAN_POINT('',(-0.0263107232444149,0.0483176866782262,0.002));
#1562=CARTESIAN_POINT('',(-0.0300107222194578,0.0483176866782262,0.002));
#1563=CARTESIAN_POINT('',(-0.0300107222194578,0.0446176877031833,0.002));
#1564=CARTESIAN_POINT('',(-0.0318607217070078,0.0446176877031833,0.002));
#1565=CARTESIAN_POINT('',(-0.0317107211945578,0.0446176877031833,0.002));
#1566=CARTESIAN_POINT('',(-0.0317107211945578,0.0426176877031832,0.002));
#1567=CARTESIAN_POINT('',(-0.0337107211945578,0.0426176877031832,0.002));
#1568=CARTESIAN_POINT('',(-0.0337107211945578,1.76856532727795E-5,0.002));
#1569=CARTESIAN_POINT('',(-0.0337107211945578,-0.0425823163966376,0.002));
#1570=CARTESIAN_POINT('',(-0.0317107211945578,-0.0425823163966376,0.002));
#1571=CARTESIAN_POINT('',(-0.0317107211945578,-0.0445823163966377,0.002));
#1572=CARTESIAN_POINT('',(-0.0318607217070078,-0.0445823163966377,0.002));
#1573=CARTESIAN_POINT('',(-0.0300107222194578,-0.0445823163966377,0.002));
#1574=CARTESIAN_POINT('',(-0.0300107222194578,-0.0482823153716807,0.002));
#1575=CARTESIAN_POINT('',(-0.0263107232444149,-0.0482823153716807,0.002));
#1576=CARTESIAN_POINT('',(-0.0263107232444149,-0.0501323148592057,0.002));
#1577=CARTESIAN_POINT('',(-0.0263107232444149,-0.0499823143467307,0.002));
#1578=CARTESIAN_POINT('',(-0.0243107232444148,-0.0499823143467307,0.002));
#1579=CARTESIAN_POINT('',(-0.0243107232444148,-0.0519823143467307,0.002));
#1580=CARTESIAN_POINT('',(0.00233927880547212,-0.0519823143467307,0.002));
#1581=CARTESIAN_POINT('',(0.0289892808553591,-0.0519823143467307,0.002));
#1582=CARTESIAN_POINT('',(0.0289892808553591,-0.0499823143467307,0.002));
#1583=CARTESIAN_POINT('',(0.0309892808553591,-0.0499823143467307,0.002));
#1584=CARTESIAN_POINT('',(0.0309892808553591,-0.0501323148592057,0.002));
#1585=CARTESIAN_POINT('',(0.0309892808553591,-0.0482823153716807,0.002));
#1586=CARTESIAN_POINT('',(0.0346892798304021,-0.0482823153716807,0.002));
#1587=CARTESIAN_POINT('',(0.0346892798304021,-0.0445823163966377,0.002));
#1588=CARTESIAN_POINT('',(0.0365392793179221,-0.0445823163966377,0.002));
#1589=CARTESIAN_POINT('',(0.0363892788054421,-0.0445823163966377,0.002));
#1590=CARTESIAN_POINT('',(0.0363892788054421,-0.0425823163966377,0.002));
#1591=CARTESIAN_POINT('',(0.0383892788054421,-0.0425823163966377,0.002));
#1592=CARTESIAN_POINT('',(0.0383892788054421,1.76856532727795E-5,0.002));
#1593=CARTESIAN_POINT('',(0.0383892788054421,0.0426176877031832,0.002));
#1594=CARTESIAN_POINT('',(0.0363892788054421,0.0426176877031832,0.002));
#1595=CARTESIAN_POINT('',(0.0363892788054421,0.0446176877031833,0.002));
#1596=CARTESIAN_POINT('',(0.0365392793179221,0.0446176877031833,0.002));
#1597=CARTESIAN_POINT('',(0.0346892798304021,0.0446176877031833,0.002));
#1598=CARTESIAN_POINT('',(0.0346892798304021,0.0483176866782263,0.002));
#1599=CARTESIAN_POINT('',(0.0309892808553591,0.0483176866782263,0.002));
#1600=CARTESIAN_POINT('',(0.0309892808553591,0.0501676861657478,0.002));
#1601=CARTESIAN_POINT('',(0.0309892808553591,0.0500176856532693,0.002));
#1602=CARTESIAN_POINT('',(0.0289892808553591,0.0500176856532693,0.002));
#1603=CARTESIAN_POINT('',(0.0346892788054421,0.0483176856532693,-0.023));
#1604=CARTESIAN_POINT('',(0.0346892788054421,0.0483176856532693,0.005));
#1605=CARTESIAN_POINT('',(0.0362892788054421,0.0483176856532693,0.005));
#1606=CARTESIAN_POINT('',(0.0346892788054421,0.0483176856532693,0.0025));
#1607=CARTESIAN_POINT('',(0.0362892788054421,0.0483176856532693,0.0025));
#1608=CARTESIAN_POINT('',(0.0346892788054421,-0.0482823143467307,-0.023));
#1609=CARTESIAN_POINT('',(0.0346892788054421,-0.0482823143467307,0.005));
#1610=CARTESIAN_POINT('',(0.0362892788054421,-0.0482823143467307,0.005));
#1611=CARTESIAN_POINT('',(0.0346892788054421,-0.0482823143467307,0.0025));
#1612=CARTESIAN_POINT('',(0.0362892788054421,-0.0482823143467307,0.0025));
#1613=CARTESIAN_POINT('',(-0.0300107211945579,-0.0482823143467307,-0.023));
#1614=CARTESIAN_POINT('',(-0.0300107211945579,-0.0482823143467307,0.005));
#1615=CARTESIAN_POINT('',(-0.0284107211945579,-0.0482823143467307,0.005));
#1616=CARTESIAN_POINT('',(-0.0300107211945579,-0.0482823143467307,0.0025));
#1617=CARTESIAN_POINT('',(-0.0284107211945579,-0.0482823143467307,0.0025));
#1618=CARTESIAN_POINT('',(0.00233927880547212,-0.0519823143467307,0.005));
#1619=CARTESIAN_POINT('',(-0.0243107232444148,-0.0519823143467307,0.005));
#1620=CARTESIAN_POINT('',(-0.0243107232444148,-0.0519823143467307,0.005));
#1621=CARTESIAN_POINT('',(0.00233927880547212,-0.0519823143467307,0.005));
#1622=CARTESIAN_POINT('',(0.0289892808553591,-0.0519823143467307,0.005));
#1623=CARTESIAN_POINT('',(0.0289892808553591,-0.0519823143467307,0.005));
#1624=CARTESIAN_POINT('',(-0.0300107222194578,-0.0482823153716807,0.005002));
#1625=CARTESIAN_POINT('',(-0.0263107232444149,-0.0482823153716807,0.001998));
#1626=CARTESIAN_POINT('',(-0.0263107232444149,-0.0482823153716807,0.005));
#1627=CARTESIAN_POINT('',(-0.0300107222194578,-0.0445823163966377,0.001998));
#1628=CARTESIAN_POINT('',(-0.0300107222194578,-0.0445823163966377,0.005));
#1629=CARTESIAN_POINT('',(-0.0300107222194578,-0.0482823153716807,0.005));
#1630=CARTESIAN_POINT('',(-0.0337107211945578,1.76856532727795E-5,0.005));
#1631=CARTESIAN_POINT('',(-0.0337107211945578,1.76856532727795E-5,0.005));
#1632=CARTESIAN_POINT('',(-0.0337107211945578,-0.0425823163966376,0.005));
#1633=CARTESIAN_POINT('',(-0.0337107211945578,0.0426176877031832,0.005));
#1634=CARTESIAN_POINT('',(-0.0337107211945578,-0.0425823163966376,0.005));
#1635=CARTESIAN_POINT('',(-0.0337107211945578,0.0426176877031832,0.005));
#1636=CARTESIAN_POINT('',(-0.0300107222194578,0.0483176866782262,0.005002));
#1637=CARTESIAN_POINT('',(-0.0300107222194578,0.0446176877031833,0.001998));
#1638=CARTESIAN_POINT('',(-0.0300107222194578,0.0446176877031833,0.005));
#1639=CARTESIAN_POINT('',(-0.0263107232444149,0.0483176866782262,0.001998));
#1640=CARTESIAN_POINT('',(-0.0263107232444149,0.0483176866782262,0.005));
#1641=CARTESIAN_POINT('',(-0.0300107222194578,0.0483176866782262,0.005));
#1642=CARTESIAN_POINT('',(0.0346892798304021,-0.0482823153716807,0.005002));
#1643=CARTESIAN_POINT('',(0.0309892808553591,-0.0482823153716807,0.001998));
#1644=CARTESIAN_POINT('',(0.0309892808553591,-0.0482823153716807,0.005));
#1645=CARTESIAN_POINT('',(0.0346892798304021,-0.0482823153716807,0.005));
#1646=CARTESIAN_POINT('',(0.0346892798304021,-0.0445823163966377,0.005));
#1647=CARTESIAN_POINT('',(0.0346892798304021,-0.0445823163966377,0.001998));
#1648=CARTESIAN_POINT('',(0.00233927880547213,0.0520176856532693,0.005));
#1649=CARTESIAN_POINT('',(0.00233927880547213,0.0520176856532693,0.005));
#1650=CARTESIAN_POINT('',(0.0126892767555282,0.0520176856532693,0.005));
#1651=CARTESIAN_POINT('',(0.0289892808553591,0.0520176856532693,0.005));
#1652=CARTESIAN_POINT('',(0.0126892767555282,0.0520176856532693,0.002));
#1653=CARTESIAN_POINT('',(0.0289892808553591,0.0520176856532693,0.005));
#1654=CARTESIAN_POINT('',(0.0383892788054421,1.76856532727795E-5,0.005));
#1655=CARTESIAN_POINT('',(0.0383892788054421,-0.0425823163966377,0.005));
#1656=CARTESIAN_POINT('',(0.0383892788054421,-0.0425823163966377,0.005));
#1657=CARTESIAN_POINT('',(0.0383892788054421,1.76856532727795E-5,0.005));
#1658=CARTESIAN_POINT('',(0.0383892788054421,0.0426176877031832,0.005));
#1659=CARTESIAN_POINT('',(0.0383892788054421,0.0426176877031832,0.005));
#1660=CARTESIAN_POINT('',(0.0346892798304021,0.0483176866782263,0.005002));
#1661=CARTESIAN_POINT('',(0.0346892798304021,0.0446176877031833,0.001998));
#1662=CARTESIAN_POINT('',(0.0346892798304021,0.0446176877031833,0.005));
#1663=CARTESIAN_POINT('',(0.0346892798304021,0.0483176866782263,0.005));
#1664=CARTESIAN_POINT('',(0.0309892808553591,0.0483176866782263,0.005));
#1665=CARTESIAN_POINT('',(0.0309892808553591,0.0483176866782263,0.001998));
#1666=CARTESIAN_POINT('',(0.,1.38777878078145E-17,0.));
#1667=CARTESIAN_POINT('',(0.00708927880544212,0.0482176856532693,0.));
#1668=CARTESIAN_POINT('',(0.00408927880544212,0.0482176856532693,0.));
#1669=CARTESIAN_POINT('',(0.,-0.0521823143467307,0.));
#1670=CARTESIAN_POINT('',(0.0358892788054421,-0.0521823143467307,0.));
#1671=CARTESIAN_POINT('',(-0.0341107211945578,-0.0521823143467307,0.));
#1672=CARTESIAN_POINT('',(-0.0341107211945578,-0.0494823143467307,0.));
#1673=CARTESIAN_POINT('',(-0.0368107211945578,-0.0494823143467307,0.));
#1674=CARTESIAN_POINT('',(-0.0368107211945578,1.38777878078145E-17,0.));
#1675=CARTESIAN_POINT('',(-0.0368107211945578,0.0495176856532692,0.));
#1676=CARTESIAN_POINT('',(-0.0341107211945578,0.0495176856532693,0.));
#1677=CARTESIAN_POINT('',(-0.0341107211945578,0.0522176856532693,0.));
#1678=CARTESIAN_POINT('',(0.,0.0522176856532693,0.));
#1679=CARTESIAN_POINT('',(0.0358892788054421,0.0522176856532692,0.));
#1680=CARTESIAN_POINT('',(0.0358892788054421,0.0495176856532692,0.));
#1681=CARTESIAN_POINT('',(0.0385892788054421,0.0495176856532692,0.));
#1682=CARTESIAN_POINT('',(0.0385892788054421,1.38777878078145E-17,0.));
#1683=CARTESIAN_POINT('',(0.0385892788054421,-0.0494823143467307,0.));
#1684=CARTESIAN_POINT('',(0.0358892788054421,-0.0494823143467307,0.));
#1685=CARTESIAN_POINT('',(0.0346892788054421,-0.0482823143467307,0.));
#1686=CARTESIAN_POINT('',(0.0316892788054421,-0.0482823143467307,0.));
#1687=CARTESIAN_POINT('',(0.0346892788054421,0.0483176856532693,0.));
#1688=CARTESIAN_POINT('',(0.0316892788054421,0.0483176856532693,0.));
#1689=CARTESIAN_POINT('',(-0.0300107211945579,-0.0482823143467307,0.));
#1690=CARTESIAN_POINT('',(-0.0330107211945579,-0.0482823143467307,0.));
#1691=CARTESIAN_POINT('',(-0.0341107211945578,0.0495176856532693,-0.023));
#1692=CARTESIAN_POINT('',(-0.0341107211945578,0.0535176856532693,-0.023));
#1693=CARTESIAN_POINT('',(-0.0341107211945578,0.0535176856532693,0.0013));
#1694=CARTESIAN_POINT('',(-0.0341107211945578,0.0535176856532693,0.005));
#1695=CARTESIAN_POINT('',(-0.0341107211945578,0.0495176856532693,0.0013));
#1696=CARTESIAN_POINT('',(-0.0381107211945578,0.0495176856532692,0.0013));
#1697=CARTESIAN_POINT('',(-0.0381107211945578,0.0495176856532692,-0.023));
#1698=CARTESIAN_POINT('',(-0.0381107211945578,0.0495176856532692,0.005));
#1699=CARTESIAN_POINT('',(-0.0341107211945578,0.0495176856532693,0.005));
#1700=CARTESIAN_POINT('',(0.000889278805442137,0.0535176856532693,-0.023));
#1701=CARTESIAN_POINT('',(0.0358892788054421,0.0535176856532693,-0.023));
#1702=CARTESIAN_POINT('',(0.0358892788054421,0.0535176856532693,0.0013));
#1703=CARTESIAN_POINT('',(0.0358892788054421,0.0535176856532693,0.005));
#1704=CARTESIAN_POINT('',(0.000889278805442137,0.0535176856532693,0.0013));
#1705=CARTESIAN_POINT('',(0.000889278805442137,0.0535176856532693,0.005));
#1706=CARTESIAN_POINT('',(0.0358892788054421,0.0495176856532692,-0.023));
#1707=CARTESIAN_POINT('',(0.0398892788054421,0.0495176856532692,-0.023));
#1708=CARTESIAN_POINT('',(0.0398892788054421,0.0495176856532692,0.0013));
#1709=CARTESIAN_POINT('',(0.0398892788054421,0.0495176856532692,0.005));
#1710=CARTESIAN_POINT('',(0.0358892788054421,0.0495176856532692,0.0013));
#1711=CARTESIAN_POINT('',(0.0358892788054421,0.0495176856532692,0.005));
#1712=CARTESIAN_POINT('',(0.0398892788054421,1.76856532692685E-5,-0.023));
#1713=CARTESIAN_POINT('',(0.0398892788054421,-0.0494823143467307,-0.023));
#1714=CARTESIAN_POINT('',(0.0398892788054421,-0.0494823143467307,0.0013));
#1715=CARTESIAN_POINT('',(0.0398892788054421,-0.0494823143467307,0.005));
#1716=CARTESIAN_POINT('',(0.0398892788054421,1.76856532692685E-5,0.0013));
#1717=CARTESIAN_POINT('',(0.0398892788054421,1.76856532692685E-5,0.005));
#1718=CARTESIAN_POINT('',(0.0358892788054421,-0.0494823143467307,-0.023));
#1719=CARTESIAN_POINT('',(0.0358892788054421,-0.0534823143467307,-0.023));
#1720=CARTESIAN_POINT('',(0.0358892788054421,-0.0534823143467307,0.0013));
#1721=CARTESIAN_POINT('',(0.0358892788054421,-0.0534823143467307,0.005));
#1722=CARTESIAN_POINT('',(0.0358892788054421,-0.0494823143467307,0.0013));
#1723=CARTESIAN_POINT('',(0.0358892788054421,-0.0494823143467307,0.005));
#1724=CARTESIAN_POINT('',(0.00088927880544213,-0.0534823143467307,-0.023));
#1725=CARTESIAN_POINT('',(-0.0341107211945578,-0.0534823143467307,-0.023));
#1726=CARTESIAN_POINT('',(-0.0341107211945578,-0.0534823143467307,0.0013));
#1727=CARTESIAN_POINT('',(-0.0341107211945578,-0.0534823143467307,0.005));
#1728=CARTESIAN_POINT('',(0.00088927880544213,-0.0534823143467307,0.0013));
#1729=CARTESIAN_POINT('',(0.00088927880544213,-0.0534823143467307,0.005));
#1730=CARTESIAN_POINT('',(-0.0341107211945578,-0.0494823143467307,-0.023));
#1731=CARTESIAN_POINT('',(-0.0381107211945578,-0.0494823143467307,-0.023));
#1732=CARTESIAN_POINT('',(-0.0381107211945578,-0.0494823143467307,0.0013));
#1733=CARTESIAN_POINT('',(-0.0381107211945578,-0.0494823143467307,0.005));
#1734=CARTESIAN_POINT('',(-0.0341107211945578,-0.0494823143467307,0.0013));
#1735=CARTESIAN_POINT('',(-0.0341107211945578,-0.0494823143467307,0.005));
#1736=CARTESIAN_POINT('',(-0.0381107211945578,1.76856532692615E-5,-0.023));
#1737=CARTESIAN_POINT('',(-0.0381107211945578,1.76856532692615E-5,0.0013));
#1738=CARTESIAN_POINT('',(-0.0381107211945578,1.76856532692615E-5,0.005));
#1739=CARTESIAN_POINT('',(0.,1.38777878078145E-17,0.005));
#1740=CARTESIAN_POINT('',(-0.0318607217070078,-0.0445823163966377,0.005));
#1741=CARTESIAN_POINT('',(-0.0317107211945578,-0.0445823163966377,0.005));
#1742=CARTESIAN_POINT('',(-0.0317107211945578,-0.0425823163966376,0.005));
#1743=CARTESIAN_POINT('',(-0.0317107211945578,0.0426176877031832,0.005));
#1744=CARTESIAN_POINT('',(-0.0317107211945578,0.0446176877031833,0.005));
#1745=CARTESIAN_POINT('',(-0.0318607217070078,0.0446176877031833,0.005));
#1746=CARTESIAN_POINT('',(-0.0263107232444149,0.0501676861657478,0.005));
#1747=CARTESIAN_POINT('',(-0.0263107232444149,0.0500176856532693,0.005));
#1748=CARTESIAN_POINT('',(-0.0243107232444148,0.0500176856532693,0.005));
#1749=CARTESIAN_POINT('',(0.00148928085535606,0.0500176856532693,0.005));
#1750=CARTESIAN_POINT('',(0.00348928085535606,0.0500176856532693,0.005));
#1751=CARTESIAN_POINT('',(0.00348928085535606,0.0501176856532693,0.005));
#1752=CARTESIAN_POINT('',(0.00348928085535606,0.0482176856532693,0.005));
#1753=CARTESIAN_POINT('',(0.00708927880544212,0.0482176856532693,0.005));
#1754=CARTESIAN_POINT('',(0.0106892767555282,0.0482176856532693,0.005));
#1755=CARTESIAN_POINT('',(0.0106892767555282,0.0501176856532693,0.005));
#1756=CARTESIAN_POINT('',(0.0106892767555282,0.0500176856532693,0.005));
#1757=CARTESIAN_POINT('',(0.0126892767555282,0.0500176856532693,0.005));
#1758=CARTESIAN_POINT('',(0.0289892808553591,0.0500176856532693,0.005));
#1759=CARTESIAN_POINT('',(0.0309892808553591,0.0500176856532693,0.005));
#1760=CARTESIAN_POINT('',(0.0309892808553591,0.0501676861657478,0.005));
#1761=CARTESIAN_POINT('',(0.0365392793179221,0.0446176877031833,0.005));
#1762=CARTESIAN_POINT('',(0.0363892788054421,0.0446176877031833,0.005));
#1763=CARTESIAN_POINT('',(0.0363892788054421,0.0426176877031832,0.005));
#1764=CARTESIAN_POINT('',(0.0363892788054421,-0.0425823163966377,0.005));
#1765=CARTESIAN_POINT('',(0.0363892788054421,-0.0445823163966377,0.005));
#1766=CARTESIAN_POINT('',(0.0365392793179221,-0.0445823163966377,0.005));
#1767=CARTESIAN_POINT('',(0.0309892808553591,-0.0501323148592057,0.005));
#1768=CARTESIAN_POINT('',(0.0309892808553591,-0.0499823143467307,0.005));
#1769=CARTESIAN_POINT('',(0.0289892808553591,-0.0499823143467307,0.005));
#1770=CARTESIAN_POINT('',(-0.0243107232444148,-0.0499823143467307,0.005));
#1771=CARTESIAN_POINT('',(-0.0263107232444149,-0.0499823143467307,0.005));
#1772=CARTESIAN_POINT('',(-0.0263107232444149,-0.0501323148592057,0.005));
#1773=CARTESIAN_POINT('',(0.0309892808553591,0.0501676861657478,0.001998));
#1774=CARTESIAN_POINT('',(0.0309892808553591,0.0500176856532693,0.002));
#1775=CARTESIAN_POINT('',(0.0365392793179221,0.0446176877031833,0.001998));
#1776=CARTESIAN_POINT('',(0.0363892788054421,0.0446176877031833,0.001998));
#1777=CARTESIAN_POINT('',(-0.0263107232444149,0.0501676861657478,0.001998));
#1778=CARTESIAN_POINT('',(-0.0263107232444149,0.0500176856532693,0.001998));
#1779=CARTESIAN_POINT('',(0.0365392793179221,-0.0445823163966377,0.001998));
#1780=CARTESIAN_POINT('',(0.0363892788054421,-0.0445823163966377,0.002));
#1781=CARTESIAN_POINT('',(-0.0318607217070078,0.0446176877031833,0.001998));
#1782=CARTESIAN_POINT('',(-0.0317107211945578,0.0446176877031833,0.002));
#1783=CARTESIAN_POINT('',(-0.0318607217070078,-0.0445823163966377,0.001998));
#1784=CARTESIAN_POINT('',(-0.0317107211945578,-0.0445823163966377,0.001998));
#1785=CARTESIAN_POINT('',(-0.0263107232444149,-0.0501323148592057,0.001998));
#1786=CARTESIAN_POINT('',(-0.0263107232444149,-0.0499823143467307,0.002));
#1787=CARTESIAN_POINT('',(0.0309892808553591,-0.0501323148592057,0.001998));
#1788=CARTESIAN_POINT('',(0.0309892808553591,-0.0499823143467307,0.001998));
#1789=CARTESIAN_POINT('',(-0.0317107211945578,-0.0425823163966376,0.001998));
#1790=CARTESIAN_POINT('',(-0.0243107232444148,-0.0499823143467307,0.005));
#1791=CARTESIAN_POINT('',(-0.0317107211945578,0.0426176877031832,0.005));
#1792=CARTESIAN_POINT('',(-0.0243107232444148,0.0500176856532693,0.001998));
#1793=CARTESIAN_POINT('',(0.0289892808553591,-0.0499823143467307,0.001998));
#1794=CARTESIAN_POINT('',(0.0363892788054421,-0.0425823163966377,0.005));
#1795=CARTESIAN_POINT('',(0.0363892788054421,0.0426176877031832,0.001998));
#1796=CARTESIAN_POINT('',(0.0289892808553591,0.0500176856532693,0.005));
#1797=CARTESIAN_POINT('',(-0.0300107211945579,-0.0482823143467307,0.003));
#1798=CARTESIAN_POINT('',(-0.0300107211945579,-0.0482823143467307,0.0025));
#1799=CARTESIAN_POINT('',(-0.0330107211945579,-0.0482823143467307,0.0025));
#1800=CARTESIAN_POINT('',(0.0346892788054421,-0.0482823143467307,0.003));
#1801=CARTESIAN_POINT('',(0.0346892788054421,-0.0482823143467307,0.0025));
#1802=CARTESIAN_POINT('',(0.0316892788054421,-0.0482823143467307,0.0025));
#1803=CARTESIAN_POINT('',(0.0346892788054421,0.0483176856532693,0.003));
#1804=CARTESIAN_POINT('',(0.0346892788054421,0.0483176856532693,0.0025));
#1805=CARTESIAN_POINT('',(0.0316892788054421,0.0483176856532693,0.0025));
#1806=CARTESIAN_POINT('',(0.0358892788054421,0.0495176856532692,0.0013));
#1807=CARTESIAN_POINT('',(0.0385892788054421,0.0495176856532692,0.));
#1808=CARTESIAN_POINT('',(0.0358892788054421,0.0535176856532693,0.0013));
#1809=CARTESIAN_POINT('',(0.,0.0522176856532693,0.));
#1810=CARTESIAN_POINT('',(-0.0341107211945578,0.0535176856532693,0.0013));
#1811=CARTESIAN_POINT('',(0.0385892788054421,1.38777878078145E-17,0.));
#1812=CARTESIAN_POINT('',(0.0385892788054421,-0.0494823143467307,0.));
#1813=CARTESIAN_POINT('',(-0.0341107211945578,0.0495176856532693,0.0013));
#1814=CARTESIAN_POINT('',(-0.0381107211945578,0.0495176856532692,0.0013));
#1815=CARTESIAN_POINT('',(0.0358892788054421,-0.0494823143467307,0.0013));
#1816=CARTESIAN_POINT('',(0.0358892788054421,-0.0521823143467307,0.));
#1817=CARTESIAN_POINT('',(-0.0368107211945578,1.38777878078145E-17,0.));
#1818=CARTESIAN_POINT('',(-0.0381107211945578,-0.0494823143467307,0.0013));
#1819=CARTESIAN_POINT('',(0.,-0.0521823143467307,0.));
#1820=CARTESIAN_POINT('',(-0.0341107211945578,-0.0521823143467307,0.));
#1821=CARTESIAN_POINT('',(-0.0341107211945578,-0.0494823143467307,0.0013));
#1822=CARTESIAN_POINT('',(0.0106892767555282,0.0501176856532693,0.005002));
#1823=CARTESIAN_POINT('',(0.0106892767555282,0.0500176856532693,0.005));
#1824=CARTESIAN_POINT('',(0.0106892767555282,0.0482176856532693,0.005002));
#1825=CARTESIAN_POINT('',(0.00708927880544212,0.0482176856532693,0.005002));
#1826=CARTESIAN_POINT('',(0.00348928085535606,0.0482176856532693,0.005002));
#1827=CARTESIAN_POINT('',(0.00348928085535606,0.0501176856532693,0.005002));
#1828=CARTESIAN_POINT('',(0.00348928085535606,0.0500176856532693,0.005002));
#1829=CARTESIAN_POINT('',(0.0126892767555282,0.0500176856532693,0.005));
#1830=CARTESIAN_POINT('',(0.00148928085535606,0.0500176856532693,0.005002));
#1831=CARTESIAN_POINT('',(0.000889278805442137,1.76856532692615E-5,0.0025));
#1832=CARTESIAN_POINT('',(0.000889278805442137,1.76856532692615E-5,0.0025));
#1833=CARTESIAN_POINT('',(0.000889278805442137,1.76856532692615E-5,0.0025));
#1834=CARTESIAN_POINT('',(0.00708927880544212,0.0482176856532693,0.0025));
#1835=CARTESIAN_POINT('',(0.00708927880544212,0.0482176856532693,0.0025));
#1836=CARTESIAN_POINT('',(0.00408927880544212,0.0482176856532693,0.0025));
#1837=CARTESIAN_POINT('',(0.000889278805442137,1.76856532692615E-5,0.0025));
#1838=MECHANICAL_DESIGN_GEOMETRIC_PRESENTATION_REPRESENTATION('',(#1071),
#1839);
#1839=(
GEOMETRIC_REPRESENTATION_CONTEXT(3)
GLOBAL_UNCERTAINTY_ASSIGNED_CONTEXT((#1840))
GLOBAL_UNIT_ASSIGNED_CONTEXT((#1843,#1842,#1841))
REPRESENTATION_CONTEXT('Part 1','TOP_LEVEL_ASSEMBLY_PART')
);
#1840=UNCERTAINTY_MEASURE_WITH_UNIT(LENGTH_MEASURE(1.E-8),#1843,
'DISTANCE_ACCURACY_VALUE','Maximum Tolerance applied to model');
#1841=(
NAMED_UNIT(*)
SI_UNIT($,.STERADIAN.)
SOLID_ANGLE_UNIT()
);
#1842=(
NAMED_UNIT(*)
PLANE_ANGLE_UNIT()
SI_UNIT($,.RADIAN.)
);
#1843=(
LENGTH_UNIT()
NAMED_UNIT(*)
SI_UNIT($,.METRE.)
);
#1844=PRODUCT_DEFINITION_SHAPE('','',#1845);
#1845=PRODUCT_DEFINITION('','',#1847,#1846);
#1846=PRODUCT_DEFINITION_CONTEXT('',#1853,'design');
#1847=PRODUCT_DEFINITION_FORMATION_WITH_SPECIFIED_SOURCE('','',#1849,
 .NOT_KNOWN.);
#1848=PRODUCT_RELATED_PRODUCT_CATEGORY('','',(#1849));
#1849=PRODUCT('Part 1','Part 1','Part 1',(#1851));
#1850=PRODUCT_CATEGORY('','');
#1851=PRODUCT_CONTEXT('',#1853,'mechanical');
#1852=APPLICATION_PROTOCOL_DEFINITION('international standard',
'ap242_managed_model_based_3d_engineering',2020,#1853);
#1853=APPLICATION_CONTEXT('managed model based 3d engineering');
ENDSEC;
END-ISO-10303-21;
