%TF.GenerationSoftware,KiCad,Pcbnew,10.0.3*%
%TF.CreationDate,2026-07-03T18:41:05+02:00*%
%TF.ProjectId,protoMIDI-KiCAD,70726f74-6f4d-4494-9449-2d4b69434144,rev?*%
%TF.SameCoordinates,Original*%
%TF.FileFunction,Soldermask,Bot*%
%TF.FilePolarity,Negative*%
%FSLAX46Y46*%
G04 Gerber Fmt 4.6, Leading zero omitted, Abs format (unit mm)*
G04 Created by KiCad (PCBNEW 10.0.3) date 2026-07-03 18:41:05*
%MOMM*%
%LPD*%
G01*
G04 APERTURE LIST*
G04 Aperture macros list*
%AMRoundRect*
0 Rectangle with rounded corners*
0 $1 Rounding radius*
0 $2 $3 $4 $5 $6 $7 $8 $9 X,Y pos of 4 corners*
0 Add a 4 corners polygon primitive as box body*
4,1,4,$2,$3,$4,$5,$6,$7,$8,$9,$2,$3,0*
0 Add four circle primitives for the rounded corners*
1,1,$1+$1,$2,$3*
1,1,$1+$1,$4,$5*
1,1,$1+$1,$6,$7*
1,1,$1+$1,$8,$9*
0 Add four rect primitives between the rounded corners*
20,1,$1+$1,$2,$3,$4,$5,0*
20,1,$1+$1,$4,$5,$6,$7,0*
20,1,$1+$1,$6,$7,$8,$9,0*
20,1,$1+$1,$8,$9,$2,$3,0*%
G04 Aperture macros list end*
%ADD10RoundRect,0.250000X0.550000X-0.550000X0.550000X0.550000X-0.550000X0.550000X-0.550000X-0.550000X0*%
%ADD11C,1.600000*%
%ADD12RoundRect,0.200000X-0.800000X-0.800000X0.800000X-0.800000X0.800000X0.800000X-0.800000X0.800000X0*%
%ADD13C,2.000000*%
%ADD14RoundRect,0.210000X-0.490000X-0.490000X0.490000X-0.490000X0.490000X0.490000X-0.490000X0.490000X0*%
%ADD15C,1.400000*%
%ADD16RoundRect,0.250000X-0.550000X0.550000X-0.550000X-0.550000X0.550000X-0.550000X0.550000X0.550000X0*%
%ADD17C,3.200000*%
%ADD18RoundRect,0.360000X0.540000X0.540000X-0.540000X0.540000X-0.540000X-0.540000X0.540000X-0.540000X0*%
%ADD19C,1.800000*%
%ADD20R,2.000000X2.000000*%
%ADD21C,3.500000*%
%ADD22RoundRect,0.400000X-1.200000X0.600000X-1.200000X-0.600000X1.200000X-0.600000X1.200000X0.600000X0*%
%ADD23RoundRect,0.571429X-1.028571X0.428571X-1.028571X-0.428571X1.028571X-0.428571X1.028571X0.428571X0*%
%ADD24R,1.800000X1.800000*%
%ADD25RoundRect,0.250000X0.625000X-0.350000X0.625000X0.350000X-0.625000X0.350000X-0.625000X-0.350000X0*%
%ADD26O,1.750000X1.200000*%
%ADD27RoundRect,0.300000X-1.300000X-0.300000X1.300000X-0.300000X1.300000X0.300000X-1.300000X0.300000X0*%
G04 APERTURE END LIST*
D10*
%TO.C,D9*%
X80600000Y-80910000D03*
D11*
X80600000Y-73290000D03*
%TD*%
%TO.C,R1*%
X80400000Y-65620000D03*
X80400000Y-58000000D03*
%TD*%
D12*
%TO.C,SW3*%
X118230000Y-98000000D03*
X125850000Y-98000000D03*
D13*
X118230000Y-103080000D03*
X125850000Y-103080000D03*
D14*
X120770000Y-92920000D03*
D15*
X123310000Y-92920000D03*
%TD*%
D16*
%TO.C,D8*%
X149800000Y-111990000D03*
D11*
X149800000Y-119610000D03*
%TD*%
%TO.C,R8*%
X140370000Y-65500000D03*
X140370000Y-57880000D03*
%TD*%
%TO.C,R4*%
X89700000Y-65620000D03*
X89700000Y-58000000D03*
%TD*%
D17*
%TO.C,H2*%
X171600000Y-57000000D03*
%TD*%
D18*
%TO.C,U1*%
X108728000Y-82759500D03*
D19*
X111268000Y-82759500D03*
X113808000Y-82759500D03*
D18*
X105680000Y-55327500D03*
D19*
X105680000Y-57867500D03*
X105680000Y-60407500D03*
X105680000Y-62947500D03*
X105680000Y-65487500D03*
X105680000Y-68027500D03*
X105680000Y-70567500D03*
X105680000Y-73107500D03*
X105680000Y-75647500D03*
X105680000Y-78187500D03*
X105680000Y-80727500D03*
X105680000Y-83267500D03*
X105680000Y-85807500D03*
D18*
X120920000Y-55327500D03*
D19*
X120920000Y-57867500D03*
X120920000Y-60407500D03*
X120920000Y-62947500D03*
X120920000Y-65487500D03*
X120920000Y-68027500D03*
X120920000Y-70567500D03*
X120920000Y-73107500D03*
X120920000Y-75647500D03*
X120920000Y-78187500D03*
X120920000Y-80727500D03*
X120920000Y-83267500D03*
X120920000Y-85807500D03*
%TD*%
D11*
%TO.C,R6*%
X134070000Y-65500000D03*
X134070000Y-57880000D03*
%TD*%
D17*
%TO.C,H3*%
X75000000Y-121700000D03*
%TD*%
D16*
%TO.C,D3*%
X113200000Y-94290000D03*
D11*
X113200000Y-101910000D03*
%TD*%
D17*
%TO.C,H1*%
X75000000Y-57000000D03*
%TD*%
D20*
%TO.C,E2*%
X133300000Y-84500000D03*
D13*
X138300000Y-84500000D03*
X135800000Y-84500000D03*
X133300000Y-70000000D03*
X138300000Y-70000000D03*
D21*
X130300000Y-77000000D03*
X141300000Y-77000000D03*
%TD*%
D16*
%TO.C,D1*%
X76600000Y-94190000D03*
D11*
X76600000Y-101810000D03*
%TD*%
D16*
%TO.C,D2*%
X95500000Y-94250000D03*
D11*
X95500000Y-101870000D03*
%TD*%
D13*
%TO.C,SW10*%
X99250000Y-58550000D03*
X99250000Y-65050000D03*
X94750000Y-58550000D03*
X94750000Y-65050000D03*
%TD*%
D12*
%TO.C,SW7*%
X118230000Y-115780000D03*
X125850000Y-115780000D03*
D13*
X118230000Y-120860000D03*
X125850000Y-120860000D03*
D14*
X120770000Y-110700000D03*
D15*
X123310000Y-110700000D03*
%TD*%
D16*
%TO.C,D4*%
X131000000Y-94290000D03*
D11*
X131000000Y-101910000D03*
%TD*%
D16*
%TO.C,D6*%
X113200000Y-111990000D03*
D11*
X113200000Y-119610000D03*
%TD*%
D12*
%TO.C,SW5*%
X83190000Y-115780000D03*
X90810000Y-115780000D03*
D13*
X83190000Y-120860000D03*
X90810000Y-120860000D03*
D14*
X85730000Y-110700000D03*
D15*
X88270000Y-110700000D03*
%TD*%
D16*
%TO.C,D5*%
X95800000Y-111990000D03*
D11*
X95800000Y-119610000D03*
%TD*%
D12*
%TO.C,SW6*%
X100710000Y-115780000D03*
X108330000Y-115780000D03*
D13*
X100710000Y-120860000D03*
X108330000Y-120860000D03*
D14*
X103250000Y-110700000D03*
D15*
X105790000Y-110700000D03*
%TD*%
D11*
%TO.C,R7*%
X137200000Y-65510000D03*
X137200000Y-57890000D03*
%TD*%
%TO.C,R2*%
X83500000Y-65610000D03*
X83500000Y-57990000D03*
%TD*%
D10*
%TO.C,D10*%
X145200000Y-80810000D03*
D11*
X145200000Y-73190000D03*
%TD*%
D17*
%TO.C,H4*%
X171600000Y-121700000D03*
%TD*%
D16*
%TO.C,D7*%
X130800000Y-111990000D03*
D11*
X130800000Y-119610000D03*
%TD*%
D22*
%TO.C,SW9*%
X164800000Y-106500000D03*
X164800000Y-111200000D03*
D23*
X164800000Y-115900000D03*
%TD*%
D12*
%TO.C,SW4*%
X135750000Y-98000000D03*
X143370000Y-98000000D03*
D13*
X135750000Y-103080000D03*
X143370000Y-103080000D03*
D14*
X138290000Y-92920000D03*
D15*
X140830000Y-92920000D03*
%TD*%
D11*
%TO.C,R3*%
X86600000Y-65620000D03*
X86600000Y-58000000D03*
%TD*%
D12*
%TO.C,SW1*%
X83190000Y-98000000D03*
X90810000Y-98000000D03*
D13*
X83190000Y-103080000D03*
X90810000Y-103080000D03*
D14*
X85730000Y-92920000D03*
D15*
X88270000Y-92920000D03*
%TD*%
D11*
%TO.C,R9*%
X154590000Y-121000000D03*
X162210000Y-121000000D03*
%TD*%
D20*
%TO.C,E1*%
X87500000Y-84500000D03*
D13*
X92500000Y-84500000D03*
X90000000Y-84500000D03*
X87500000Y-70000000D03*
X92500000Y-70000000D03*
D21*
X84500000Y-77000000D03*
X95500000Y-77000000D03*
%TD*%
D24*
%TO.C,D11*%
X154025000Y-111300000D03*
D19*
X156565000Y-111300000D03*
%TD*%
D25*
%TO.C,J1*%
X144500000Y-61000000D03*
D26*
X144500000Y-59000000D03*
%TD*%
D11*
%TO.C,R5*%
X130970000Y-65500000D03*
X130970000Y-57880000D03*
%TD*%
D27*
%TO.C,BT1*%
X163500000Y-59000000D03*
X159500000Y-59000000D03*
%TD*%
D17*
%TO.C,H5*%
X75100000Y-84600000D03*
%TD*%
D12*
%TO.C,SW8*%
X135750000Y-115780000D03*
X143370000Y-115780000D03*
D13*
X135750000Y-120860000D03*
X143370000Y-120860000D03*
D14*
X138290000Y-110700000D03*
D15*
X140830000Y-110700000D03*
%TD*%
D12*
%TO.C,SW2*%
X100710000Y-98000000D03*
X108330000Y-98000000D03*
D13*
X100710000Y-103080000D03*
X108330000Y-103080000D03*
D14*
X103250000Y-92920000D03*
D15*
X105790000Y-92920000D03*
%TD*%
M02*
