ISO-10303-21;
HEADER;
/* Generated by software containing ST-Developer
 * from STEP Tools, Inc. (www.steptools.com) 
 */
/* OPTION: using custom renumber hook */

FILE_DESCRIPTION(
/* description */ ('STEP AP242 Edition 2',
'CAx-IF Rec.Pracs.---Representation and Presentation of Product Manufa
cturing Information (PMI)---4.0---2014-10-13',
'CAx-IF Rec.Pracs.---3D Tessellated Geometry---0.4---2014-09-14','2;1',
'CAx-IF Rec.Pracs.---User Defined Attributes---1.5---2016-08-15'),
/* implementation_level */ '2;1');

FILE_NAME(
/* name */ 'protoMIDI ENCLOSURE BOTTOM',
/* time_stamp */ '2026-07-19T10:45:09Z',
/* author */ (''),
/* organization */ (''),
/* preprocessor_version */ 'ST-DEVELOPER v20',
/* originating_system */ 'ONSHAPE BY PTC INC, 1.218',
/* authorisation */ '  ');

FILE_SCHEMA (('AP242_MANAGED_MODEL_BASED_3D_ENGINEERING_MIM_LF { 1 0 10303 442 3 1 4 }'));
ENDSEC;

DATA;
#10=SHAPE_REPRESENTATION_RELATIONSHIP('','',#1073,#11);
#11=ADVANCED_BREP_SHAPE_REPRESENTATION('',(#1071),#1891);
#12=B_SPLINE_SURFACE_WITH_KNOTS('',1,3,((#1815,#1816,#1817,#1818,#1819,
#1820),(#1821,#1822,#1823,#1824,#1825,#1826)),.RULED_SURF.,.F.,.F.,.F.,
(2,2),(4,2,4),(0.,1.),(3.1415926535898,3.92699081698724,4.71238898038469),
 .UNSPECIFIED.);
#13=B_SPLINE_SURFACE_WITH_KNOTS('',1,3,((#1831,#1832,#1833,#1834,#1835,
#1836),(#1837,#1838,#1839,#1840,#1841,#1842)),.RULED_SURF.,.F.,.F.,.F.,
(2,2),(4,2,4),(0.,1.),(1.5707963267949,2.35619449019234,3.1415926535898),
 .UNSPECIFIED.);
#14=B_SPLINE_SURFACE_WITH_KNOTS('',1,3,((#1857,#1858,#1859,#1860,#1861,
#1862),(#1863,#1864,#1865,#1866,#1867,#1868)),.RULED_SURF.,.F.,.F.,.F.,
(2,2),(4,2,4),(0.,1.),(-1.5707963267949,-0.785398163397447,0.),
 .UNSPECIFIED.);
#15=B_SPLINE_SURFACE_WITH_KNOTS('',1,3,((#1873,#1874,#1875,#1876,#1877,
#1878),(#1879,#1880,#1881,#1882,#1883,#1884)),.RULED_SURF.,.F.,.F.,.F.,
(2,2),(4,2,4),(0.,1.),(0.,0.785398163397447,1.5707963267949),
 .UNSPECIFIED.);
#16=B_SPLINE_CURVE_WITH_KNOTS('',3,(#1521,#1522,#1523,#1524,#1525,#1526),
 .UNSPECIFIED.,.F.,.F.,(4,1,1,4),(0.,0.5,0.75,1.),.UNSPECIFIED.);
#17=B_SPLINE_CURVE_WITH_KNOTS('',3,(#1532,#1533,#1534,#1535,#1536,#1537),
 .UNSPECIFIED.,.F.,.F.,(4,1,1,4),(0.,0.25,0.5,1.),.UNSPECIFIED.);
#18=B_SPLINE_CURVE_WITH_KNOTS('',3,(#1543,#1544,#1545,#1546,#1547,#1548),
 .UNSPECIFIED.,.F.,.F.,(4,1,1,4),(0.,0.5,0.75,1.),.UNSPECIFIED.);
#19=B_SPLINE_CURVE_WITH_KNOTS('',3,(#1554,#1555,#1556,#1557,#1558,#1559),
 .UNSPECIFIED.,.F.,.F.,(4,1,1,4),(0.,0.25,0.5,1.),.UNSPECIFIED.);
#20=B_SPLINE_CURVE_WITH_KNOTS('',3,(#1774,#1775,#1776,#1777,#1778),
 .UNSPECIFIED.,.F.,.F.,(4,1,4),(0.,0.5,1.),.UNSPECIFIED.);
#21=B_SPLINE_CURVE_WITH_KNOTS('',3,(#1783,#1784,#1785,#1786,#1787),
 .UNSPECIFIED.,.F.,.F.,(4,1,4),(0.,0.5,1.),.UNSPECIFIED.);
#22=B_SPLINE_CURVE_WITH_KNOTS('',3,(#1791,#1792,#1793,#1794,#1795),
 .UNSPECIFIED.,.F.,.F.,(4,1,4),(0.,0.5,1.),.UNSPECIFIED.);
#23=B_SPLINE_CURVE_WITH_KNOTS('',3,(#1799,#1800,#1801,#1802,#1803),
 .UNSPECIFIED.,.F.,.F.,(4,1,4),(0.,0.5,1.),.UNSPECIFIED.);
#24=B_SPLINE_CURVE_WITH_KNOTS('',3,(#1807,#1808,#1809,#1810),
 .UNSPECIFIED.,.F.,.F.,(4,4),(0.,1.),.UNSPECIFIED.);
#25=B_SPLINE_CURVE_WITH_KNOTS('',3,(#1811,#1812,#1813,#1814),
 .UNSPECIFIED.,.F.,.F.,(4,4),(0.,1.),.UNSPECIFIED.);
#26=B_SPLINE_CURVE_WITH_KNOTS('',3,(#1827,#1828,#1829,#1830),
 .UNSPECIFIED.,.F.,.F.,(4,4),(0.,1.),.UNSPECIFIED.);
#27=B_SPLINE_CURVE_WITH_KNOTS('',3,(#1843,#1844,#1845,#1846),
 .UNSPECIFIED.,.F.,.F.,(4,4),(0.,1.),.UNSPECIFIED.);
#28=B_SPLINE_CURVE_WITH_KNOTS('',3,(#1848,#1849,#1850,#1851),
 .UNSPECIFIED.,.F.,.F.,(4,4),(0.,1.),.UNSPECIFIED.);
#29=B_SPLINE_CURVE_WITH_KNOTS('',3,(#1853,#1854,#1855,#1856),
 .UNSPECIFIED.,.F.,.F.,(4,4),(0.,1.),.UNSPECIFIED.);
#30=B_SPLINE_CURVE_WITH_KNOTS('',3,(#1869,#1870,#1871,#1872),
 .UNSPECIFIED.,.F.,.F.,(4,4),(0.,1.),.UNSPECIFIED.);
#31=B_SPLINE_CURVE_WITH_KNOTS('',3,(#1885,#1886,#1887,#1888),
 .UNSPECIFIED.,.F.,.F.,(4,4),(0.,1.),.UNSPECIFIED.);
#32=ELLIPSE('',#1079,0.0030009031724135,0.003);
#33=ELLIPSE('',#1082,0.0030009031724135,0.003);
#34=ELLIPSE('',#1085,0.0030009031724135,0.003);
#35=ELLIPSE('',#1088,0.00300090317241349,0.003);
#36=CIRCLE('',#1078,0.003);
#37=CIRCLE('',#1081,0.003);
#38=CIRCLE('',#1084,0.003);
#39=CIRCLE('',#1087,0.003);
#40=CIRCLE('',#1090,0.004);
#41=CIRCLE('',#1092,0.004);
#42=CIRCLE('',#1094,0.004);
#43=CIRCLE('',#1096,0.004);
#44=CIRCLE('',#1099,0.0016);
#45=CIRCLE('',#1100,0.0016);
#46=CIRCLE('',#1103,0.0016);
#47=CIRCLE('',#1104,0.0016);
#48=CIRCLE('',#1106,0.0016);
#49=CIRCLE('',#1107,0.0016);
#50=CIRCLE('',#1109,0.0016);
#51=CIRCLE('',#1110,0.0016);
#52=CIRCLE('',#1113,0.00369999897504301);
#53=CIRCLE('',#1114,0.00369999897504301);
#54=CIRCLE('',#1117,0.00369999897504301);
#55=CIRCLE('',#1118,0.00369999897504301);
#56=CIRCLE('',#1120,0.00369999897504301);
#57=CIRCLE('',#1121,0.00369999897504301);
#58=CIRCLE('',#1125,0.00369999897504301);
#59=CIRCLE('',#1126,0.00369999897504301);
#60=CIRCLE('',#1128,0.002);
#61=CIRCLE('',#1129,0.002);
#62=CIRCLE('',#1130,0.002);
#63=CIRCLE('',#1131,0.002);
#64=CIRCLE('',#1132,0.00359999795008606);
#65=CIRCLE('',#1133,0.002);
#66=CIRCLE('',#1134,0.002);
#67=CIRCLE('',#1135,0.002);
#68=CIRCLE('',#1136,0.002);
#69=CIRCLE('',#1137,0.002);
#70=CIRCLE('',#1138,0.002);
#71=CIRCLE('',#1148,0.002);
#72=CIRCLE('',#1150,0.002);
#73=CIRCLE('',#1152,0.002);
#74=CIRCLE('',#1154,0.002);
#75=CIRCLE('',#1156,0.002);
#76=CIRCLE('',#1158,0.002);
#77=CIRCLE('',#1160,0.002);
#78=CIRCLE('',#1162,0.002);
#79=CIRCLE('',#1165,0.00359999795008606);
#80=CIRCLE('',#1168,0.002);
#81=CIRCLE('',#1170,0.002);
#82=CYLINDRICAL_SURFACE('',#1077,0.003);
#83=CYLINDRICAL_SURFACE('',#1080,0.003);
#84=CYLINDRICAL_SURFACE('',#1083,0.003);
#85=CYLINDRICAL_SURFACE('',#1086,0.003);
#86=CYLINDRICAL_SURFACE('',#1089,0.004);
#87=CYLINDRICAL_SURFACE('',#1091,0.004);
#88=CYLINDRICAL_SURFACE('',#1093,0.004);
#89=CYLINDRICAL_SURFACE('',#1095,0.004);
#90=CYLINDRICAL_SURFACE('',#1098,0.0016);
#91=CYLINDRICAL_SURFACE('',#1102,0.0016);
#92=CYLINDRICAL_SURFACE('',#1105,0.0016);
#93=CYLINDRICAL_SURFACE('',#1108,0.0016);
#94=CYLINDRICAL_SURFACE('',#1112,0.00369999897504301);
#95=CYLINDRICAL_SURFACE('',#1116,0.00369999897504301);
#96=CYLINDRICAL_SURFACE('',#1119,0.00369999897504301);
#97=CYLINDRICAL_SURFACE('',#1124,0.00369999897504301);
#98=CYLINDRICAL_SURFACE('',#1147,0.002);
#99=CYLINDRICAL_SURFACE('',#1149,0.002);
#100=CYLINDRICAL_SURFACE('',#1151,0.002);
#101=CYLINDRICAL_SURFACE('',#1153,0.002);
#102=CYLINDRICAL_SURFACE('',#1155,0.002);
#103=CYLINDRICAL_SURFACE('',#1157,0.002);
#104=CYLINDRICAL_SURFACE('',#1159,0.002);
#105=CYLINDRICAL_SURFACE('',#1161,0.002);
#106=CYLINDRICAL_SURFACE('',#1164,0.00359999795008606);
#107=CYLINDRICAL_SURFACE('',#1167,0.002);
#108=CYLINDRICAL_SURFACE('',#1169,0.002);
#109=ORIENTED_EDGE('',*,*,#401,.T.);
#110=ORIENTED_EDGE('',*,*,#402,.T.);
#111=ORIENTED_EDGE('',*,*,#403,.F.);
#112=ORIENTED_EDGE('',*,*,#404,.T.);
#113=ORIENTED_EDGE('',*,*,#405,.T.);
#114=ORIENTED_EDGE('',*,*,#406,.T.);
#115=ORIENTED_EDGE('',*,*,#407,.F.);
#116=ORIENTED_EDGE('',*,*,#408,.T.);
#117=ORIENTED_EDGE('',*,*,#409,.F.);
#118=ORIENTED_EDGE('',*,*,#410,.F.);
#119=ORIENTED_EDGE('',*,*,#411,.F.);
#120=ORIENTED_EDGE('',*,*,#412,.F.);
#121=ORIENTED_EDGE('',*,*,#413,.F.);
#122=ORIENTED_EDGE('',*,*,#414,.F.);
#123=ORIENTED_EDGE('',*,*,#415,.F.);
#124=ORIENTED_EDGE('',*,*,#416,.F.);
#125=ORIENTED_EDGE('',*,*,#417,.T.);
#126=ORIENTED_EDGE('',*,*,#418,.T.);
#127=ORIENTED_EDGE('',*,*,#419,.F.);
#128=ORIENTED_EDGE('',*,*,#420,.T.);
#129=ORIENTED_EDGE('',*,*,#403,.T.);
#130=ORIENTED_EDGE('',*,*,#421,.T.);
#131=ORIENTED_EDGE('',*,*,#422,.F.);
#132=ORIENTED_EDGE('',*,*,#423,.T.);
#133=ORIENTED_EDGE('',*,*,#407,.T.);
#134=ORIENTED_EDGE('',*,*,#424,.T.);
#135=ORIENTED_EDGE('',*,*,#401,.F.);
#136=ORIENTED_EDGE('',*,*,#425,.T.);
#137=ORIENTED_EDGE('',*,*,#426,.T.);
#138=ORIENTED_EDGE('',*,*,#427,.T.);
#139=ORIENTED_EDGE('',*,*,#405,.F.);
#140=ORIENTED_EDGE('',*,*,#428,.T.);
#141=ORIENTED_EDGE('',*,*,#419,.T.);
#142=ORIENTED_EDGE('',*,*,#429,.T.);
#143=ORIENTED_EDGE('',*,*,#426,.F.);
#144=ORIENTED_EDGE('',*,*,#430,.T.);
#145=ORIENTED_EDGE('',*,*,#431,.T.);
#146=ORIENTED_EDGE('',*,*,#432,.F.);
#147=ORIENTED_EDGE('',*,*,#433,.T.);
#148=ORIENTED_EDGE('',*,*,#434,.T.);
#149=ORIENTED_EDGE('',*,*,#435,.T.);
#150=ORIENTED_EDGE('',*,*,#436,.F.);
#151=ORIENTED_EDGE('',*,*,#437,.T.);
#152=ORIENTED_EDGE('',*,*,#438,.F.);
#153=ORIENTED_EDGE('',*,*,#439,.T.);
#154=ORIENTED_EDGE('',*,*,#440,.F.);
#155=ORIENTED_EDGE('',*,*,#441,.T.);
#156=ORIENTED_EDGE('',*,*,#442,.F.);
#157=ORIENTED_EDGE('',*,*,#443,.T.);
#158=ORIENTED_EDGE('',*,*,#444,.T.);
#159=ORIENTED_EDGE('',*,*,#445,.T.);
#160=ORIENTED_EDGE('',*,*,#446,.F.);
#161=ORIENTED_EDGE('',*,*,#447,.F.);
#162=ORIENTED_EDGE('',*,*,#448,.T.);
#163=ORIENTED_EDGE('',*,*,#449,.T.);
#164=ORIENTED_EDGE('',*,*,#450,.F.);
#165=ORIENTED_EDGE('',*,*,#451,.F.);
#166=ORIENTED_EDGE('',*,*,#452,.T.);
#167=ORIENTED_EDGE('',*,*,#453,.T.);
#168=ORIENTED_EDGE('',*,*,#454,.T.);
#169=ORIENTED_EDGE('',*,*,#455,.F.);
#170=ORIENTED_EDGE('',*,*,#456,.T.);
#171=ORIENTED_EDGE('',*,*,#457,.T.);
#172=ORIENTED_EDGE('',*,*,#458,.F.);
#173=ORIENTED_EDGE('',*,*,#459,.F.);
#174=ORIENTED_EDGE('',*,*,#460,.T.);
#175=ORIENTED_EDGE('',*,*,#461,.T.);
#176=ORIENTED_EDGE('',*,*,#462,.F.);
#177=ORIENTED_EDGE('',*,*,#463,.F.);
#178=ORIENTED_EDGE('',*,*,#464,.T.);
#179=ORIENTED_EDGE('',*,*,#465,.T.);
#180=ORIENTED_EDGE('',*,*,#466,.T.);
#181=ORIENTED_EDGE('',*,*,#467,.T.);
#182=ORIENTED_EDGE('',*,*,#468,.T.);
#183=ORIENTED_EDGE('',*,*,#469,.T.);
#184=ORIENTED_EDGE('',*,*,#470,.F.);
#185=ORIENTED_EDGE('',*,*,#471,.F.);
#186=ORIENTED_EDGE('',*,*,#472,.T.);
#187=ORIENTED_EDGE('',*,*,#473,.T.);
#188=ORIENTED_EDGE('',*,*,#474,.F.);
#189=ORIENTED_EDGE('',*,*,#475,.T.);
#190=ORIENTED_EDGE('',*,*,#476,.T.);
#191=ORIENTED_EDGE('',*,*,#451,.T.);
#192=ORIENTED_EDGE('',*,*,#477,.T.);
#193=ORIENTED_EDGE('',*,*,#478,.F.);
#194=ORIENTED_EDGE('',*,*,#458,.T.);
#195=ORIENTED_EDGE('',*,*,#479,.T.);
#196=ORIENTED_EDGE('',*,*,#480,.T.);
#197=ORIENTED_EDGE('',*,*,#436,.T.);
#198=ORIENTED_EDGE('',*,*,#481,.T.);
#199=ORIENTED_EDGE('',*,*,#482,.F.);
#200=ORIENTED_EDGE('',*,*,#483,.T.);
#201=ORIENTED_EDGE('',*,*,#484,.T.);
#202=ORIENTED_EDGE('',*,*,#485,.T.);
#203=ORIENTED_EDGE('',*,*,#463,.T.);
#204=ORIENTED_EDGE('',*,*,#486,.T.);
#205=ORIENTED_EDGE('',*,*,#487,.F.);
#206=ORIENTED_EDGE('',*,*,#474,.T.);
#207=ORIENTED_EDGE('',*,*,#488,.T.);
#208=ORIENTED_EDGE('',*,*,#489,.T.);
#209=ORIENTED_EDGE('',*,*,#470,.T.);
#210=ORIENTED_EDGE('',*,*,#490,.T.);
#211=ORIENTED_EDGE('',*,*,#491,.F.);
#212=ORIENTED_EDGE('',*,*,#462,.T.);
#213=ORIENTED_EDGE('',*,*,#492,.T.);
#214=ORIENTED_EDGE('',*,*,#493,.T.);
#215=ORIENTED_EDGE('',*,*,#446,.T.);
#216=ORIENTED_EDGE('',*,*,#494,.T.);
#217=ORIENTED_EDGE('',*,*,#495,.F.);
#218=ORIENTED_EDGE('',*,*,#450,.T.);
#219=ORIENTED_EDGE('',*,*,#441,.F.);
#220=ORIENTED_EDGE('',*,*,#439,.F.);
#221=ORIENTED_EDGE('',*,*,#437,.F.);
#222=ORIENTED_EDGE('',*,*,#431,.F.);
#223=ORIENTED_EDGE('',*,*,#420,.F.);
#224=ORIENTED_EDGE('',*,*,#430,.F.);
#225=ORIENTED_EDGE('',*,*,#428,.F.);
#226=ORIENTED_EDGE('',*,*,#408,.F.);
#227=ORIENTED_EDGE('',*,*,#425,.F.);
#228=ORIENTED_EDGE('',*,*,#404,.F.);
#229=ORIENTED_EDGE('',*,*,#423,.F.);
#230=ORIENTED_EDGE('',*,*,#496,.F.);
#231=ORIENTED_EDGE('',*,*,#487,.T.);
#232=ORIENTED_EDGE('',*,*,#497,.T.);
#233=ORIENTED_EDGE('',*,*,#498,.T.);
#234=ORIENTED_EDGE('',*,*,#471,.T.);
#235=ORIENTED_EDGE('',*,*,#473,.F.);
#236=ORIENTED_EDGE('',*,*,#499,.F.);
#237=ORIENTED_EDGE('',*,*,#500,.T.);
#238=ORIENTED_EDGE('',*,*,#488,.F.);
#239=ORIENTED_EDGE('',*,*,#457,.F.);
#240=ORIENTED_EDGE('',*,*,#501,.F.);
#241=ORIENTED_EDGE('',*,*,#502,.T.);
#242=ORIENTED_EDGE('',*,*,#479,.F.);
#243=ORIENTED_EDGE('',*,*,#491,.T.);
#244=ORIENTED_EDGE('',*,*,#503,.T.);
#245=ORIENTED_EDGE('',*,*,#504,.T.);
#246=ORIENTED_EDGE('',*,*,#459,.T.);
#247=ORIENTED_EDGE('',*,*,#478,.T.);
#248=ORIENTED_EDGE('',*,*,#505,.T.);
#249=ORIENTED_EDGE('',*,*,#506,.T.);
#250=ORIENTED_EDGE('',*,*,#455,.T.);
#251=ORIENTED_EDGE('',*,*,#449,.F.);
#252=ORIENTED_EDGE('',*,*,#507,.F.);
#253=ORIENTED_EDGE('',*,*,#508,.T.);
#254=ORIENTED_EDGE('',*,*,#475,.F.);
#255=ORIENTED_EDGE('',*,*,#495,.T.);
#256=ORIENTED_EDGE('',*,*,#509,.T.);
#257=ORIENTED_EDGE('',*,*,#510,.T.);
#258=ORIENTED_EDGE('',*,*,#447,.T.);
#259=ORIENTED_EDGE('',*,*,#461,.F.);
#260=ORIENTED_EDGE('',*,*,#511,.F.);
#261=ORIENTED_EDGE('',*,*,#512,.T.);
#262=ORIENTED_EDGE('',*,*,#492,.F.);
#263=ORIENTED_EDGE('',*,*,#508,.F.);
#264=ORIENTED_EDGE('',*,*,#513,.F.);
#265=ORIENTED_EDGE('',*,*,#452,.F.);
#266=ORIENTED_EDGE('',*,*,#476,.F.);
#267=ORIENTED_EDGE('',*,*,#445,.F.);
#268=ORIENTED_EDGE('',*,*,#514,.F.);
#269=ORIENTED_EDGE('',*,*,#509,.F.);
#270=ORIENTED_EDGE('',*,*,#494,.F.);
#271=ORIENTED_EDGE('',*,*,#454,.F.);
#272=ORIENTED_EDGE('',*,*,#515,.F.);
#273=ORIENTED_EDGE('',*,*,#505,.F.);
#274=ORIENTED_EDGE('',*,*,#477,.F.);
#275=ORIENTED_EDGE('',*,*,#502,.F.);
#276=ORIENTED_EDGE('',*,*,#516,.F.);
#277=ORIENTED_EDGE('',*,*,#433,.F.);
#278=ORIENTED_EDGE('',*,*,#480,.F.);
#279=ORIENTED_EDGE('',*,*,#512,.F.);
#280=ORIENTED_EDGE('',*,*,#517,.F.);
#281=ORIENTED_EDGE('',*,*,#443,.F.);
#282=ORIENTED_EDGE('',*,*,#493,.F.);
#283=ORIENTED_EDGE('',*,*,#469,.F.);
#284=ORIENTED_EDGE('',*,*,#518,.F.);
#285=ORIENTED_EDGE('',*,*,#503,.F.);
#286=ORIENTED_EDGE('',*,*,#490,.F.);
#287=ORIENTED_EDGE('',*,*,#500,.F.);
#288=ORIENTED_EDGE('',*,*,#519,.F.);
#289=ORIENTED_EDGE('',*,*,#467,.F.);
#290=ORIENTED_EDGE('',*,*,#489,.F.);
#291=ORIENTED_EDGE('',*,*,#466,.F.);
#292=ORIENTED_EDGE('',*,*,#520,.F.);
#293=ORIENTED_EDGE('',*,*,#497,.F.);
#294=ORIENTED_EDGE('',*,*,#486,.F.);
#295=ORIENTED_EDGE('',*,*,#521,.T.);
#296=ORIENTED_EDGE('',*,*,#522,.T.);
#297=ORIENTED_EDGE('',*,*,#523,.T.);
#298=ORIENTED_EDGE('',*,*,#484,.F.);
#299=ORIENTED_EDGE('',*,*,#483,.F.);
#300=ORIENTED_EDGE('',*,*,#524,.T.);
#301=ORIENTED_EDGE('',*,*,#525,.T.);
#302=ORIENTED_EDGE('',*,*,#521,.F.);
#303=ORIENTED_EDGE('',*,*,#482,.T.);
#304=ORIENTED_EDGE('',*,*,#526,.T.);
#305=ORIENTED_EDGE('',*,*,#527,.F.);
#306=ORIENTED_EDGE('',*,*,#524,.F.);
#307=ORIENTED_EDGE('',*,*,#485,.F.);
#308=ORIENTED_EDGE('',*,*,#523,.F.);
#309=ORIENTED_EDGE('',*,*,#528,.F.);
#310=ORIENTED_EDGE('',*,*,#464,.F.);
#311=ORIENTED_EDGE('',*,*,#481,.F.);
#312=ORIENTED_EDGE('',*,*,#435,.F.);
#313=ORIENTED_EDGE('',*,*,#529,.F.);
#314=ORIENTED_EDGE('',*,*,#526,.F.);
#315=ORIENTED_EDGE('',*,*,#438,.T.);
#316=ORIENTED_EDGE('',*,*,#413,.T.);
#317=ORIENTED_EDGE('',*,*,#440,.T.);
#318=ORIENTED_EDGE('',*,*,#411,.T.);
#319=ORIENTED_EDGE('',*,*,#442,.T.);
#320=ORIENTED_EDGE('',*,*,#409,.T.);
#321=ORIENTED_EDGE('',*,*,#432,.T.);
#322=ORIENTED_EDGE('',*,*,#415,.T.);
#323=ORIENTED_EDGE('',*,*,#422,.T.);
#324=ORIENTED_EDGE('',*,*,#530,.T.);
#325=ORIENTED_EDGE('',*,*,#417,.F.);
#326=ORIENTED_EDGE('',*,*,#496,.T.);
#327=ORIENTED_EDGE('',*,*,#465,.F.);
#328=ORIENTED_EDGE('',*,*,#528,.T.);
#329=ORIENTED_EDGE('',*,*,#522,.F.);
#330=ORIENTED_EDGE('',*,*,#525,.F.);
#331=ORIENTED_EDGE('',*,*,#527,.T.);
#332=ORIENTED_EDGE('',*,*,#529,.T.);
#333=ORIENTED_EDGE('',*,*,#434,.F.);
#334=ORIENTED_EDGE('',*,*,#516,.T.);
#335=ORIENTED_EDGE('',*,*,#501,.T.);
#336=ORIENTED_EDGE('',*,*,#456,.F.);
#337=ORIENTED_EDGE('',*,*,#506,.F.);
#338=ORIENTED_EDGE('',*,*,#515,.T.);
#339=ORIENTED_EDGE('',*,*,#453,.F.);
#340=ORIENTED_EDGE('',*,*,#513,.T.);
#341=ORIENTED_EDGE('',*,*,#507,.T.);
#342=ORIENTED_EDGE('',*,*,#448,.F.);
#343=ORIENTED_EDGE('',*,*,#510,.F.);
#344=ORIENTED_EDGE('',*,*,#514,.T.);
#345=ORIENTED_EDGE('',*,*,#444,.F.);
#346=ORIENTED_EDGE('',*,*,#517,.T.);
#347=ORIENTED_EDGE('',*,*,#511,.T.);
#348=ORIENTED_EDGE('',*,*,#460,.F.);
#349=ORIENTED_EDGE('',*,*,#504,.F.);
#350=ORIENTED_EDGE('',*,*,#518,.T.);
#351=ORIENTED_EDGE('',*,*,#468,.F.);
#352=ORIENTED_EDGE('',*,*,#519,.T.);
#353=ORIENTED_EDGE('',*,*,#499,.T.);
#354=ORIENTED_EDGE('',*,*,#472,.F.);
#355=ORIENTED_EDGE('',*,*,#498,.F.);
#356=ORIENTED_EDGE('',*,*,#520,.T.);
#357=ORIENTED_EDGE('',*,*,#531,.T.);
#358=ORIENTED_EDGE('',*,*,#532,.T.);
#359=ORIENTED_EDGE('',*,*,#533,.T.);
#360=ORIENTED_EDGE('',*,*,#534,.T.);
#361=ORIENTED_EDGE('',*,*,#535,.T.);
#362=ORIENTED_EDGE('',*,*,#536,.T.);
#363=ORIENTED_EDGE('',*,*,#537,.T.);
#364=ORIENTED_EDGE('',*,*,#538,.T.);
#365=ORIENTED_EDGE('',*,*,#416,.T.);
#366=ORIENTED_EDGE('',*,*,#414,.T.);
#367=ORIENTED_EDGE('',*,*,#412,.T.);
#368=ORIENTED_EDGE('',*,*,#410,.T.);
#369=ORIENTED_EDGE('',*,*,#539,.F.);
#370=ORIENTED_EDGE('',*,*,#406,.F.);
#371=ORIENTED_EDGE('',*,*,#540,.F.);
#372=ORIENTED_EDGE('',*,*,#536,.F.);
#373=ORIENTED_EDGE('',*,*,#540,.T.);
#374=ORIENTED_EDGE('',*,*,#427,.F.);
#375=ORIENTED_EDGE('',*,*,#541,.F.);
#376=ORIENTED_EDGE('',*,*,#537,.F.);
#377=ORIENTED_EDGE('',*,*,#539,.T.);
#378=ORIENTED_EDGE('',*,*,#535,.F.);
#379=ORIENTED_EDGE('',*,*,#542,.F.);
#380=ORIENTED_EDGE('',*,*,#424,.F.);
#381=ORIENTED_EDGE('',*,*,#541,.T.);
#382=ORIENTED_EDGE('',*,*,#429,.F.);
#383=ORIENTED_EDGE('',*,*,#543,.F.);
#384=ORIENTED_EDGE('',*,*,#538,.F.);
#385=ORIENTED_EDGE('',*,*,#542,.T.);
#386=ORIENTED_EDGE('',*,*,#534,.F.);
#387=ORIENTED_EDGE('',*,*,#544,.F.);
#388=ORIENTED_EDGE('',*,*,#402,.F.);
#389=ORIENTED_EDGE('',*,*,#543,.T.);
#390=ORIENTED_EDGE('',*,*,#418,.F.);
#391=ORIENTED_EDGE('',*,*,#545,.F.);
#392=ORIENTED_EDGE('',*,*,#531,.F.);
#393=ORIENTED_EDGE('',*,*,#544,.T.);
#394=ORIENTED_EDGE('',*,*,#533,.F.);
#395=ORIENTED_EDGE('',*,*,#546,.F.);
#396=ORIENTED_EDGE('',*,*,#421,.F.);
#397=ORIENTED_EDGE('',*,*,#545,.T.);
#398=ORIENTED_EDGE('',*,*,#530,.F.);
#399=ORIENTED_EDGE('',*,*,#546,.T.);
#400=ORIENTED_EDGE('',*,*,#532,.F.);
#401=EDGE_CURVE('',#547,#548,#647,.T.);
#402=EDGE_CURVE('',#548,#549,#648,.T.);
#403=EDGE_CURVE('',#550,#549,#649,.T.);
#404=EDGE_CURVE('',#550,#547,#650,.T.);
#405=EDGE_CURVE('',#551,#552,#651,.T.);
#406=EDGE_CURVE('',#552,#553,#652,.T.);
#407=EDGE_CURVE('',#554,#553,#653,.T.);
#408=EDGE_CURVE('',#554,#551,#654,.T.);
#409=EDGE_CURVE('',#555,#555,#36,.T.);
#410=EDGE_CURVE('',#556,#556,#32,.F.);
#411=EDGE_CURVE('',#557,#557,#37,.T.);
#412=EDGE_CURVE('',#558,#558,#33,.F.);
#413=EDGE_CURVE('',#559,#559,#38,.T.);
#414=EDGE_CURVE('',#560,#560,#34,.F.);
#415=EDGE_CURVE('',#561,#561,#39,.T.);
#416=EDGE_CURVE('',#562,#562,#35,.F.);
#417=EDGE_CURVE('',#563,#564,#655,.T.);
#418=EDGE_CURVE('',#564,#565,#16,.T.);
#419=EDGE_CURVE('',#566,#565,#656,.T.);
#420=EDGE_CURVE('',#566,#563,#40,.T.);
#421=EDGE_CURVE('',#549,#567,#17,.T.);
#422=EDGE_CURVE('',#568,#567,#657,.T.);
#423=EDGE_CURVE('',#568,#550,#41,.T.);
#424=EDGE_CURVE('',#553,#548,#18,.T.);
#425=EDGE_CURVE('',#547,#554,#42,.T.);
#426=EDGE_CURVE('',#569,#570,#658,.T.);
#427=EDGE_CURVE('',#570,#552,#19,.T.);
#428=EDGE_CURVE('',#551,#569,#43,.T.);
#429=EDGE_CURVE('',#565,#570,#659,.T.);
#430=EDGE_CURVE('',#569,#566,#660,.T.);
#431=EDGE_CURVE('',#571,#571,#44,.T.);
#432=EDGE_CURVE('',#572,#572,#45,.T.);
#433=EDGE_CURVE('',#573,#574,#661,.F.);
#434=EDGE_CURVE('',#574,#575,#662,.T.);
#435=EDGE_CURVE('',#575,#576,#663,.F.);
#436=EDGE_CURVE('',#573,#576,#664,.T.);
#437=EDGE_CURVE('',#577,#577,#46,.T.);
#438=EDGE_CURVE('',#578,#578,#47,.T.);
#439=EDGE_CURVE('',#579,#579,#48,.T.);
#440=EDGE_CURVE('',#580,#580,#49,.T.);
#441=EDGE_CURVE('',#581,#581,#50,.T.);
#442=EDGE_CURVE('',#582,#582,#51,.T.);
#443=EDGE_CURVE('',#583,#584,#665,.F.);
#444=EDGE_CURVE('',#584,#585,#666,.T.);
#445=EDGE_CURVE('',#585,#586,#667,.T.);
#446=EDGE_CURVE('',#583,#586,#668,.T.);
#447=EDGE_CURVE('',#587,#588,#669,.T.);
#448=EDGE_CURVE('',#587,#589,#52,.T.);
#449=EDGE_CURVE('',#589,#590,#670,.T.);
#450=EDGE_CURVE('',#588,#590,#53,.T.);
#451=EDGE_CURVE('',#591,#592,#671,.T.);
#452=EDGE_CURVE('',#591,#593,#672,.F.);
#453=EDGE_CURVE('',#593,#594,#673,.T.);
#454=EDGE_CURVE('',#594,#592,#674,.T.);
#455=EDGE_CURVE('',#595,#596,#675,.T.);
#456=EDGE_CURVE('',#595,#597,#54,.T.);
#457=EDGE_CURVE('',#597,#598,#676,.T.);
#458=EDGE_CURVE('',#596,#598,#55,.T.);
#459=EDGE_CURVE('',#599,#600,#677,.T.);
#460=EDGE_CURVE('',#599,#601,#56,.T.);
#461=EDGE_CURVE('',#601,#602,#678,.T.);
#462=EDGE_CURVE('',#600,#602,#57,.T.);
#463=EDGE_CURVE('',#603,#604,#679,.T.);
#464=EDGE_CURVE('',#603,#605,#680,.T.);
#465=EDGE_CURVE('',#605,#606,#681,.T.);
#466=EDGE_CURVE('',#606,#604,#682,.T.);
#467=EDGE_CURVE('',#607,#608,#683,.F.);
#468=EDGE_CURVE('',#608,#609,#684,.T.);
#469=EDGE_CURVE('',#609,#610,#685,.T.);
#470=EDGE_CURVE('',#607,#610,#686,.T.);
#471=EDGE_CURVE('',#611,#612,#687,.T.);
#472=EDGE_CURVE('',#611,#613,#58,.T.);
#473=EDGE_CURVE('',#613,#614,#688,.T.);
#474=EDGE_CURVE('',#612,#614,#59,.T.);
#475=EDGE_CURVE('',#590,#615,#689,.T.);
#476=EDGE_CURVE('',#615,#591,#60,.F.);
#477=EDGE_CURVE('',#592,#616,#61,.F.);
#478=EDGE_CURVE('',#596,#616,#690,.T.);
#479=EDGE_CURVE('',#598,#617,#691,.T.);
#480=EDGE_CURVE('',#617,#573,#62,.F.);
#481=EDGE_CURVE('',#576,#618,#63,.F.);
#482=EDGE_CURVE('',#619,#618,#692,.T.);
#483=EDGE_CURVE('',#619,#620,#64,.T.);
#484=EDGE_CURVE('',#620,#621,#693,.T.);
#485=EDGE_CURVE('',#621,#603,#65,.F.);
#486=EDGE_CURVE('',#604,#622,#66,.F.);
#487=EDGE_CURVE('',#612,#622,#694,.T.);
#488=EDGE_CURVE('',#614,#623,#695,.T.);
#489=EDGE_CURVE('',#623,#607,#67,.F.);
#490=EDGE_CURVE('',#610,#624,#68,.F.);
#491=EDGE_CURVE('',#600,#624,#696,.T.);
#492=EDGE_CURVE('',#602,#625,#697,.T.);
#493=EDGE_CURVE('',#625,#583,#69,.F.);
#494=EDGE_CURVE('',#586,#626,#70,.F.);
#495=EDGE_CURVE('',#588,#626,#698,.T.);
#496=EDGE_CURVE('',#563,#568,#699,.T.);
#497=EDGE_CURVE('',#622,#627,#700,.F.);
#498=EDGE_CURVE('',#627,#611,#701,.T.);
#499=EDGE_CURVE('',#628,#613,#702,.T.);
#500=EDGE_CURVE('',#628,#623,#703,.T.);
#501=EDGE_CURVE('',#629,#597,#704,.T.);
#502=EDGE_CURVE('',#629,#617,#705,.T.);
#503=EDGE_CURVE('',#624,#630,#706,.F.);
#504=EDGE_CURVE('',#630,#599,#707,.T.);
#505=EDGE_CURVE('',#616,#631,#708,.F.);
#506=EDGE_CURVE('',#631,#595,#709,.T.);
#507=EDGE_CURVE('',#632,#589,#710,.T.);
#508=EDGE_CURVE('',#632,#615,#711,.T.);
#509=EDGE_CURVE('',#626,#633,#712,.F.);
#510=EDGE_CURVE('',#633,#587,#713,.T.);
#511=EDGE_CURVE('',#634,#601,#714,.T.);
#512=EDGE_CURVE('',#634,#625,#715,.T.);
#513=EDGE_CURVE('',#593,#632,#71,.T.);
#514=EDGE_CURVE('',#633,#585,#72,.T.);
#515=EDGE_CURVE('',#631,#594,#73,.T.);
#516=EDGE_CURVE('',#574,#629,#74,.T.);
#517=EDGE_CURVE('',#584,#634,#75,.T.);
#518=EDGE_CURVE('',#630,#609,#76,.T.);
#519=EDGE_CURVE('',#608,#628,#77,.T.);
#520=EDGE_CURVE('',#627,#606,#78,.T.);
#521=EDGE_CURVE('',#620,#635,#716,.T.);
#522=EDGE_CURVE('',#635,#636,#717,.T.);
#523=EDGE_CURVE('',#636,#621,#718,.F.);
#524=EDGE_CURVE('',#619,#637,#719,.T.);
#525=EDGE_CURVE('',#637,#635,#79,.T.);
#526=EDGE_CURVE('',#618,#638,#720,.T.);
#527=EDGE_CURVE('',#637,#638,#721,.T.);
#528=EDGE_CURVE('',#605,#636,#80,.T.);
#529=EDGE_CURVE('',#638,#575,#81,.T.);
#530=EDGE_CURVE('',#567,#564,#722,.T.);
#531=EDGE_CURVE('',#639,#640,#20,.T.);
#532=EDGE_CURVE('',#640,#641,#723,.T.);
#533=EDGE_CURVE('',#641,#642,#21,.T.);
#534=EDGE_CURVE('',#642,#643,#724,.T.);
#535=EDGE_CURVE('',#643,#644,#22,.T.);
#536=EDGE_CURVE('',#644,#645,#725,.T.);
#537=EDGE_CURVE('',#645,#646,#23,.T.);
#538=EDGE_CURVE('',#646,#639,#726,.T.);
#539=EDGE_CURVE('',#553,#644,#24,.F.);
#540=EDGE_CURVE('',#645,#552,#25,.F.);
#541=EDGE_CURVE('',#646,#570,#26,.T.);
#542=EDGE_CURVE('',#548,#643,#27,.T.);
#543=EDGE_CURVE('',#639,#565,#28,.F.);
#544=EDGE_CURVE('',#549,#642,#29,.F.);
#545=EDGE_CURVE('',#640,#564,#30,.T.);
#546=EDGE_CURVE('',#567,#641,#31,.T.);
#547=VERTEX_POINT('',#1481);
#548=VERTEX_POINT('',#1482);
#549=VERTEX_POINT('',#1484);
#550=VERTEX_POINT('',#1486);
#551=VERTEX_POINT('',#1490);
#552=VERTEX_POINT('',#1491);
#553=VERTEX_POINT('',#1493);
#554=VERTEX_POINT('',#1495);
#555=VERTEX_POINT('',#1499);
#556=VERTEX_POINT('',#1501);
#557=VERTEX_POINT('',#1504);
#558=VERTEX_POINT('',#1506);
#559=VERTEX_POINT('',#1509);
#560=VERTEX_POINT('',#1511);
#561=VERTEX_POINT('',#1514);
#562=VERTEX_POINT('',#1516);
#563=VERTEX_POINT('',#1519);
#564=VERTEX_POINT('',#1520);
#565=VERTEX_POINT('',#1527);
#566=VERTEX_POINT('',#1529);
#567=VERTEX_POINT('',#1538);
#568=VERTEX_POINT('',#1540);
#569=VERTEX_POINT('',#1552);
#570=VERTEX_POINT('',#1553);
#571=VERTEX_POINT('',#1566);
#572=VERTEX_POINT('',#1568);
#573=VERTEX_POINT('',#1571);
#574=VERTEX_POINT('',#1572);
#575=VERTEX_POINT('',#1574);
#576=VERTEX_POINT('',#1576);
#577=VERTEX_POINT('',#1580);
#578=VERTEX_POINT('',#1582);
#579=VERTEX_POINT('',#1585);
#580=VERTEX_POINT('',#1587);
#581=VERTEX_POINT('',#1590);
#582=VERTEX_POINT('',#1592);
#583=VERTEX_POINT('',#1595);
#584=VERTEX_POINT('',#1596);
#585=VERTEX_POINT('',#1598);
#586=VERTEX_POINT('',#1600);
#587=VERTEX_POINT('',#1604);
#588=VERTEX_POINT('',#1605);
#589=VERTEX_POINT('',#1607);
#590=VERTEX_POINT('',#1609);
#591=VERTEX_POINT('',#1613);
#592=VERTEX_POINT('',#1614);
#593=VERTEX_POINT('',#1616);
#594=VERTEX_POINT('',#1618);
#595=VERTEX_POINT('',#1622);
#596=VERTEX_POINT('',#1623);
#597=VERTEX_POINT('',#1625);
#598=VERTEX_POINT('',#1627);
#599=VERTEX_POINT('',#1631);
#600=VERTEX_POINT('',#1632);
#601=VERTEX_POINT('',#1634);
#602=VERTEX_POINT('',#1636);
#603=VERTEX_POINT('',#1640);
#604=VERTEX_POINT('',#1641);
#605=VERTEX_POINT('',#1643);
#606=VERTEX_POINT('',#1645);
#607=VERTEX_POINT('',#1649);
#608=VERTEX_POINT('',#1650);
#609=VERTEX_POINT('',#1652);
#610=VERTEX_POINT('',#1654);
#611=VERTEX_POINT('',#1658);
#612=VERTEX_POINT('',#1659);
#613=VERTEX_POINT('',#1661);
#614=VERTEX_POINT('',#1663);
#615=VERTEX_POINT('',#1667);
#616=VERTEX_POINT('',#1670);
#617=VERTEX_POINT('',#1673);
#618=VERTEX_POINT('',#1676);
#619=VERTEX_POINT('',#1678);
#620=VERTEX_POINT('',#1680);
#621=VERTEX_POINT('',#1682);
#622=VERTEX_POINT('',#1685);
#623=VERTEX_POINT('',#1688);
#624=VERTEX_POINT('',#1691);
#625=VERTEX_POINT('',#1694);
#626=VERTEX_POINT('',#1697);
#627=VERTEX_POINT('',#1702);
#628=VERTEX_POINT('',#1706);
#629=VERTEX_POINT('',#1710);
#630=VERTEX_POINT('',#1714);
#631=VERTEX_POINT('',#1718);
#632=VERTEX_POINT('',#1722);
#633=VERTEX_POINT('',#1726);
#634=VERTEX_POINT('',#1730);
#635=VERTEX_POINT('',#1750);
#636=VERTEX_POINT('',#1752);
#637=VERTEX_POINT('',#1756);
#638=VERTEX_POINT('',#1760);
#639=VERTEX_POINT('',#1779);
#640=VERTEX_POINT('',#1780);
#641=VERTEX_POINT('',#1782);
#642=VERTEX_POINT('',#1788);
#643=VERTEX_POINT('',#1790);
#644=VERTEX_POINT('',#1796);
#645=VERTEX_POINT('',#1798);
#646=VERTEX_POINT('',#1804);
#647=LINE('',#1480,#727);
#648=LINE('',#1483,#728);
#649=LINE('',#1485,#729);
#650=LINE('',#1487,#730);
#651=LINE('',#1489,#731);
#652=LINE('',#1492,#732);
#653=LINE('',#1494,#733);
#654=LINE('',#1496,#734);
#655=LINE('',#1518,#735);
#656=LINE('',#1528,#736);
#657=LINE('',#1539,#737);
#658=LINE('',#1551,#738);
#659=LINE('',#1562,#739);
#660=LINE('',#1563,#740);
#661=LINE('',#1570,#741);
#662=LINE('',#1573,#742);
#663=LINE('',#1575,#743);
#664=LINE('',#1577,#744);
#665=LINE('',#1594,#745);
#666=LINE('',#1597,#746);
#667=LINE('',#1599,#747);
#668=LINE('',#1601,#748);
#669=LINE('',#1603,#749);
#670=LINE('',#1608,#750);
#671=LINE('',#1612,#751);
#672=LINE('',#1615,#752);
#673=LINE('',#1617,#753);
#674=LINE('',#1619,#754);
#675=LINE('',#1621,#755);
#676=LINE('',#1626,#756);
#677=LINE('',#1630,#757);
#678=LINE('',#1635,#758);
#679=LINE('',#1639,#759);
#680=LINE('',#1642,#760);
#681=LINE('',#1644,#761);
#682=LINE('',#1646,#762);
#683=LINE('',#1648,#763);
#684=LINE('',#1651,#764);
#685=LINE('',#1653,#765);
#686=LINE('',#1655,#766);
#687=LINE('',#1657,#767);
#688=LINE('',#1662,#768);
#689=LINE('',#1666,#769);
#690=LINE('',#1671,#770);
#691=LINE('',#1672,#771);
#692=LINE('',#1677,#772);
#693=LINE('',#1681,#773);
#694=LINE('',#1686,#774);
#695=LINE('',#1687,#775);
#696=LINE('',#1692,#776);
#697=LINE('',#1693,#777);
#698=LINE('',#1698,#778);
#699=LINE('',#1699,#779);
#700=LINE('',#1701,#780);
#701=LINE('',#1703,#781);
#702=LINE('',#1705,#782);
#703=LINE('',#1707,#783);
#704=LINE('',#1709,#784);
#705=LINE('',#1711,#785);
#706=LINE('',#1713,#786);
#707=LINE('',#1715,#787);
#708=LINE('',#1717,#788);
#709=LINE('',#1719,#789);
#710=LINE('',#1721,#790);
#711=LINE('',#1723,#791);
#712=LINE('',#1725,#792);
#713=LINE('',#1727,#793);
#714=LINE('',#1729,#794);
#715=LINE('',#1731,#795);
#716=LINE('',#1749,#796);
#717=LINE('',#1751,#797);
#718=LINE('',#1753,#798);
#719=LINE('',#1755,#799);
#720=LINE('',#1759,#800);
#721=LINE('',#1761,#801);
#722=LINE('',#1771,#802);
#723=LINE('',#1781,#803);
#724=LINE('',#1789,#804);
#725=LINE('',#1797,#805);
#726=LINE('',#1805,#806);
#727=VECTOR('',#1186,1.);
#728=VECTOR('',#1187,1.);
#729=VECTOR('',#1188,1.);
#730=VECTOR('',#1189,1.);
#731=VECTOR('',#1192,1.);
#732=VECTOR('',#1193,1.);
#733=VECTOR('',#1194,1.);
#734=VECTOR('',#1195,1.);
#735=VECTOR('',#1222,1.);
#736=VECTOR('',#1223,1.);
#737=VECTOR('',#1228,1.);
#738=VECTOR('',#1237,1.);
#739=VECTOR('',#1242,1.);
#740=VECTOR('',#1243,1.);
#741=VECTOR('',#1252,1.);
#742=VECTOR('',#1253,1.);
#743=VECTOR('',#1254,1.);
#744=VECTOR('',#1255,1.);
#745=VECTOR('',#1276,1.);
#746=VECTOR('',#1277,1.);
#747=VECTOR('',#1278,1.);
#748=VECTOR('',#1279,1.);
#749=VECTOR('',#1282,1.);
#750=VECTOR('',#1285,1.);
#751=VECTOR('',#1290,1.);
#752=VECTOR('',#1291,1.);
#753=VECTOR('',#1292,1.);
#754=VECTOR('',#1293,1.);
#755=VECTOR('',#1296,1.);
#756=VECTOR('',#1299,1.);
#757=VECTOR('',#1304,1.);
#758=VECTOR('',#1307,1.);
#759=VECTOR('',#1312,1.);
#760=VECTOR('',#1313,1.);
#761=VECTOR('',#1314,1.);
#762=VECTOR('',#1315,1.);
#763=VECTOR('',#1318,1.);
#764=VECTOR('',#1319,1.);
#765=VECTOR('',#1320,1.);
#766=VECTOR('',#1321,1.);
#767=VECTOR('',#1324,1.);
#768=VECTOR('',#1327,1.);
#769=VECTOR('',#1332,1.);
#770=VECTOR('',#1337,1.);
#771=VECTOR('',#1338,1.);
#772=VECTOR('',#1343,1.);
#773=VECTOR('',#1346,1.);
#774=VECTOR('',#1351,1.);
#775=VECTOR('',#1352,1.);
#776=VECTOR('',#1357,1.);
#777=VECTOR('',#1358,1.);
#778=VECTOR('',#1363,1.);
#779=VECTOR('',#1364,1.);
#780=VECTOR('',#1367,1.);
#781=VECTOR('',#1368,1.);
#782=VECTOR('',#1371,1.);
#783=VECTOR('',#1372,1.);
#784=VECTOR('',#1375,1.);
#785=VECTOR('',#1376,1.);
#786=VECTOR('',#1379,1.);
#787=VECTOR('',#1380,1.);
#788=VECTOR('',#1383,1.);
#789=VECTOR('',#1384,1.);
#790=VECTOR('',#1387,1.);
#791=VECTOR('',#1388,1.);
#792=VECTOR('',#1391,1.);
#793=VECTOR('',#1392,1.);
#794=VECTOR('',#1395,1.);
#795=VECTOR('',#1396,1.);
#796=VECTOR('',#1431,1.);
#797=VECTOR('',#1432,1.);
#798=VECTOR('',#1433,1.);
#799=VECTOR('',#1436,1.);
#800=VECTOR('',#1441,1.);
#801=VECTOR('',#1442,1.);
#802=VECTOR('',#1461,1.);
#803=VECTOR('',#1466,1.);
#804=VECTOR('',#1467,1.);
#805=VECTOR('',#1468,1.);
#806=VECTOR('',#1469,1.);
#807=EDGE_LOOP('',(#109,#110,#111,#112));
#808=EDGE_LOOP('',(#113,#114,#115,#116));
#809=EDGE_LOOP('',(#117));
#810=EDGE_LOOP('',(#118));
#811=EDGE_LOOP('',(#119));
#812=EDGE_LOOP('',(#120));
#813=EDGE_LOOP('',(#121));
#814=EDGE_LOOP('',(#122));
#815=EDGE_LOOP('',(#123));
#816=EDGE_LOOP('',(#124));
#817=EDGE_LOOP('',(#125,#126,#127,#128));
#818=EDGE_LOOP('',(#129,#130,#131,#132));
#819=EDGE_LOOP('',(#133,#134,#135,#136));
#820=EDGE_LOOP('',(#137,#138,#139,#140));
#821=EDGE_LOOP('',(#141,#142,#143,#144));
#822=EDGE_LOOP('',(#145));
#823=EDGE_LOOP('',(#146));
#824=EDGE_LOOP('',(#147,#148,#149,#150));
#825=EDGE_LOOP('',(#151));
#826=EDGE_LOOP('',(#152));
#827=EDGE_LOOP('',(#153));
#828=EDGE_LOOP('',(#154));
#829=EDGE_LOOP('',(#155));
#830=EDGE_LOOP('',(#156));
#831=EDGE_LOOP('',(#157,#158,#159,#160));
#832=EDGE_LOOP('',(#161,#162,#163,#164));
#833=EDGE_LOOP('',(#165,#166,#167,#168));
#834=EDGE_LOOP('',(#169,#170,#171,#172));
#835=EDGE_LOOP('',(#173,#174,#175,#176));
#836=EDGE_LOOP('',(#177,#178,#179,#180));
#837=EDGE_LOOP('',(#181,#182,#183,#184));
#838=EDGE_LOOP('',(#185,#186,#187,#188));
#839=EDGE_LOOP('',(#189,#190,#191,#192,#193,#194,#195,#196,#197,#198,#199,
#200,#201,#202,#203,#204,#205,#206,#207,#208,#209,#210,#211,#212,#213,#214,
#215,#216,#217,#218));
#840=EDGE_LOOP('',(#219));
#841=EDGE_LOOP('',(#220));
#842=EDGE_LOOP('',(#221));
#843=EDGE_LOOP('',(#222));
#844=EDGE_LOOP('',(#223,#224,#225,#226,#227,#228,#229,#230));
#845=EDGE_LOOP('',(#231,#232,#233,#234));
#846=EDGE_LOOP('',(#235,#236,#237,#238));
#847=EDGE_LOOP('',(#239,#240,#241,#242));
#848=EDGE_LOOP('',(#243,#244,#245,#246));
#849=EDGE_LOOP('',(#247,#248,#249,#250));
#850=EDGE_LOOP('',(#251,#252,#253,#254));
#851=EDGE_LOOP('',(#255,#256,#257,#258));
#852=EDGE_LOOP('',(#259,#260,#261,#262));
#853=EDGE_LOOP('',(#263,#264,#265,#266));
#854=EDGE_LOOP('',(#267,#268,#269,#270));
#855=EDGE_LOOP('',(#271,#272,#273,#274));
#856=EDGE_LOOP('',(#275,#276,#277,#278));
#857=EDGE_LOOP('',(#279,#280,#281,#282));
#858=EDGE_LOOP('',(#283,#284,#285,#286));
#859=EDGE_LOOP('',(#287,#288,#289,#290));
#860=EDGE_LOOP('',(#291,#292,#293,#294));
#861=EDGE_LOOP('',(#295,#296,#297,#298));
#862=EDGE_LOOP('',(#299,#300,#301,#302));
#863=EDGE_LOOP('',(#303,#304,#305,#306));
#864=EDGE_LOOP('',(#307,#308,#309,#310));
#865=EDGE_LOOP('',(#311,#312,#313,#314));
#866=EDGE_LOOP('',(#315));
#867=EDGE_LOOP('',(#316));
#868=EDGE_LOOP('',(#317));
#869=EDGE_LOOP('',(#318));
#870=EDGE_LOOP('',(#319));
#871=EDGE_LOOP('',(#320));
#872=EDGE_LOOP('',(#321));
#873=EDGE_LOOP('',(#322));
#874=EDGE_LOOP('',(#323,#324,#325,#326));
#875=EDGE_LOOP('',(#327,#328,#329,#330,#331,#332,#333,#334,#335,#336,#337,
#338,#339,#340,#341,#342,#343,#344,#345,#346,#347,#348,#349,#350,#351,#352,
#353,#354,#355,#356));
#876=EDGE_LOOP('',(#357,#358,#359,#360,#361,#362,#363,#364));
#877=EDGE_LOOP('',(#365));
#878=EDGE_LOOP('',(#366));
#879=EDGE_LOOP('',(#367));
#880=EDGE_LOOP('',(#368));
#881=EDGE_LOOP('',(#369,#370,#371,#372));
#882=EDGE_LOOP('',(#373,#374,#375,#376));
#883=EDGE_LOOP('',(#377,#378,#379,#380));
#884=EDGE_LOOP('',(#381,#382,#383,#384));
#885=EDGE_LOOP('',(#385,#386,#387,#388));
#886=EDGE_LOOP('',(#389,#390,#391,#392));
#887=EDGE_LOOP('',(#393,#394,#395,#396));
#888=EDGE_LOOP('',(#397,#398,#399,#400));
#889=FACE_BOUND('',#807,.T.);
#890=FACE_BOUND('',#808,.T.);
#891=FACE_BOUND('',#809,.T.);
#892=FACE_BOUND('',#810,.T.);
#893=FACE_BOUND('',#811,.T.);
#894=FACE_BOUND('',#812,.T.);
#895=FACE_BOUND('',#813,.T.);
#896=FACE_BOUND('',#814,.T.);
#897=FACE_BOUND('',#815,.T.);
#898=FACE_BOUND('',#816,.T.);
#899=FACE_BOUND('',#817,.T.);
#900=FACE_BOUND('',#818,.T.);
#901=FACE_BOUND('',#819,.T.);
#902=FACE_BOUND('',#820,.T.);
#903=FACE_BOUND('',#821,.T.);
#904=FACE_BOUND('',#822,.T.);
#905=FACE_BOUND('',#823,.T.);
#906=FACE_BOUND('',#824,.T.);
#907=FACE_BOUND('',#825,.T.);
#908=FACE_BOUND('',#826,.T.);
#909=FACE_BOUND('',#827,.T.);
#910=FACE_BOUND('',#828,.T.);
#911=FACE_BOUND('',#829,.T.);
#912=FACE_BOUND('',#830,.T.);
#913=FACE_BOUND('',#831,.T.);
#914=FACE_BOUND('',#832,.T.);
#915=FACE_BOUND('',#833,.T.);
#916=FACE_BOUND('',#834,.T.);
#917=FACE_BOUND('',#835,.T.);
#918=FACE_BOUND('',#836,.T.);
#919=FACE_BOUND('',#837,.T.);
#920=FACE_BOUND('',#838,.T.);
#921=FACE_BOUND('',#839,.T.);
#922=FACE_BOUND('',#840,.T.);
#923=FACE_BOUND('',#841,.T.);
#924=FACE_BOUND('',#842,.T.);
#925=FACE_BOUND('',#843,.T.);
#926=FACE_BOUND('',#844,.T.);
#927=FACE_BOUND('',#845,.T.);
#928=FACE_BOUND('',#846,.T.);
#929=FACE_BOUND('',#847,.T.);
#930=FACE_BOUND('',#848,.T.);
#931=FACE_BOUND('',#849,.T.);
#932=FACE_BOUND('',#850,.T.);
#933=FACE_BOUND('',#851,.T.);
#934=FACE_BOUND('',#852,.T.);
#935=FACE_BOUND('',#853,.T.);
#936=FACE_BOUND('',#854,.T.);
#937=FACE_BOUND('',#855,.T.);
#938=FACE_BOUND('',#856,.T.);
#939=FACE_BOUND('',#857,.T.);
#940=FACE_BOUND('',#858,.T.);
#941=FACE_BOUND('',#859,.T.);
#942=FACE_BOUND('',#860,.T.);
#943=FACE_BOUND('',#861,.T.);
#944=FACE_BOUND('',#862,.T.);
#945=FACE_BOUND('',#863,.T.);
#946=FACE_BOUND('',#864,.T.);
#947=FACE_BOUND('',#865,.T.);
#948=FACE_BOUND('',#866,.T.);
#949=FACE_BOUND('',#867,.T.);
#950=FACE_BOUND('',#868,.T.);
#951=FACE_BOUND('',#869,.T.);
#952=FACE_BOUND('',#870,.T.);
#953=FACE_BOUND('',#871,.T.);
#954=FACE_BOUND('',#872,.T.);
#955=FACE_BOUND('',#873,.T.);
#956=FACE_BOUND('',#874,.T.);
#957=FACE_BOUND('',#875,.T.);
#958=FACE_BOUND('',#876,.T.);
#959=FACE_BOUND('',#877,.T.);
#960=FACE_BOUND('',#878,.T.);
#961=FACE_BOUND('',#879,.T.);
#962=FACE_BOUND('',#880,.T.);
#963=FACE_BOUND('',#881,.T.);
#964=FACE_BOUND('',#882,.T.);
#965=FACE_BOUND('',#883,.T.);
#966=FACE_BOUND('',#884,.T.);
#967=FACE_BOUND('',#885,.T.);
#968=FACE_BOUND('',#886,.T.);
#969=FACE_BOUND('',#887,.T.);
#970=FACE_BOUND('',#888,.T.);
#971=PLANE('',#1075);
#972=PLANE('',#1076);
#973=PLANE('',#1097);
#974=PLANE('',#1101);
#975=PLANE('',#1111);
#976=PLANE('',#1115);
#977=PLANE('',#1122);
#978=PLANE('',#1123);
#979=PLANE('',#1127);
#980=PLANE('',#1139);
#981=PLANE('',#1140);
#982=PLANE('',#1141);
#983=PLANE('',#1142);
#984=PLANE('',#1143);
#985=PLANE('',#1144);
#986=PLANE('',#1145);
#987=PLANE('',#1146);
#988=PLANE('',#1163);
#989=PLANE('',#1166);
#990=PLANE('',#1171);
#991=PLANE('',#1172);
#992=PLANE('',#1173);
#993=PLANE('',#1174);
#994=PLANE('',#1175);
#995=PLANE('',#1176);
#996=PLANE('',#1177);
#997=PLANE('',#1178);
#998=PLANE('',#1179);
#999=PLANE('',#1180);
#1000=PLANE('',#1181);
#1001=ADVANCED_FACE('',(#889),#971,.T.);
#1002=ADVANCED_FACE('',(#890),#972,.T.);
#1003=ADVANCED_FACE('',(#891,#892),#82,.F.);
#1004=ADVANCED_FACE('',(#893,#894),#83,.F.);
#1005=ADVANCED_FACE('',(#895,#896),#84,.F.);
#1006=ADVANCED_FACE('',(#897,#898),#85,.F.);
#1007=ADVANCED_FACE('',(#899),#86,.T.);
#1008=ADVANCED_FACE('',(#900),#87,.T.);
#1009=ADVANCED_FACE('',(#901),#88,.T.);
#1010=ADVANCED_FACE('',(#902),#89,.T.);
#1011=ADVANCED_FACE('',(#903),#973,.T.);
#1012=ADVANCED_FACE('',(#904,#905),#90,.F.);
#1013=ADVANCED_FACE('',(#906),#974,.F.);
#1014=ADVANCED_FACE('',(#907,#908),#91,.F.);
#1015=ADVANCED_FACE('',(#909,#910),#92,.F.);
#1016=ADVANCED_FACE('',(#911,#912),#93,.F.);
#1017=ADVANCED_FACE('',(#913),#975,.F.);
#1018=ADVANCED_FACE('',(#914),#94,.T.);
#1019=ADVANCED_FACE('',(#915),#976,.F.);
#1020=ADVANCED_FACE('',(#916),#95,.T.);
#1021=ADVANCED_FACE('',(#917),#96,.T.);
#1022=ADVANCED_FACE('',(#918),#977,.F.);
#1023=ADVANCED_FACE('',(#919),#978,.F.);
#1024=ADVANCED_FACE('',(#920),#97,.T.);
#1025=ADVANCED_FACE('',(#921,#922,#923,#924,#925,#926),#979,.T.);
#1026=ADVANCED_FACE('',(#927),#980,.F.);
#1027=ADVANCED_FACE('',(#928),#981,.T.);
#1028=ADVANCED_FACE('',(#929),#982,.T.);
#1029=ADVANCED_FACE('',(#930),#983,.F.);
#1030=ADVANCED_FACE('',(#931),#984,.F.);
#1031=ADVANCED_FACE('',(#932),#985,.T.);
#1032=ADVANCED_FACE('',(#933),#986,.F.);
#1033=ADVANCED_FACE('',(#934),#987,.T.);
#1034=ADVANCED_FACE('',(#935),#98,.F.);
#1035=ADVANCED_FACE('',(#936),#99,.F.);
#1036=ADVANCED_FACE('',(#937),#100,.F.);
#1037=ADVANCED_FACE('',(#938),#101,.F.);
#1038=ADVANCED_FACE('',(#939),#102,.F.);
#1039=ADVANCED_FACE('',(#940),#103,.F.);
#1040=ADVANCED_FACE('',(#941),#104,.F.);
#1041=ADVANCED_FACE('',(#942),#105,.F.);
#1042=ADVANCED_FACE('',(#943),#988,.F.);
#1043=ADVANCED_FACE('',(#944),#106,.T.);
#1044=ADVANCED_FACE('',(#945),#989,.T.);
#1045=ADVANCED_FACE('',(#946),#107,.F.);
#1046=ADVANCED_FACE('',(#947),#108,.F.);
#1047=ADVANCED_FACE('',(#948,#949),#990,.T.);
#1048=ADVANCED_FACE('',(#950,#951),#991,.T.);
#1049=ADVANCED_FACE('',(#952,#953),#992,.T.);
#1050=ADVANCED_FACE('',(#954,#955),#993,.T.);
#1051=ADVANCED_FACE('',(#956),#994,.T.);
#1052=ADVANCED_FACE('',(#957),#995,.T.);
#1053=ADVANCED_FACE('',(#958,#959,#960,#961,#962),#996,.T.);
#1054=ADVANCED_FACE('',(#963),#997,.F.);
#1055=ADVANCED_FACE('',(#964),#12,.T.);
#1056=ADVANCED_FACE('',(#965),#13,.T.);
#1057=ADVANCED_FACE('',(#966),#998,.F.);
#1058=ADVANCED_FACE('',(#967),#999,.F.);
#1059=ADVANCED_FACE('',(#968),#14,.T.);
#1060=ADVANCED_FACE('',(#969),#15,.T.);
#1061=ADVANCED_FACE('',(#970),#1000,.F.);
#1062=CLOSED_SHELL('',(#1001,#1002,#1003,#1004,#1005,#1006,#1007,#1008,
#1009,#1010,#1011,#1012,#1013,#1014,#1015,#1016,#1017,#1018,#1019,#1020,
#1021,#1022,#1023,#1024,#1025,#1026,#1027,#1028,#1029,#1030,#1031,#1032,
#1033,#1034,#1035,#1036,#1037,#1038,#1039,#1040,#1041,#1042,#1043,#1044,
#1045,#1046,#1047,#1048,#1049,#1050,#1051,#1052,#1053,#1054,#1055,#1056,
#1057,#1058,#1059,#1060,#1061));
#1063=STYLED_ITEM('',(#1064),#1071);
#1064=PRESENTATION_STYLE_ASSIGNMENT((#1065));
#1065=SURFACE_STYLE_USAGE(.BOTH.,#1066);
#1066=SURFACE_SIDE_STYLE('',(#1067));
#1067=SURFACE_STYLE_FILL_AREA(#1068);
#1068=FILL_AREA_STYLE('',(#1069));
#1069=FILL_AREA_STYLE_COLOUR('',#1070);
#1070=COLOUR_RGB('',0.901960784313726,0.901960784313726,0.901960784313726);
#1071=MANIFOLD_SOLID_BREP('Part 1',#1062);
#1072=SHAPE_DEFINITION_REPRESENTATION(#1896,#1073);
#1073=SHAPE_REPRESENTATION('Part 1',(#1074),#1891);
#1074=AXIS2_PLACEMENT_3D('',#1478,#1182,#1183);
#1075=AXIS2_PLACEMENT_3D('',#1479,#1184,#1185);
#1076=AXIS2_PLACEMENT_3D('',#1488,#1190,#1191);
#1077=AXIS2_PLACEMENT_3D('',#1497,#1196,#1197);
#1078=AXIS2_PLACEMENT_3D('',#1498,#1198,#1199);
#1079=AXIS2_PLACEMENT_3D('',#1500,#1200,#1201);
#1080=AXIS2_PLACEMENT_3D('',#1502,#1202,#1203);
#1081=AXIS2_PLACEMENT_3D('',#1503,#1204,#1205);
#1082=AXIS2_PLACEMENT_3D('',#1505,#1206,#1207);
#1083=AXIS2_PLACEMENT_3D('',#1507,#1208,#1209);
#1084=AXIS2_PLACEMENT_3D('',#1508,#1210,#1211);
#1085=AXIS2_PLACEMENT_3D('',#1510,#1212,#1213);
#1086=AXIS2_PLACEMENT_3D('',#1512,#1214,#1215);
#1087=AXIS2_PLACEMENT_3D('',#1513,#1216,#1217);
#1088=AXIS2_PLACEMENT_3D('',#1515,#1218,#1219);
#1089=AXIS2_PLACEMENT_3D('',#1517,#1220,#1221);
#1090=AXIS2_PLACEMENT_3D('',#1530,#1224,#1225);
#1091=AXIS2_PLACEMENT_3D('',#1531,#1226,#1227);
#1092=AXIS2_PLACEMENT_3D('',#1541,#1229,#1230);
#1093=AXIS2_PLACEMENT_3D('',#1542,#1231,#1232);
#1094=AXIS2_PLACEMENT_3D('',#1549,#1233,#1234);
#1095=AXIS2_PLACEMENT_3D('',#1550,#1235,#1236);
#1096=AXIS2_PLACEMENT_3D('',#1560,#1238,#1239);
#1097=AXIS2_PLACEMENT_3D('',#1561,#1240,#1241);
#1098=AXIS2_PLACEMENT_3D('',#1564,#1244,#1245);
#1099=AXIS2_PLACEMENT_3D('',#1565,#1246,#1247);
#1100=AXIS2_PLACEMENT_3D('',#1567,#1248,#1249);
#1101=AXIS2_PLACEMENT_3D('',#1569,#1250,#1251);
#1102=AXIS2_PLACEMENT_3D('',#1578,#1256,#1257);
#1103=AXIS2_PLACEMENT_3D('',#1579,#1258,#1259);
#1104=AXIS2_PLACEMENT_3D('',#1581,#1260,#1261);
#1105=AXIS2_PLACEMENT_3D('',#1583,#1262,#1263);
#1106=AXIS2_PLACEMENT_3D('',#1584,#1264,#1265);
#1107=AXIS2_PLACEMENT_3D('',#1586,#1266,#1267);
#1108=AXIS2_PLACEMENT_3D('',#1588,#1268,#1269);
#1109=AXIS2_PLACEMENT_3D('',#1589,#1270,#1271);
#1110=AXIS2_PLACEMENT_3D('',#1591,#1272,#1273);
#1111=AXIS2_PLACEMENT_3D('',#1593,#1274,#1275);
#1112=AXIS2_PLACEMENT_3D('',#1602,#1280,#1281);
#1113=AXIS2_PLACEMENT_3D('',#1606,#1283,#1284);
#1114=AXIS2_PLACEMENT_3D('',#1610,#1286,#1287);
#1115=AXIS2_PLACEMENT_3D('',#1611,#1288,#1289);
#1116=AXIS2_PLACEMENT_3D('',#1620,#1294,#1295);
#1117=AXIS2_PLACEMENT_3D('',#1624,#1297,#1298);
#1118=AXIS2_PLACEMENT_3D('',#1628,#1300,#1301);
#1119=AXIS2_PLACEMENT_3D('',#1629,#1302,#1303);
#1120=AXIS2_PLACEMENT_3D('',#1633,#1305,#1306);
#1121=AXIS2_PLACEMENT_3D('',#1637,#1308,#1309);
#1122=AXIS2_PLACEMENT_3D('',#1638,#1310,#1311);
#1123=AXIS2_PLACEMENT_3D('',#1647,#1316,#1317);
#1124=AXIS2_PLACEMENT_3D('',#1656,#1322,#1323);
#1125=AXIS2_PLACEMENT_3D('',#1660,#1325,#1326);
#1126=AXIS2_PLACEMENT_3D('',#1664,#1328,#1329);
#1127=AXIS2_PLACEMENT_3D('',#1665,#1330,#1331);
#1128=AXIS2_PLACEMENT_3D('',#1668,#1333,#1334);
#1129=AXIS2_PLACEMENT_3D('',#1669,#1335,#1336);
#1130=AXIS2_PLACEMENT_3D('',#1674,#1339,#1340);
#1131=AXIS2_PLACEMENT_3D('',#1675,#1341,#1342);
#1132=AXIS2_PLACEMENT_3D('',#1679,#1344,#1345);
#1133=AXIS2_PLACEMENT_3D('',#1683,#1347,#1348);
#1134=AXIS2_PLACEMENT_3D('',#1684,#1349,#1350);
#1135=AXIS2_PLACEMENT_3D('',#1689,#1353,#1354);
#1136=AXIS2_PLACEMENT_3D('',#1690,#1355,#1356);
#1137=AXIS2_PLACEMENT_3D('',#1695,#1359,#1360);
#1138=AXIS2_PLACEMENT_3D('',#1696,#1361,#1362);
#1139=AXIS2_PLACEMENT_3D('',#1700,#1365,#1366);
#1140=AXIS2_PLACEMENT_3D('',#1704,#1369,#1370);
#1141=AXIS2_PLACEMENT_3D('',#1708,#1373,#1374);
#1142=AXIS2_PLACEMENT_3D('',#1712,#1377,#1378);
#1143=AXIS2_PLACEMENT_3D('',#1716,#1381,#1382);
#1144=AXIS2_PLACEMENT_3D('',#1720,#1385,#1386);
#1145=AXIS2_PLACEMENT_3D('',#1724,#1389,#1390);
#1146=AXIS2_PLACEMENT_3D('',#1728,#1393,#1394);
#1147=AXIS2_PLACEMENT_3D('',#1732,#1397,#1398);
#1148=AXIS2_PLACEMENT_3D('',#1733,#1399,#1400);
#1149=AXIS2_PLACEMENT_3D('',#1734,#1401,#1402);
#1150=AXIS2_PLACEMENT_3D('',#1735,#1403,#1404);
#1151=AXIS2_PLACEMENT_3D('',#1736,#1405,#1406);
#1152=AXIS2_PLACEMENT_3D('',#1737,#1407,#1408);
#1153=AXIS2_PLACEMENT_3D('',#1738,#1409,#1410);
#1154=AXIS2_PLACEMENT_3D('',#1739,#1411,#1412);
#1155=AXIS2_PLACEMENT_3D('',#1740,#1413,#1414);
#1156=AXIS2_PLACEMENT_3D('',#1741,#1415,#1416);
#1157=AXIS2_PLACEMENT_3D('',#1742,#1417,#1418);
#1158=AXIS2_PLACEMENT_3D('',#1743,#1419,#1420);
#1159=AXIS2_PLACEMENT_3D('',#1744,#1421,#1422);
#1160=AXIS2_PLACEMENT_3D('',#1745,#1423,#1424);
#1161=AXIS2_PLACEMENT_3D('',#1746,#1425,#1426);
#1162=AXIS2_PLACEMENT_3D('',#1747,#1427,#1428);
#1163=AXIS2_PLACEMENT_3D('',#1748,#1429,#1430);
#1164=AXIS2_PLACEMENT_3D('',#1754,#1434,#1435);
#1165=AXIS2_PLACEMENT_3D('',#1757,#1437,#1438);
#1166=AXIS2_PLACEMENT_3D('',#1758,#1439,#1440);
#1167=AXIS2_PLACEMENT_3D('',#1762,#1443,#1444);
#1168=AXIS2_PLACEMENT_3D('',#1763,#1445,#1446);
#1169=AXIS2_PLACEMENT_3D('',#1764,#1447,#1448);
#1170=AXIS2_PLACEMENT_3D('',#1765,#1449,#1450);
#1171=AXIS2_PLACEMENT_3D('',#1766,#1451,#1452);
#1172=AXIS2_PLACEMENT_3D('',#1767,#1453,#1454);
#1173=AXIS2_PLACEMENT_3D('',#1768,#1455,#1456);
#1174=AXIS2_PLACEMENT_3D('',#1769,#1457,#1458);
#1175=AXIS2_PLACEMENT_3D('',#1770,#1459,#1460);
#1176=AXIS2_PLACEMENT_3D('',#1772,#1462,#1463);
#1177=AXIS2_PLACEMENT_3D('',#1773,#1464,#1465);
#1178=AXIS2_PLACEMENT_3D('',#1806,#1470,#1471);
#1179=AXIS2_PLACEMENT_3D('',#1847,#1472,#1473);
#1180=AXIS2_PLACEMENT_3D('',#1852,#1474,#1475);
#1181=AXIS2_PLACEMENT_3D('',#1889,#1476,#1477);
#1182=DIRECTION('',(0.,0.,1.));
#1183=DIRECTION('',(1.,0.,0.));
#1184=DIRECTION('',(0.,-1.,0.));
#1185=DIRECTION('',(0.,0.,-1.));
#1186=DIRECTION('',(0.,0.,-1.));
#1187=DIRECTION('',(0.999699033137159,0.,-0.0245324916107279));
#1188=DIRECTION('',(0.,0.,-1.));
#1189=DIRECTION('',(-1.,0.,0.));
#1190=DIRECTION('',(-1.,0.,0.));
#1191=DIRECTION('',(0.,0.,1.));
#1192=DIRECTION('',(0.,0.,-1.));
#1193=DIRECTION('',(0.,-1.,0.));
#1194=DIRECTION('',(0.,0.,-1.));
#1195=DIRECTION('',(0.,1.,0.));
#1196=DIRECTION('',(0.,0.,-1.));
#1197=DIRECTION('',(-1.,0.,0.));
#1198=DIRECTION('',(0.,0.,-1.));
#1199=DIRECTION('',(-1.,0.,0.));
#1200=DIRECTION('',(-0.0245324916107279,0.,-0.999699033137159));
#1201=DIRECTION('',(0.999699033137158,0.,-0.0245324916107278));
#1202=DIRECTION('',(0.,0.,-1.));
#1203=DIRECTION('',(-1.,0.,0.));
#1204=DIRECTION('',(0.,0.,-1.));
#1205=DIRECTION('',(-1.,0.,0.));
#1206=DIRECTION('',(-0.0245324916107279,0.,-0.999699033137159));
#1207=DIRECTION('',(0.999699033137158,0.,-0.0245324916107278));
#1208=DIRECTION('',(0.,0.,-1.));
#1209=DIRECTION('',(-1.,0.,0.));
#1210=DIRECTION('',(0.,0.,-1.));
#1211=DIRECTION('',(-1.,0.,0.));
#1212=DIRECTION('',(-0.0245324916107279,0.,-0.999699033137159));
#1213=DIRECTION('',(0.999699033137158,0.,-0.0245324916107278));
#1214=DIRECTION('',(0.,0.,-1.));
#1215=DIRECTION('',(-1.,0.,0.));
#1216=DIRECTION('',(0.,0.,-1.));
#1217=DIRECTION('',(-1.,0.,0.));
#1218=DIRECTION('',(-0.0245324916107279,0.,-0.999699033137159));
#1219=DIRECTION('',(0.999699033137158,0.,-0.0245324916107278));
#1220=DIRECTION('',(0.,0.,-1.));
#1221=DIRECTION('',(-1.,0.,0.));
#1222=DIRECTION('',(0.,0.,-1.));
#1223=DIRECTION('',(0.,0.,-1.));
#1224=DIRECTION('',(0.,0.,-1.));
#1225=DIRECTION('',(-1.,0.,0.));
#1226=DIRECTION('',(0.,0.,-1.));
#1227=DIRECTION('',(-1.,0.,0.));
#1228=DIRECTION('',(0.,0.,-1.));
#1229=DIRECTION('',(0.,0.,-1.));
#1230=DIRECTION('',(-1.,0.,0.));
#1231=DIRECTION('',(0.,0.,-1.));
#1232=DIRECTION('',(-1.,0.,0.));
#1233=DIRECTION('',(0.,0.,-1.));
#1234=DIRECTION('',(-1.,0.,0.));
#1235=DIRECTION('',(0.,0.,-1.));
#1236=DIRECTION('',(-1.,0.,0.));
#1237=DIRECTION('',(0.,0.,-1.));
#1238=DIRECTION('',(0.,0.,-1.));
#1239=DIRECTION('',(-1.,0.,0.));
#1240=DIRECTION('',(0.,1.,0.));
#1241=DIRECTION('',(0.,0.,1.));
#1242=DIRECTION('',(-0.999699033137159,0.,0.0245324916107279));
#1243=DIRECTION('',(1.,0.,0.));
#1244=DIRECTION('',(0.,0.,1.));
#1245=DIRECTION('',(1.,0.,0.));
#1246=DIRECTION('',(0.,0.,1.));
#1247=DIRECTION('',(1.,0.,0.));
#1248=DIRECTION('',(0.,0.,1.));
#1249=DIRECTION('',(1.,0.,0.));
#1250=DIRECTION('',(0.,1.,0.));
#1251=DIRECTION('',(0.,0.,1.));
#1252=DIRECTION('',(0.,0.,1.));
#1253=DIRECTION('',(1.,0.,0.));
#1254=DIRECTION('',(0.,0.,-1.));
#1255=DIRECTION('',(1.,0.,0.));
#1256=DIRECTION('',(0.,0.,1.));
#1257=DIRECTION('',(1.,0.,0.));
#1258=DIRECTION('',(0.,0.,1.));
#1259=DIRECTION('',(1.,0.,0.));
#1260=DIRECTION('',(0.,0.,1.));
#1261=DIRECTION('',(1.,0.,0.));
#1262=DIRECTION('',(0.,0.,1.));
#1263=DIRECTION('',(1.,0.,0.));
#1264=DIRECTION('',(0.,0.,1.));
#1265=DIRECTION('',(1.,0.,0.));
#1266=DIRECTION('',(0.,0.,1.));
#1267=DIRECTION('',(1.,0.,0.));
#1268=DIRECTION('',(0.,0.,1.));
#1269=DIRECTION('',(1.,0.,0.));
#1270=DIRECTION('',(0.,0.,1.));
#1271=DIRECTION('',(1.,0.,0.));
#1272=DIRECTION('',(0.,0.,1.));
#1273=DIRECTION('',(1.,0.,0.));
#1274=DIRECTION('',(0.,-1.,0.));
#1275=DIRECTION('',(0.,0.,-1.));
#1276=DIRECTION('',(0.,0.,1.));
#1277=DIRECTION('',(-1.,0.,0.));
#1278=DIRECTION('',(0.,0.,1.));
#1279=DIRECTION('',(-1.,0.,0.));
#1280=DIRECTION('',(0.,0.,-1.));
#1281=DIRECTION('',(-1.,0.,0.));
#1282=DIRECTION('',(0.,0.,1.));
#1283=DIRECTION('',(0.,0.,1.));
#1284=DIRECTION('',(1.,0.,0.));
#1285=DIRECTION('',(0.,0.,1.));
#1286=DIRECTION('',(0.,0.,1.));
#1287=DIRECTION('',(1.,0.,0.));
#1288=DIRECTION('',(-1.,0.,0.));
#1289=DIRECTION('',(0.,0.,1.));
#1290=DIRECTION('',(0.,1.,0.));
#1291=DIRECTION('',(0.,0.,1.));
#1292=DIRECTION('',(0.,1.,0.));
#1293=DIRECTION('',(0.,0.,1.));
#1294=DIRECTION('',(0.,0.,-1.));
#1295=DIRECTION('',(-1.,0.,0.));
#1296=DIRECTION('',(0.,0.,1.));
#1297=DIRECTION('',(0.,0.,1.));
#1298=DIRECTION('',(1.,0.,0.));
#1299=DIRECTION('',(0.,0.,1.));
#1300=DIRECTION('',(0.,0.,1.));
#1301=DIRECTION('',(1.,0.,0.));
#1302=DIRECTION('',(0.,0.,-1.));
#1303=DIRECTION('',(-1.,0.,0.));
#1304=DIRECTION('',(0.,0.,1.));
#1305=DIRECTION('',(0.,0.,1.));
#1306=DIRECTION('',(1.,0.,0.));
#1307=DIRECTION('',(0.,0.,1.));
#1308=DIRECTION('',(0.,0.,1.));
#1309=DIRECTION('',(1.,0.,0.));
#1310=DIRECTION('',(0.,1.,0.));
#1311=DIRECTION('',(0.,0.,1.));
#1312=DIRECTION('',(1.,0.,0.));
#1313=DIRECTION('',(0.,0.,-1.));
#1314=DIRECTION('',(1.,0.,0.));
#1315=DIRECTION('',(0.,0.,1.));
#1316=DIRECTION('',(1.,0.,0.));
#1317=DIRECTION('',(0.,0.,-1.));
#1318=DIRECTION('',(0.,0.,1.));
#1319=DIRECTION('',(0.,-1.,0.));
#1320=DIRECTION('',(0.,0.,1.));
#1321=DIRECTION('',(0.,-1.,0.));
#1322=DIRECTION('',(0.,0.,-1.));
#1323=DIRECTION('',(-1.,0.,0.));
#1324=DIRECTION('',(0.,0.,1.));
#1325=DIRECTION('',(0.,0.,1.));
#1326=DIRECTION('',(1.,0.,0.));
#1327=DIRECTION('',(0.,0.,1.));
#1328=DIRECTION('',(0.,0.,1.));
#1329=DIRECTION('',(1.,0.,0.));
#1330=DIRECTION('',(0.,0.,1.));
#1331=DIRECTION('',(1.,0.,0.));
#1332=DIRECTION('',(-1.,0.,0.));
#1333=DIRECTION('',(0.,0.,1.));
#1334=DIRECTION('',(1.,0.,0.));
#1335=DIRECTION('',(0.,0.,1.));
#1336=DIRECTION('',(1.,0.,0.));
#1337=DIRECTION('',(-1.,0.,0.));
#1338=DIRECTION('',(0.,1.,0.));
#1339=DIRECTION('',(0.,0.,1.));
#1340=DIRECTION('',(1.,0.,0.));
#1341=DIRECTION('',(0.,0.,1.));
#1342=DIRECTION('',(1.,0.,0.));
#1343=DIRECTION('',(0.,1.,0.));
#1344=DIRECTION('',(0.,0.,1.));
#1345=DIRECTION('',(1.,0.,0.));
#1346=DIRECTION('',(0.,1.,0.));
#1347=DIRECTION('',(0.,0.,1.));
#1348=DIRECTION('',(1.,0.,0.));
#1349=DIRECTION('',(0.,0.,1.));
#1350=DIRECTION('',(1.,0.,0.));
#1351=DIRECTION('',(0.,1.,0.));
#1352=DIRECTION('',(1.,0.,0.));
#1353=DIRECTION('',(0.,0.,1.));
#1354=DIRECTION('',(1.,0.,0.));
#1355=DIRECTION('',(0.,0.,1.));
#1356=DIRECTION('',(1.,0.,0.));
#1357=DIRECTION('',(1.,0.,0.));
#1358=DIRECTION('',(0.,-1.,0.));
#1359=DIRECTION('',(0.,0.,1.));
#1360=DIRECTION('',(1.,0.,0.));
#1361=DIRECTION('',(0.,0.,1.));
#1362=DIRECTION('',(1.,0.,0.));
#1363=DIRECTION('',(0.,-1.,0.));
#1364=DIRECTION('',(0.,-1.,0.));
#1365=DIRECTION('',(1.,0.,0.));
#1366=DIRECTION('',(0.,0.,-1.));
#1367=DIRECTION('',(0.,0.,1.));
#1368=DIRECTION('',(0.,-1.,0.));
#1369=DIRECTION('',(0.,-1.,0.));
#1370=DIRECTION('',(0.,0.,-1.));
#1371=DIRECTION('',(-1.,0.,0.));
#1372=DIRECTION('',(0.,0.,1.));
#1373=DIRECTION('',(1.,0.,0.));
#1374=DIRECTION('',(0.,0.,-1.));
#1375=DIRECTION('',(0.,-1.,0.));
#1376=DIRECTION('',(0.,0.,1.));
#1377=DIRECTION('',(0.,-1.,0.));
#1378=DIRECTION('',(0.,0.,-1.));
#1379=DIRECTION('',(0.,0.,1.));
#1380=DIRECTION('',(-1.,0.,0.));
#1381=DIRECTION('',(0.,1.,0.));
#1382=DIRECTION('',(0.,0.,1.));
#1383=DIRECTION('',(0.,0.,1.));
#1384=DIRECTION('',(1.,0.,0.));
#1385=DIRECTION('',(0.,1.,0.));
#1386=DIRECTION('',(0.,0.,1.));
#1387=DIRECTION('',(1.,0.,0.));
#1388=DIRECTION('',(0.,0.,1.));
#1389=DIRECTION('',(-1.,0.,0.));
#1390=DIRECTION('',(0.,0.,1.));
#1391=DIRECTION('',(0.,0.,1.));
#1392=DIRECTION('',(0.,1.,0.));
#1393=DIRECTION('',(-1.,0.,0.));
#1394=DIRECTION('',(0.,0.,1.));
#1395=DIRECTION('',(0.,1.,0.));
#1396=DIRECTION('',(0.,0.,1.));
#1397=DIRECTION('',(0.,0.,1.));
#1398=DIRECTION('',(1.,0.,0.));
#1399=DIRECTION('',(0.,0.,1.));
#1400=DIRECTION('',(1.,0.,0.));
#1401=DIRECTION('',(0.,0.,-1.));
#1402=DIRECTION('',(-1.,0.,0.));
#1403=DIRECTION('',(0.,0.,1.));
#1404=DIRECTION('',(1.,0.,0.));
#1405=DIRECTION('',(0.,0.,-1.));
#1406=DIRECTION('',(-1.,0.,0.));
#1407=DIRECTION('',(0.,0.,1.));
#1408=DIRECTION('',(1.,0.,0.));
#1409=DIRECTION('',(0.,0.,1.));
#1410=DIRECTION('',(1.,0.,0.));
#1411=DIRECTION('',(0.,0.,1.));
#1412=DIRECTION('',(1.,0.,0.));
#1413=DIRECTION('',(0.,0.,1.));
#1414=DIRECTION('',(1.,0.,0.));
#1415=DIRECTION('',(0.,0.,1.));
#1416=DIRECTION('',(1.,0.,0.));
#1417=DIRECTION('',(0.,0.,-1.));
#1418=DIRECTION('',(-1.,0.,0.));
#1419=DIRECTION('',(0.,0.,1.));
#1420=DIRECTION('',(1.,0.,0.));
#1421=DIRECTION('',(0.,0.,1.));
#1422=DIRECTION('',(1.,0.,0.));
#1423=DIRECTION('',(0.,0.,1.));
#1424=DIRECTION('',(1.,0.,0.));
#1425=DIRECTION('',(0.,0.,-1.));
#1426=DIRECTION('',(-1.,0.,0.));
#1427=DIRECTION('',(0.,0.,1.));
#1428=DIRECTION('',(1.,0.,0.));
#1429=DIRECTION('',(-1.,0.,0.));
#1430=DIRECTION('',(0.,0.,1.));
#1431=DIRECTION('',(0.,0.,-1.));
#1432=DIRECTION('',(0.,1.,0.));
#1433=DIRECTION('',(0.,0.,-1.));
#1434=DIRECTION('',(0.,0.,-1.));
#1435=DIRECTION('',(-1.,0.,0.));
#1436=DIRECTION('',(0.,0.,-1.));
#1437=DIRECTION('',(0.,0.,1.));
#1438=DIRECTION('',(1.,0.,0.));
#1439=DIRECTION('',(-1.,0.,0.));
#1440=DIRECTION('',(0.,0.,1.));
#1441=DIRECTION('',(0.,0.,-1.));
#1442=DIRECTION('',(0.,1.,0.));
#1443=DIRECTION('',(0.,0.,1.));
#1444=DIRECTION('',(1.,0.,0.));
#1445=DIRECTION('',(0.,0.,1.));
#1446=DIRECTION('',(1.,0.,0.));
#1447=DIRECTION('',(0.,0.,-1.));
#1448=DIRECTION('',(-1.,0.,0.));
#1449=DIRECTION('',(0.,0.,1.));
#1450=DIRECTION('',(1.,0.,0.));
#1451=DIRECTION('',(0.,0.,-1.));
#1452=DIRECTION('',(1.,0.,0.));
#1453=DIRECTION('',(0.,0.,-1.));
#1454=DIRECTION('',(1.,0.,0.));
#1455=DIRECTION('',(0.,0.,-1.));
#1456=DIRECTION('',(1.,0.,0.));
#1457=DIRECTION('',(0.,0.,-1.));
#1458=DIRECTION('',(1.,0.,0.));
#1459=DIRECTION('',(1.,0.,0.));
#1460=DIRECTION('',(0.,0.,-1.));
#1461=DIRECTION('',(0.,1.,0.));
#1462=DIRECTION('',(0.,0.,1.));
#1463=DIRECTION('',(1.,0.,0.));
#1464=DIRECTION('',(-0.0245324916107279,0.,-0.999699033137159));
#1465=DIRECTION('',(-0.999699033137158,0.,0.0245324916107278));
#1466=DIRECTION('',(0.,-1.,0.));
#1467=DIRECTION('',(-0.999699033137158,0.,0.0245324916107278));
#1468=DIRECTION('',(0.,1.,0.));
#1469=DIRECTION('',(0.999699033137158,0.,-0.0245324916107278));
#1470=DIRECTION('',(0.715727773532203,0.,0.698379376982622));
#1471=DIRECTION('',(0.,-1.,0.));
#1472=DIRECTION('',(0.0173470911773477,-0.707106781186548,0.70689396547692));
#1473=DIRECTION('',(-0.999699033137158,0.,0.0245324916107278));
#1474=DIRECTION('',(0.0173470911773477,0.707106781186548,0.70689396547692));
#1475=DIRECTION('',(0.999699033137158,0.,-0.0245324916107278));
#1476=DIRECTION('',(-0.698379376982622,0.,0.715727773532203));
#1477=DIRECTION('',(0.,-1.,0.));
#1478=CARTESIAN_POINT('',(0.,0.,0.));
#1479=CARTESIAN_POINT('',(-0.000360721194557885,-0.0554823143467307,0.005));
#1480=CARTESIAN_POINT('',(-0.0371107211945579,-0.0554823143467307,0.005));
#1481=CARTESIAN_POINT('',(-0.0371107211945579,-0.0554823143467307,0.005));
#1482=CARTESIAN_POINT('',(-0.0371107211945579,-0.0554823143467307,0.00190244260573986));
#1483=CARTESIAN_POINT('',(-0.00045880686019857,-0.0554823143467307,0.0010030091251421));
#1484=CARTESIAN_POINT('',(0.0363892788054421,-0.0554823143467307,9.87616241447846E-5));
#1485=CARTESIAN_POINT('',(0.0363892788054421,-0.0554823143467307,0.005));
#1486=CARTESIAN_POINT('',(0.0363892788054421,-0.0554823143467307,0.005));
#1487=CARTESIAN_POINT('',(-0.000360721194557885,-0.0554823143467307,0.005));
#1488=CARTESIAN_POINT('',(-0.0411107211945579,1.76856532692893E-5,0.005));
#1489=CARTESIAN_POINT('',(-0.0411107211945579,0.0515176856532693,0.005));
#1490=CARTESIAN_POINT('',(-0.0411107211945579,0.0515176856532693,0.005));
#1491=CARTESIAN_POINT('',(-0.0411107211945579,0.0515176856532693,0.00195152236034109));
#1492=CARTESIAN_POINT('',(-0.0411107211945579,1.76856532692893E-5,0.00195152236034111));
#1493=CARTESIAN_POINT('',(-0.0411107211945579,-0.0514823143467307,0.00195152236034111));
#1494=CARTESIAN_POINT('',(-0.0411107211945579,-0.0514823143467307,0.005));
#1495=CARTESIAN_POINT('',(-0.0411107211945579,-0.0514823143467307,0.005));
#1496=CARTESIAN_POINT('',(-0.0411107211945579,1.76856532692893E-5,0.005));
#1497=CARTESIAN_POINT('',(-0.0300107211945579,-0.0482823143467307,0.003));
#1498=CARTESIAN_POINT('',(-0.0300107211945579,-0.0482823143467307,0.0025));
#1499=CARTESIAN_POINT('',(-0.0330107211945579,-0.0482823143467307,0.0025));
#1500=CARTESIAN_POINT('',(-0.0300107211945579,-0.0482823143467307,-0.00027239263803681));
#1501=CARTESIAN_POINT('',(-0.0270107211945579,-0.0482823143467307,-0.000346012269938651));
#1502=CARTESIAN_POINT('',(0.0346892788054421,-0.0482823143467307,0.003));
#1503=CARTESIAN_POINT('',(0.0346892788054421,-0.0482823143467307,0.0025));
#1504=CARTESIAN_POINT('',(0.0316892788054421,-0.0482823143467307,0.0025));
#1505=CARTESIAN_POINT('',(0.0346892788054421,-0.0482823143467307,-0.00186012269938651));
#1506=CARTESIAN_POINT('',(0.0376892788054421,-0.0482823143467307,-0.00193374233128835));
#1507=CARTESIAN_POINT('',(0.0346892788054421,0.0483176856532693,0.003));
#1508=CARTESIAN_POINT('',(0.0346892788054421,0.0483176856532693,0.0025));
#1509=CARTESIAN_POINT('',(0.0316892788054421,0.0483176856532693,0.0025));
#1510=CARTESIAN_POINT('',(0.0346892788054421,0.0483176856532693,-0.00186012269938651));
#1511=CARTESIAN_POINT('',(0.0376892788054421,0.0483176856532693,-0.00193374233128835));
#1512=CARTESIAN_POINT('',(0.00708927880544212,0.0482176856532693,0.0025));
#1513=CARTESIAN_POINT('',(0.00708927880544212,0.0482176856532693,0.0025));
#1514=CARTESIAN_POINT('',(0.00408927880544212,0.0482176856532693,0.0025));
#1515=CARTESIAN_POINT('',(0.00708927880544212,0.0482176856532693,-0.00118282208588957));
#1516=CARTESIAN_POINT('',(0.0100892788054421,0.0482176856532693,-0.00125644171779141));
#1517=CARTESIAN_POINT('',(0.0363892788054421,0.0515176856532693,0.005));
#1518=CARTESIAN_POINT('',(0.0403892788054421,0.0515176856532693,0.005));
#1519=CARTESIAN_POINT('',(0.0403892788054421,0.0515176856532693,0.005));
#1520=CARTESIAN_POINT('',(0.0403892788054421,0.0515176856532693,4.96818695435554E-5));
#1521=CARTESIAN_POINT('',(0.0403892788054421,0.0515176856532693,4.96818695435502E-5));
#1522=CARTESIAN_POINT('',(0.0403892788054421,0.0522756760924417,4.96441845142601E-5));
#1523=CARTESIAN_POINT('',(0.0400481412886066,0.0536790708646437,5.57508900674449E-5));
#1524=CARTESIAN_POINT('',(0.0383117182009759,0.0551796934365523,7.62196303326042E-5));
#1525=CARTESIAN_POINT('',(0.0370574811370525,0.0555176856532693,9.05628225299302E-5));
#1526=CARTESIAN_POINT('',(0.0363892788054421,0.0555176856532693,9.87616241447803E-5));
#1527=CARTESIAN_POINT('',(0.0363892788054421,0.0555176856532693,9.87616241447872E-5));
#1528=CARTESIAN_POINT('',(0.0363892788054421,0.0555176856532693,0.005));
#1529=CARTESIAN_POINT('',(0.0363892788054421,0.0555176856532693,0.005));
#1530=CARTESIAN_POINT('',(0.0363892788054421,0.0515176856532693,0.005));
#1531=CARTESIAN_POINT('',(0.0363892788054421,-0.0514823143467307,0.005));
#1532=CARTESIAN_POINT('',(0.0363892788054421,-0.0554823143467307,9.87616241447803E-5));
#1533=CARTESIAN_POINT('',(0.0370574811370525,-0.0554823143467307,9.05628225299286E-5));
#1534=CARTESIAN_POINT('',(0.038311718200976,-0.0551443221300137,7.62196303326011E-5));
#1535=CARTESIAN_POINT('',(0.0400481412886067,-0.053643699558105,5.57508900674429E-5));
#1536=CARTESIAN_POINT('',(0.0403892788054421,-0.0522403047859031,4.96441845142638E-5));
#1537=CARTESIAN_POINT('',(0.0403892788054421,-0.0514823143467307,4.96818695435606E-5));
#1538=CARTESIAN_POINT('',(0.0403892788054421,-0.0514823143467307,4.96818695435225E-5));
#1539=CARTESIAN_POINT('',(0.0403892788054421,-0.0514823143467307,0.005));
#1540=CARTESIAN_POINT('',(0.0403892788054421,-0.0514823143467307,0.005));
#1541=CARTESIAN_POINT('',(0.0363892788054421,-0.0514823143467307,0.005));
#1542=CARTESIAN_POINT('',(-0.0371107211945578,-0.0514823143467307,0.005));
#1543=CARTESIAN_POINT('',(-0.0411107211945578,-0.0514823143467307,0.0019515223603411));
#1544=CARTESIAN_POINT('',(-0.0411107211945579,-0.0522403047859031,0.00195156004537039));
#1545=CARTESIAN_POINT('',(-0.0407695836777224,-0.0536436995581051,0.00194545333981721));
#1546=CARTESIAN_POINT('',(-0.0390331605900916,-0.0551443221300137,0.00192498459955205));
#1547=CARTESIAN_POINT('',(-0.0377789235261682,-0.0554823143467307,0.00191064140735473));
#1548=CARTESIAN_POINT('',(-0.0371107211945578,-0.0554823143467307,0.00190244260573988));
#1549=CARTESIAN_POINT('',(-0.0371107211945578,-0.0514823143467307,0.005));
#1550=CARTESIAN_POINT('',(-0.0371107211945579,0.0515176856532693,0.005));
#1551=CARTESIAN_POINT('',(-0.0371107211945579,0.0555176856532693,0.005));
#1552=CARTESIAN_POINT('',(-0.0371107211945579,0.0555176856532693,0.005));
#1553=CARTESIAN_POINT('',(-0.0371107211945579,0.0555176856532693,0.00190244260573987));
#1554=CARTESIAN_POINT('',(-0.0371107211945579,0.0555176856532693,0.00190244260573988));
#1555=CARTESIAN_POINT('',(-0.0377789235261683,0.0555176856532693,0.00191064140735473));
#1556=CARTESIAN_POINT('',(-0.0390331605900916,0.0551796934365523,0.00192498459955205));
#1557=CARTESIAN_POINT('',(-0.0407695836777223,0.0536790708646438,0.00194545333981721));
#1558=CARTESIAN_POINT('',(-0.0411107211945579,0.0522756760924418,0.00195156004537039));
#1559=CARTESIAN_POINT('',(-0.0411107211945579,0.0515176856532693,0.0019515223603411));
#1560=CARTESIAN_POINT('',(-0.0371107211945579,0.0515176856532693,0.005));
#1561=CARTESIAN_POINT('',(-0.000360721194557878,0.0555176856532693,0.005));
#1562=CARTESIAN_POINT('',(-0.000458806860198563,0.0555176856532693,0.0010030091251421));
#1563=CARTESIAN_POINT('',(-0.000360721194557878,0.0555176856532693,0.005));
#1564=CARTESIAN_POINT('',(0.00708927880544212,0.0482176856532693,-0.023));
#1565=CARTESIAN_POINT('',(0.00708927880544212,0.0482176856532693,0.005));
#1566=CARTESIAN_POINT('',(0.00868927880544212,0.0482176856532693,0.005));
#1567=CARTESIAN_POINT('',(0.00708927880544212,0.0482176856532693,0.0025));
#1568=CARTESIAN_POINT('',(0.00868927880544212,0.0482176856532693,0.0025));
#1569=CARTESIAN_POINT('',(0.00233927880547213,0.0520176856532693,0.005));
#1570=CARTESIAN_POINT('',(-0.0243107232444148,0.0520176856532693,0.005));
#1571=CARTESIAN_POINT('',(-0.0243107232444148,0.0520176856532693,0.005));
#1572=CARTESIAN_POINT('',(-0.0243107232444148,0.0520176856532693,0.001));
#1573=CARTESIAN_POINT('',(0.00233927880547213,0.0520176856532693,0.001));
#1574=CARTESIAN_POINT('',(0.00148928085535606,0.0520176856532693,0.001));
#1575=CARTESIAN_POINT('',(0.00148928085535606,0.0520176856532693,0.005));
#1576=CARTESIAN_POINT('',(0.00148928085535606,0.0520176856532693,0.005));
#1577=CARTESIAN_POINT('',(0.00233927880547213,0.0520176856532693,0.005));
#1578=CARTESIAN_POINT('',(0.0346892788054421,0.0483176856532693,-0.023));
#1579=CARTESIAN_POINT('',(0.0346892788054421,0.0483176856532693,0.005));
#1580=CARTESIAN_POINT('',(0.0362892788054421,0.0483176856532693,0.005));
#1581=CARTESIAN_POINT('',(0.0346892788054421,0.0483176856532693,0.0025));
#1582=CARTESIAN_POINT('',(0.0362892788054421,0.0483176856532693,0.0025));
#1583=CARTESIAN_POINT('',(0.0346892788054421,-0.0482823143467307,-0.023));
#1584=CARTESIAN_POINT('',(0.0346892788054421,-0.0482823143467307,0.005));
#1585=CARTESIAN_POINT('',(0.0362892788054421,-0.0482823143467307,0.005));
#1586=CARTESIAN_POINT('',(0.0346892788054421,-0.0482823143467307,0.0025));
#1587=CARTESIAN_POINT('',(0.0362892788054421,-0.0482823143467307,0.0025));
#1588=CARTESIAN_POINT('',(-0.0300107211945579,-0.0482823143467307,-0.023));
#1589=CARTESIAN_POINT('',(-0.0300107211945579,-0.0482823143467307,0.005));
#1590=CARTESIAN_POINT('',(-0.0284107211945579,-0.0482823143467307,0.005));
#1591=CARTESIAN_POINT('',(-0.0300107211945579,-0.0482823143467307,0.0025));
#1592=CARTESIAN_POINT('',(-0.0284107211945579,-0.0482823143467307,0.0025));
#1593=CARTESIAN_POINT('',(0.00233927880547212,-0.0519823143467307,0.005));
#1594=CARTESIAN_POINT('',(0.0289892808553591,-0.0519823143467307,0.005));
#1595=CARTESIAN_POINT('',(0.0289892808553591,-0.0519823143467307,0.005));
#1596=CARTESIAN_POINT('',(0.0289892808553591,-0.0519823143467307,0.001));
#1597=CARTESIAN_POINT('',(0.00233927880547212,-0.0519823143467307,0.001));
#1598=CARTESIAN_POINT('',(-0.0243107232444148,-0.0519823143467307,0.001));
#1599=CARTESIAN_POINT('',(-0.0243107232444148,-0.0519823143467307,0.005));
#1600=CARTESIAN_POINT('',(-0.0243107232444148,-0.0519823143467307,0.005));
#1601=CARTESIAN_POINT('',(0.00233927880547212,-0.0519823143467307,0.005));
#1602=CARTESIAN_POINT('',(-0.0300107222194578,-0.0482823153716807,0.005002));
#1603=CARTESIAN_POINT('',(-0.0263107232444149,-0.0482823153716807,0.001998));
#1604=CARTESIAN_POINT('',(-0.0263107232444149,-0.0482823153716807,0.001));
#1605=CARTESIAN_POINT('',(-0.0263107232444149,-0.0482823153716807,0.005));
#1606=CARTESIAN_POINT('',(-0.0300107222194578,-0.0482823153716807,0.001));
#1607=CARTESIAN_POINT('',(-0.0300107222194578,-0.0445823163966377,0.001));
#1608=CARTESIAN_POINT('',(-0.0300107222194578,-0.0445823163966377,0.001998));
#1609=CARTESIAN_POINT('',(-0.0300107222194578,-0.0445823163966377,0.005));
#1610=CARTESIAN_POINT('',(-0.0300107222194578,-0.0482823153716807,0.005));
#1611=CARTESIAN_POINT('',(-0.0337107211945578,1.76856532727795E-5,0.005));
#1612=CARTESIAN_POINT('',(-0.0337107211945578,1.76856532727795E-5,0.005));
#1613=CARTESIAN_POINT('',(-0.0337107211945578,-0.0425823163966376,0.005));
#1614=CARTESIAN_POINT('',(-0.0337107211945578,0.0426176877031832,0.005));
#1615=CARTESIAN_POINT('',(-0.0337107211945578,-0.0425823163966376,0.005));
#1616=CARTESIAN_POINT('',(-0.0337107211945578,-0.0425823163966376,0.001));
#1617=CARTESIAN_POINT('',(-0.0337107211945578,1.76856532727795E-5,0.001));
#1618=CARTESIAN_POINT('',(-0.0337107211945578,0.0426176877031832,0.001));
#1619=CARTESIAN_POINT('',(-0.0337107211945578,0.0426176877031832,0.005));
#1620=CARTESIAN_POINT('',(-0.0300107222194578,0.0483176866782262,0.005002));
#1621=CARTESIAN_POINT('',(-0.0300107222194578,0.0446176877031833,0.001998));
#1622=CARTESIAN_POINT('',(-0.0300107222194578,0.0446176877031833,0.001));
#1623=CARTESIAN_POINT('',(-0.0300107222194578,0.0446176877031833,0.005));
#1624=CARTESIAN_POINT('',(-0.0300107222194578,0.0483176866782262,0.001));
#1625=CARTESIAN_POINT('',(-0.0263107232444149,0.0483176866782262,0.001));
#1626=CARTESIAN_POINT('',(-0.0263107232444149,0.0483176866782262,0.001998));
#1627=CARTESIAN_POINT('',(-0.0263107232444149,0.0483176866782262,0.005));
#1628=CARTESIAN_POINT('',(-0.0300107222194578,0.0483176866782262,0.005));
#1629=CARTESIAN_POINT('',(0.0346892798304021,-0.0482823153716807,0.005002));
#1630=CARTESIAN_POINT('',(0.0346892798304021,-0.0445823163966377,0.001998));
#1631=CARTESIAN_POINT('',(0.0346892798304021,-0.0445823163966377,0.001));
#1632=CARTESIAN_POINT('',(0.0346892798304021,-0.0445823163966377,0.005));
#1633=CARTESIAN_POINT('',(0.0346892798304021,-0.0482823153716807,0.001));
#1634=CARTESIAN_POINT('',(0.0309892808553591,-0.0482823153716807,0.001));
#1635=CARTESIAN_POINT('',(0.0309892808553591,-0.0482823153716807,0.001998));
#1636=CARTESIAN_POINT('',(0.0309892808553591,-0.0482823153716807,0.005));
#1637=CARTESIAN_POINT('',(0.0346892798304021,-0.0482823153716807,0.005));
#1638=CARTESIAN_POINT('',(0.00233927880547213,0.0520176856532693,0.005));
#1639=CARTESIAN_POINT('',(0.00233927880547213,0.0520176856532693,0.005));
#1640=CARTESIAN_POINT('',(0.0126892767555282,0.0520176856532693,0.005));
#1641=CARTESIAN_POINT('',(0.0289892808553591,0.0520176856532693,0.005));
#1642=CARTESIAN_POINT('',(0.0126892767555282,0.0520176856532693,0.002));
#1643=CARTESIAN_POINT('',(0.0126892767555282,0.0520176856532693,0.001));
#1644=CARTESIAN_POINT('',(0.00233927880547213,0.0520176856532693,0.001));
#1645=CARTESIAN_POINT('',(0.0289892808553591,0.0520176856532693,0.001));
#1646=CARTESIAN_POINT('',(0.0289892808553591,0.0520176856532693,0.005));
#1647=CARTESIAN_POINT('',(0.0383892788054421,1.76856532727795E-5,0.005));
#1648=CARTESIAN_POINT('',(0.0383892788054421,0.0426176877031832,0.005));
#1649=CARTESIAN_POINT('',(0.0383892788054421,0.0426176877031832,0.005));
#1650=CARTESIAN_POINT('',(0.0383892788054421,0.0426176877031832,0.001));
#1651=CARTESIAN_POINT('',(0.0383892788054421,1.76856532727795E-5,0.001));
#1652=CARTESIAN_POINT('',(0.0383892788054421,-0.0425823163966377,0.001));
#1653=CARTESIAN_POINT('',(0.0383892788054421,-0.0425823163966377,0.005));
#1654=CARTESIAN_POINT('',(0.0383892788054421,-0.0425823163966377,0.005));
#1655=CARTESIAN_POINT('',(0.0383892788054421,1.76856532727795E-5,0.005));
#1656=CARTESIAN_POINT('',(0.0346892798304021,0.0483176866782263,0.005002));
#1657=CARTESIAN_POINT('',(0.0309892808553591,0.0483176866782263,0.001998));
#1658=CARTESIAN_POINT('',(0.0309892808553591,0.0483176866782263,0.001));
#1659=CARTESIAN_POINT('',(0.0309892808553591,0.0483176866782263,0.005));
#1660=CARTESIAN_POINT('',(0.0346892798304021,0.0483176866782263,0.001));
#1661=CARTESIAN_POINT('',(0.0346892798304021,0.0446176877031833,0.001));
#1662=CARTESIAN_POINT('',(0.0346892798304021,0.0446176877031833,0.001998));
#1663=CARTESIAN_POINT('',(0.0346892798304021,0.0446176877031833,0.005));
#1664=CARTESIAN_POINT('',(0.0346892798304021,0.0483176866782263,0.005));
#1665=CARTESIAN_POINT('',(0.,1.38777878078145E-17,0.005));
#1666=CARTESIAN_POINT('',(-0.0318607217070078,-0.0445823163966377,0.005));
#1667=CARTESIAN_POINT('',(-0.0317107211945578,-0.0445823163966377,0.005));
#1668=CARTESIAN_POINT('',(-0.0317107211945578,-0.0425823163966376,0.005));
#1669=CARTESIAN_POINT('',(-0.0317107211945578,0.0426176877031832,0.005));
#1670=CARTESIAN_POINT('',(-0.0317107211945578,0.0446176877031833,0.005));
#1671=CARTESIAN_POINT('',(-0.0318607217070078,0.0446176877031833,0.005));
#1672=CARTESIAN_POINT('',(-0.0263107232444149,0.0501676861657478,0.005));
#1673=CARTESIAN_POINT('',(-0.0263107232444149,0.0500176856532693,0.005));
#1674=CARTESIAN_POINT('',(-0.0243107232444148,0.0500176856532693,0.005));
#1675=CARTESIAN_POINT('',(0.00148928085535606,0.0500176856532693,0.005));
#1676=CARTESIAN_POINT('',(0.00348928085535606,0.0500176856532693,0.005));
#1677=CARTESIAN_POINT('',(0.00348928085535606,0.0501176856532693,0.005));
#1678=CARTESIAN_POINT('',(0.00348928085535606,0.0482176856532693,0.005));
#1679=CARTESIAN_POINT('',(0.00708927880544212,0.0482176856532693,0.005));
#1680=CARTESIAN_POINT('',(0.0106892767555282,0.0482176856532693,0.005));
#1681=CARTESIAN_POINT('',(0.0106892767555282,0.0501176856532693,0.005));
#1682=CARTESIAN_POINT('',(0.0106892767555282,0.0500176856532693,0.005));
#1683=CARTESIAN_POINT('',(0.0126892767555282,0.0500176856532693,0.005));
#1684=CARTESIAN_POINT('',(0.0289892808553591,0.0500176856532693,0.005));
#1685=CARTESIAN_POINT('',(0.0309892808553591,0.0500176856532693,0.005));
#1686=CARTESIAN_POINT('',(0.0309892808553591,0.0501676861657478,0.005));
#1687=CARTESIAN_POINT('',(0.0365392793179221,0.0446176877031833,0.005));
#1688=CARTESIAN_POINT('',(0.0363892788054421,0.0446176877031833,0.005));
#1689=CARTESIAN_POINT('',(0.0363892788054421,0.0426176877031832,0.005));
#1690=CARTESIAN_POINT('',(0.0363892788054421,-0.0425823163966377,0.005));
#1691=CARTESIAN_POINT('',(0.0363892788054421,-0.0445823163966377,0.005));
#1692=CARTESIAN_POINT('',(0.0365392793179221,-0.0445823163966377,0.005));
#1693=CARTESIAN_POINT('',(0.0309892808553591,-0.0501323148592057,0.005));
#1694=CARTESIAN_POINT('',(0.0309892808553591,-0.0499823143467307,0.005));
#1695=CARTESIAN_POINT('',(0.0289892808553591,-0.0499823143467307,0.005));
#1696=CARTESIAN_POINT('',(-0.0243107232444148,-0.0499823143467307,0.005));
#1697=CARTESIAN_POINT('',(-0.0263107232444149,-0.0499823143467307,0.005));
#1698=CARTESIAN_POINT('',(-0.0263107232444149,-0.0501323148592057,0.005));
#1699=CARTESIAN_POINT('',(0.0403892788054421,1.76856532692893E-5,0.005));
#1700=CARTESIAN_POINT('',(0.0309892808553591,0.0501676861657478,0.001998));
#1701=CARTESIAN_POINT('',(0.0309892808553591,0.0500176856532693,0.002));
#1702=CARTESIAN_POINT('',(0.0309892808553591,0.0500176856532693,0.001));
#1703=CARTESIAN_POINT('',(0.0309892808553591,0.0501676861657478,0.001));
#1704=CARTESIAN_POINT('',(0.0365392793179221,0.0446176877031833,0.001998));
#1705=CARTESIAN_POINT('',(0.0365392793179221,0.0446176877031833,0.001));
#1706=CARTESIAN_POINT('',(0.0363892788054421,0.0446176877031833,0.001));
#1707=CARTESIAN_POINT('',(0.0363892788054421,0.0446176877031833,0.001998));
#1708=CARTESIAN_POINT('',(-0.0263107232444149,0.0501676861657478,0.001998));
#1709=CARTESIAN_POINT('',(-0.0263107232444149,0.0501676861657478,0.001));
#1710=CARTESIAN_POINT('',(-0.0263107232444149,0.0500176856532693,0.001));
#1711=CARTESIAN_POINT('',(-0.0263107232444149,0.0500176856532693,0.001998));
#1712=CARTESIAN_POINT('',(0.0365392793179221,-0.0445823163966377,0.001998));
#1713=CARTESIAN_POINT('',(0.0363892788054421,-0.0445823163966377,0.002));
#1714=CARTESIAN_POINT('',(0.0363892788054421,-0.0445823163966377,0.001));
#1715=CARTESIAN_POINT('',(0.0365392793179221,-0.0445823163966377,0.001));
#1716=CARTESIAN_POINT('',(-0.0318607217070078,0.0446176877031833,0.001998));
#1717=CARTESIAN_POINT('',(-0.0317107211945578,0.0446176877031833,0.002));
#1718=CARTESIAN_POINT('',(-0.0317107211945578,0.0446176877031833,0.001));
#1719=CARTESIAN_POINT('',(-0.0318607217070078,0.0446176877031833,0.001));
#1720=CARTESIAN_POINT('',(-0.0318607217070078,-0.0445823163966377,0.001998));
#1721=CARTESIAN_POINT('',(-0.0318607217070078,-0.0445823163966377,0.001));
#1722=CARTESIAN_POINT('',(-0.0317107211945578,-0.0445823163966377,0.001));
#1723=CARTESIAN_POINT('',(-0.0317107211945578,-0.0445823163966377,0.001998));
#1724=CARTESIAN_POINT('',(-0.0263107232444149,-0.0501323148592057,0.001998));
#1725=CARTESIAN_POINT('',(-0.0263107232444149,-0.0499823143467307,0.002));
#1726=CARTESIAN_POINT('',(-0.0263107232444149,-0.0499823143467307,0.001));
#1727=CARTESIAN_POINT('',(-0.0263107232444149,-0.0501323148592057,0.001));
#1728=CARTESIAN_POINT('',(0.0309892808553591,-0.0501323148592057,0.001998));
#1729=CARTESIAN_POINT('',(0.0309892808553591,-0.0501323148592057,0.001));
#1730=CARTESIAN_POINT('',(0.0309892808553591,-0.0499823143467307,0.001));
#1731=CARTESIAN_POINT('',(0.0309892808553591,-0.0499823143467307,0.001998));
#1732=CARTESIAN_POINT('',(-0.0317107211945578,-0.0425823163966376,0.001998));
#1733=CARTESIAN_POINT('',(-0.0317107211945578,-0.0425823163966376,0.001));
#1734=CARTESIAN_POINT('',(-0.0243107232444148,-0.0499823143467307,0.005));
#1735=CARTESIAN_POINT('',(-0.0243107232444148,-0.0499823143467307,0.001));
#1736=CARTESIAN_POINT('',(-0.0317107211945578,0.0426176877031832,0.005));
#1737=CARTESIAN_POINT('',(-0.0317107211945578,0.0426176877031832,0.001));
#1738=CARTESIAN_POINT('',(-0.0243107232444148,0.0500176856532693,0.001998));
#1739=CARTESIAN_POINT('',(-0.0243107232444148,0.0500176856532693,0.001));
#1740=CARTESIAN_POINT('',(0.0289892808553591,-0.0499823143467307,0.001998));
#1741=CARTESIAN_POINT('',(0.0289892808553591,-0.0499823143467307,0.001));
#1742=CARTESIAN_POINT('',(0.0363892788054421,-0.0425823163966377,0.005));
#1743=CARTESIAN_POINT('',(0.0363892788054421,-0.0425823163966377,0.001));
#1744=CARTESIAN_POINT('',(0.0363892788054421,0.0426176877031832,0.001998));
#1745=CARTESIAN_POINT('',(0.0363892788054421,0.0426176877031832,0.001));
#1746=CARTESIAN_POINT('',(0.0289892808553591,0.0500176856532693,0.005));
#1747=CARTESIAN_POINT('',(0.0289892808553591,0.0500176856532693,0.001));
#1748=CARTESIAN_POINT('',(0.0106892767555282,0.0501176856532693,0.005002));
#1749=CARTESIAN_POINT('',(0.0106892767555282,0.0482176856532693,0.005002));
#1750=CARTESIAN_POINT('',(0.0106892767555282,0.0482176856532693,0.001));
#1751=CARTESIAN_POINT('',(0.0106892767555282,0.0501176856532693,0.001));
#1752=CARTESIAN_POINT('',(0.0106892767555282,0.0500176856532693,0.001));
#1753=CARTESIAN_POINT('',(0.0106892767555282,0.0500176856532693,0.005));
#1754=CARTESIAN_POINT('',(0.00708927880544212,0.0482176856532693,0.005002));
#1755=CARTESIAN_POINT('',(0.00348928085535606,0.0482176856532693,0.005002));
#1756=CARTESIAN_POINT('',(0.00348928085535606,0.0482176856532693,0.001));
#1757=CARTESIAN_POINT('',(0.00708927880544212,0.0482176856532693,0.001));
#1758=CARTESIAN_POINT('',(0.00348928085535606,0.0501176856532693,0.005002));
#1759=CARTESIAN_POINT('',(0.00348928085535606,0.0500176856532693,0.005002));
#1760=CARTESIAN_POINT('',(0.00348928085535606,0.0500176856532693,0.001));
#1761=CARTESIAN_POINT('',(0.00348928085535606,0.0501176856532693,0.001));
#1762=CARTESIAN_POINT('',(0.0126892767555282,0.0500176856532693,0.005));
#1763=CARTESIAN_POINT('',(0.0126892767555282,0.0500176856532693,0.001));
#1764=CARTESIAN_POINT('',(0.00148928085535606,0.0500176856532693,0.005002));
#1765=CARTESIAN_POINT('',(0.00148928085535606,0.0500176856532693,0.001));
#1766=CARTESIAN_POINT('',(0.000889278805442137,1.76856532692615E-5,0.0025));
#1767=CARTESIAN_POINT('',(0.000889278805442137,1.76856532692615E-5,0.0025));
#1768=CARTESIAN_POINT('',(0.000889278805442137,1.76856532692615E-5,0.0025));
#1769=CARTESIAN_POINT('',(0.000889278805442137,1.76856532692615E-5,0.0025));
#1770=CARTESIAN_POINT('',(0.0403892788054421,1.76856532692893E-5,0.005));
#1771=CARTESIAN_POINT('',(0.0403892788054421,1.76856532692893E-5,4.96818695435572E-5));
#1772=CARTESIAN_POINT('',(0.,1.38777878078145E-17,0.001));
#1773=CARTESIAN_POINT('',(-0.000360721194557885,0.0824126014345106,-0.001));
#1774=CARTESIAN_POINT('',(0.0363402138222206,0.0535176856532693,-0.00190063644212953));
#1775=CARTESIAN_POINT('',(0.0368628802981074,0.0535198034651644,-0.00191346261331694));
#1776=CARTESIAN_POINT('',(0.0379062470694735,0.0530832927888516,-0.0019390667058658));
#1777=CARTESIAN_POINT('',(0.0383423351013205,0.052041207819702,-0.00194976825265959));
#1778=CARTESIAN_POINT('',(0.0383402138222206,0.0515176856532693,-0.00194971619673076));
#1779=CARTESIAN_POINT('',(0.0363402138222206,0.0535176856532693,-0.00190063644212954));
#1780=CARTESIAN_POINT('',(0.0383402138222207,0.0515176856532693,-0.00194971619673076));
#1781=CARTESIAN_POINT('',(0.0383402138222207,0.0824126014345106,-0.00194971619673076));
#1782=CARTESIAN_POINT('',(0.0383402138222207,-0.0514823143467308,-0.00194971619673076));
#1783=CARTESIAN_POINT('',(0.0383402138222206,-0.0514823143467308,-0.00194971619673076));
#1784=CARTESIAN_POINT('',(0.0383423316341158,-0.0520049808226289,-0.00194976816757482));
#1785=CARTESIAN_POINT('',(0.0379058209578182,-0.0530483475939778,-0.00193905624913806));
#1786=CARTESIAN_POINT('',(0.0368637359886227,-0.0534844356258305,-0.00191348361185719));
#1787=CARTESIAN_POINT('',(0.0363402138222206,-0.0534823143467308,-0.00190063644212953));
#1788=CARTESIAN_POINT('',(0.0363402138222206,-0.0534823143467307,-0.00190063644212954));
#1789=CARTESIAN_POINT('',(-0.000360721194557885,-0.0534823143467307,-0.001));
#1790=CARTESIAN_POINT('',(-0.0371597861777794,-0.0534823143467308,-9.69554605344431E-5));
#1791=CARTESIAN_POINT('',(-0.0371597861777793,-0.0534823143467308,-9.69554605344436E-5));
#1792=CARTESIAN_POINT('',(-0.0376824526536518,-0.053484432158626,-8.41292893473881E-5));
#1793=CARTESIAN_POINT('',(-0.0387258194250393,-0.0530479214823121,-5.85251967980018E-5));
#1794=CARTESIAN_POINT('',(-0.0391619074568791,-0.0520058365131649,-4.78236500043882E-5));
#1795=CARTESIAN_POINT('',(-0.0391597861777793,-0.0514823143467308,-4.7875705933216E-5));
#1796=CARTESIAN_POINT('',(-0.0391597861777794,-0.0514823143467308,-4.78757059332158E-5));
#1797=CARTESIAN_POINT('',(-0.0391597861777794,0.0824126014345106,-4.78757059332158E-5));
#1798=CARTESIAN_POINT('',(-0.0391597861777794,0.0515176856532693,-4.78757059332158E-5));
#1799=CARTESIAN_POINT('',(-0.0391597861777793,0.0515176856532693,-4.7875705933216E-5));
#1800=CARTESIAN_POINT('',(-0.0391619039896745,0.0520403521291602,-4.78237350891628E-5));
#1801=CARTESIAN_POINT('',(-0.0387253933133683,0.0530837189005202,-5.85356535261242E-5));
#1802=CARTESIAN_POINT('',(-0.0376833083441986,0.053519806932369,-8.41082908063631E-5));
#1803=CARTESIAN_POINT('',(-0.0371597861777793,0.0535176856532693,-9.69554605344436E-5));
#1804=CARTESIAN_POINT('',(-0.0371597861777794,0.0535176856532693,-9.69554605344427E-5));
#1805=CARTESIAN_POINT('',(-0.000360721194557885,0.0535176856532693,-0.001));
#1806=CARTESIAN_POINT('',(-0.0411107211945579,1.76856532692893E-5,0.00195152236034111));
#1807=CARTESIAN_POINT('',(-0.0391597861777794,-0.0514823143467307,-4.78757059332159E-5));
#1808=CARTESIAN_POINT('',(-0.0398100978500389,-0.0514823143467307,0.000618590316158223));
#1809=CARTESIAN_POINT('',(-0.0404604095222984,-0.0514823143467307,0.00128505633824966));
#1810=CARTESIAN_POINT('',(-0.0411107211945579,-0.0514823143467307,0.0019515223603411));
#1811=CARTESIAN_POINT('',(-0.0411107211945579,0.0515176856532693,0.0019515223603411));
#1812=CARTESIAN_POINT('',(-0.0404604095222984,0.0515176856532693,0.00128505633824966));
#1813=CARTESIAN_POINT('',(-0.0398100978500389,0.0515176856532693,0.000618590316158224));
#1814=CARTESIAN_POINT('',(-0.0391597861777794,0.0515176856532693,-4.78757059332159E-5));
#1815=CARTESIAN_POINT('',(-0.0391597861777794,0.0515176856532693,-4.78757059332153E-5));
#1816=CARTESIAN_POINT('',(-0.0391619107255979,0.0520420145248275,-4.78235697904285E-5));
#1817=CARTESIAN_POINT('',(-0.0389447592843672,0.0525611396714277,-5.3152439513883E-5));
#1818=CARTESIAN_POINT('',(-0.0382032401959378,0.0533026587598571,-7.1349226960003E-5));
#1819=CARTESIAN_POINT('',(-0.0376841150493376,0.0535198102010878,-8.40884943612336E-5));
#1820=CARTESIAN_POINT('',(-0.0371597861777794,0.0535176856532693,-9.69554605344423E-5));
#1821=CARTESIAN_POINT('',(-0.0411107211945579,0.0515176856532693,0.0019515223603411));
#1822=CARTESIAN_POINT('',(-0.041114970290195,0.0525663433963858,0.00195157449648389));
#1823=CARTESIAN_POINT('',(-0.040680667407734,0.0536045936895856,0.00194624562676044));
#1824=CARTESIAN_POINT('',(-0.0391976292308742,0.0550876318664454,0.00192804883931431));
#1825=CARTESIAN_POINT('',(-0.0381593789376744,0.0555219347489064,0.00191530957191308));
#1826=CARTESIAN_POINT('',(-0.0371107211945579,0.0555176856532693,0.00190244260573987));
#1827=CARTESIAN_POINT('',(-0.0371597861777793,0.0535176856532693,-9.69554605344408E-5));
#1828=CARTESIAN_POINT('',(-0.0371434311833722,0.054184352319936,0.000569510561556998));
#1829=CARTESIAN_POINT('',(-0.037127076188965,0.0548510189866026,0.00123597658364844));
#1830=CARTESIAN_POINT('',(-0.0371107211945579,0.0555176856532693,0.00190244260573988));
#1831=CARTESIAN_POINT('',(-0.0371597861777794,-0.0534823143467308,-9.69554605344425E-5));
#1832=CARTESIAN_POINT('',(-0.0376841150493376,-0.0534844388945494,-8.40884943612337E-5));
#1833=CARTESIAN_POINT('',(-0.0382032401959378,-0.0532672874533185,-7.13492269600032E-5));
#1834=CARTESIAN_POINT('',(-0.0389447592843672,-0.0525257683648892,-5.31524395138832E-5));
#1835=CARTESIAN_POINT('',(-0.0391619107255979,-0.052006643218289,-4.78235697904288E-5));
#1836=CARTESIAN_POINT('',(-0.0391597861777794,-0.0514823143467308,-4.78757059332155E-5));
#1837=CARTESIAN_POINT('',(-0.0371107211945579,-0.0554823143467307,0.00190244260573987));
#1838=CARTESIAN_POINT('',(-0.0381593789376744,-0.0554865634423678,0.00191530957191308));
#1839=CARTESIAN_POINT('',(-0.0391976292308742,-0.0550522605599068,0.00192804883931431));
#1840=CARTESIAN_POINT('',(-0.040680667407734,-0.053569222383047,0.00194624562676044));
#1841=CARTESIAN_POINT('',(-0.041114970290195,-0.0525309720898472,0.00195157449648389));
#1842=CARTESIAN_POINT('',(-0.0411107211945579,-0.0514823143467307,0.0019515223603411));
#1843=CARTESIAN_POINT('',(-0.0371107211945579,-0.0554823143467307,0.00190244260573988));
#1844=CARTESIAN_POINT('',(-0.037127076188965,-0.054815647680064,0.00123597658364844));
#1845=CARTESIAN_POINT('',(-0.0371434311833722,-0.0541489810133974,0.000569510561556998));
#1846=CARTESIAN_POINT('',(-0.0371597861777793,-0.0534823143467307,-9.69554605344408E-5));
#1847=CARTESIAN_POINT('',(-0.000458806860198563,0.0555176856532693,0.0010030091251421));
#1848=CARTESIAN_POINT('',(0.0363892788054421,0.0555176856532693,9.87616241447853E-5));
#1849=CARTESIAN_POINT('',(0.0363729238110349,0.0548510189866026,-0.000567704397946656));
#1850=CARTESIAN_POINT('',(0.0363565688166278,0.054184352319936,-0.0012341704200381));
#1851=CARTESIAN_POINT('',(0.0363402138222206,0.0535176856532693,-0.00190063644212954));
#1852=CARTESIAN_POINT('',(-0.00045880686019857,-0.0554823143467307,0.0010030091251421));
#1853=CARTESIAN_POINT('',(0.0363402138222206,-0.0534823143467307,-0.00190063644212951));
#1854=CARTESIAN_POINT('',(0.0363565688166278,-0.0541489810133974,-0.00123417042003807));
#1855=CARTESIAN_POINT('',(0.0363729238110349,-0.054815647680064,-0.000567704397946644));
#1856=CARTESIAN_POINT('',(0.0363892788054421,-0.0554823143467307,9.8761624144788E-5));
#1857=CARTESIAN_POINT('',(0.0363402138222206,0.0535176856532693,-0.00190063644212954));
#1858=CARTESIAN_POINT('',(0.0368645426937789,0.0535198102010878,-0.00191350340830274));
#1859=CARTESIAN_POINT('',(0.037383667840379,0.0533026587598571,-0.00192624267570398));
#1860=CARTESIAN_POINT('',(0.0381251869288084,0.0525611396714277,-0.00194443946315009));
#1861=CARTESIAN_POINT('',(0.0383423383700393,0.0520420145248275,-0.00194976833287355));
#1862=CARTESIAN_POINT('',(0.0383402138222207,0.0515176856532693,-0.00194971619673076));
#1863=CARTESIAN_POINT('',(0.0363892788054421,0.0555176856532693,9.87616241447829E-5));
#1864=CARTESIAN_POINT('',(0.0374379365485586,0.0555219347489064,8.5894657971575E-5));
#1865=CARTESIAN_POINT('',(0.0384761868417584,0.0550876318664454,7.31553905703505E-5));
#1866=CARTESIAN_POINT('',(0.0399592250186182,0.0536045936895856,5.4958603124218E-5));
#1867=CARTESIAN_POINT('',(0.0403935279010792,0.0525663433963858,4.96297334007695E-5));
#1868=CARTESIAN_POINT('',(0.0403892788054421,0.0515176856532693,4.96818695435554E-5));
#1869=CARTESIAN_POINT('',(0.0383402138222207,0.0515176856532693,-0.00194971619673076));
#1870=CARTESIAN_POINT('',(0.0390232354832945,0.0515176856532693,-0.00128325017463932));
#1871=CARTESIAN_POINT('',(0.0397062571443683,0.0515176856532693,-0.000616784152547881));
#1872=CARTESIAN_POINT('',(0.0403892788054421,0.0515176856532693,4.96818695435582E-5));
#1873=CARTESIAN_POINT('',(0.0383402138222207,-0.0514823143467308,-0.00194971619673076));
#1874=CARTESIAN_POINT('',(0.0383423383700392,-0.052006643218289,-0.00194976833287355));
#1875=CARTESIAN_POINT('',(0.0381251869288084,-0.0525257683648892,-0.00194443946315009));
#1876=CARTESIAN_POINT('',(0.037383667840379,-0.0532672874533185,-0.00192624267570398));
#1877=CARTESIAN_POINT('',(0.0368645426937789,-0.0534844388945493,-0.00191350340830274));
#1878=CARTESIAN_POINT('',(0.0363402138222206,-0.0534823143467308,-0.00190063644212954));
#1879=CARTESIAN_POINT('',(0.0403892788054421,-0.0514823143467307,4.96818695435563E-5));
#1880=CARTESIAN_POINT('',(0.0403935279010792,-0.0525309720898472,4.96297334007674E-5));
#1881=CARTESIAN_POINT('',(0.0399592250186182,-0.053569222383047,5.49586031242178E-5));
#1882=CARTESIAN_POINT('',(0.0384761868417584,-0.0550522605599068,7.3155390570349E-5));
#1883=CARTESIAN_POINT('',(0.0374379365485586,-0.0554865634423678,8.58946579715747E-5));
#1884=CARTESIAN_POINT('',(0.0363892788054421,-0.0554823143467307,9.87616241447829E-5));
#1885=CARTESIAN_POINT('',(0.0403892788054421,-0.0514823143467306,4.96818695435582E-5));
#1886=CARTESIAN_POINT('',(0.0397062571443683,-0.0514823143467306,-0.000616784152547881));
#1887=CARTESIAN_POINT('',(0.0390232354832945,-0.0514823143467306,-0.00128325017463932));
#1888=CARTESIAN_POINT('',(0.0383402138222207,-0.0514823143467306,-0.00194971619673076));
#1889=CARTESIAN_POINT('',(0.0383402138222207,0.0824126014345106,-0.00194971619673076));
#1890=MECHANICAL_DESIGN_GEOMETRIC_PRESENTATION_REPRESENTATION('',(#1063),
#1891);
#1891=(
GEOMETRIC_REPRESENTATION_CONTEXT(3)
GLOBAL_UNCERTAINTY_ASSIGNED_CONTEXT((#1892))
GLOBAL_UNIT_ASSIGNED_CONTEXT((#1895,#1894,#1893))
REPRESENTATION_CONTEXT('Part 1','TOP_LEVEL_ASSEMBLY_PART')
);
#1892=UNCERTAINTY_MEASURE_WITH_UNIT(LENGTH_MEASURE(2.E-5),#1895,
'DISTANCE_ACCURACY_VALUE','Maximum Tolerance applied to model');
#1893=(
NAMED_UNIT(*)
SI_UNIT($,.STERADIAN.)
SOLID_ANGLE_UNIT()
);
#1894=(
NAMED_UNIT(*)
PLANE_ANGLE_UNIT()
SI_UNIT($,.RADIAN.)
);
#1895=(
LENGTH_UNIT()
NAMED_UNIT(*)
SI_UNIT($,.METRE.)
);
#1896=PRODUCT_DEFINITION_SHAPE('','',#1897);
#1897=PRODUCT_DEFINITION('','',#1899,#1898);
#1898=PRODUCT_DEFINITION_CONTEXT('',#1905,'design');
#1899=PRODUCT_DEFINITION_FORMATION_WITH_SPECIFIED_SOURCE('','',#1901,
 .NOT_KNOWN.);
#1900=PRODUCT_RELATED_PRODUCT_CATEGORY('','',(#1901));
#1901=PRODUCT('Part 1','Part 1','Part 1',(#1903));
#1902=PRODUCT_CATEGORY('','');
#1903=PRODUCT_CONTEXT('',#1905,'mechanical');
#1904=APPLICATION_PROTOCOL_DEFINITION('international standard',
'ap242_managed_model_based_3d_engineering',2020,#1905);
#1905=APPLICATION_CONTEXT('managed model based 3d engineering');
ENDSEC;
END-ISO-10303-21;
