M48
; DRILL file KiCad 10.0.3 date 2026-07-03T18:41:08
; FORMAT={-:-/ absolute / metric / decimal}
; #@! TF.CreationDate,2026-07-03T18:41:08+02:00
; #@! TF.GenerationSoftware,Kicad,Pcbnew,10.0.3
; #@! TF.FileFunction,Plated,1,2,PTH
FMAT,2
METRIC
; #@! TA.AperFunction,Plated,PTH,ViaDrill
T1C0.300
; #@! TA.AperFunction,Plated,PTH,ComponentDrill
T2C0.700
; #@! TA.AperFunction,Plated,PTH,ComponentDrill
T3C0.750
; #@! TA.AperFunction,Plated,PTH,ComponentDrill
T4C0.800
; #@! TA.AperFunction,Plated,PTH,ComponentDrill
T5C0.900
; #@! TA.AperFunction,Plated,PTH,ComponentDrill
T6C1.000
; #@! TA.AperFunction,Plated,PTH,ComponentDrill
T7C1.100
; #@! TA.AperFunction,Plated,PTH,ComponentDrill
T8C1.200
; #@! TA.AperFunction,Plated,PTH,ComponentDrill
T9C2.800
%
G90
G05
T1
X72.8Y-64.6
X72.8Y-70.6
X72.8Y-76.6
X72.8Y-80.9
X72.8Y-88.6
X72.8Y-94.6
X72.8Y-100.6
X72.8Y-106.6
X72.8Y-112.6
X72.8Y-118.6
X75.4Y-97.4
X76.8Y-123.8
X77.1Y-112.6
X78.8Y-54.7
X80.1Y-99.9
X80.1Y-104.7
X81.3Y-78.4
X81.3Y-88.6
X82.7Y-84.5
X82.9Y-71.7
X84.8Y-54.7
X84.8Y-61.8
X85.8Y-96.0
X87.0Y-114.1
X88.0Y-76.5
X88.0Y-79.0
X90.0Y-79.4
X90.0Y-87.4
X90.8Y-54.7
X90.8Y-123.8
X91.3Y-80.9
X95.9Y-87.4
X96.4Y-73.2
X96.4Y-79.9
X96.8Y-54.7
X97.0Y-61.8
X97.8Y-99.8
X97.8Y-104.6
X97.8Y-123.8
X100.5Y-82.8
X100.7Y-110.7
X101.4Y-73.2
X102.175Y-95.175
X102.2Y-82.8
X102.5Y-54.7
X102.5Y-58.6
X102.5Y-65.5
X104.5Y-114.1
X104.8Y-123.8
X106.4Y-106.8
X107.15Y-95.15
X107.9Y-61.7
X107.9Y-65.5
X109.6Y-110.5
X110.5Y-54.7
X111.8Y-123.8
X114.6Y-60.5
X115.5Y-117.6
X116.2Y-54.7
X117.4Y-93.6
X118.2Y-95.7
X118.3Y-69.3
X118.3Y-110.7
X119.5Y-91.5
X120.8Y-98.0
X120.8Y-104.5
X121.9Y-87.9
X122.0Y-114.1
X122.5Y-89.4
X123.7Y-78.3
X124.0Y-73.0
X125.0Y-94.3
X125.4Y-92.3
X125.8Y-123.8
X125.9Y-88.7
X125.9Y-100.7
X126.6Y-54.7
X126.6Y-60.5
X127.0Y-87.7
X128.9Y-87.7
X131.0Y-68.8
X131.0Y-73.0
X132.6Y-54.7
X132.8Y-117.6
X132.8Y-123.8
X133.5Y-110.7
X135.6Y-63.6
X135.8Y-95.1
X136.5Y-77.0
X136.8Y-73.0
X138.6Y-54.7
X138.6Y-60.5
X138.8Y-66.9
X139.5Y-104.6
X139.5Y-114.1
X139.8Y-123.8
X140.5Y-86.1
X142.3Y-82.0
X143.5Y-70.0
X144.5Y-78.4
X144.6Y-54.7
X146.2Y-65.5
X146.8Y-117.6
X146.8Y-123.8
X147.4Y-74.7
X147.4Y-90.0
X147.4Y-101.9
X147.9Y-85.4
X150.6Y-54.7
X152.0Y-72.0
X153.5Y-77.9
X153.5Y-89.9
X153.5Y-101.9
X153.8Y-123.8
X154.1Y-116.0
X155.0Y-63.0
X156.6Y-54.7
X160.8Y-123.8
X162.3Y-95.9
X162.4Y-72.0
X162.4Y-83.9
X162.6Y-54.7
X166.0Y-63.1
X167.8Y-123.8
X168.6Y-54.7
X173.9Y-59.9
X173.9Y-65.9
X173.9Y-71.9
X173.9Y-77.9
X173.9Y-83.9
X173.9Y-89.9
X173.9Y-95.9
X173.9Y-101.9
X173.9Y-107.9
X173.9Y-113.9
T2
X85.73Y-92.92
X85.73Y-110.7
X88.27Y-92.92
X88.27Y-110.7
X103.25Y-92.92
X103.25Y-110.7
X105.79Y-92.92
X105.79Y-110.7
X120.77Y-92.92
X120.77Y-110.7
X123.31Y-92.92
X123.31Y-110.7
X138.29Y-92.92
X138.29Y-110.7
X140.83Y-92.92
X140.83Y-110.7
T3
X144.5Y-59.0
X144.5Y-61.0
T4
X76.6Y-94.19
X76.6Y-101.81
X80.4Y-58.0
X80.4Y-65.62
X80.6Y-73.29
X80.6Y-80.91
X83.5Y-57.99
X83.5Y-65.61
X86.6Y-58.0
X86.6Y-65.62
X89.7Y-58.0
X89.7Y-65.62
X95.5Y-94.25
X95.5Y-101.87
X95.8Y-111.99
X95.8Y-119.61
X113.2Y-94.29
X113.2Y-101.91
X113.2Y-111.99
X113.2Y-119.61
X130.8Y-111.99
X130.8Y-119.61
X130.97Y-57.88
X130.97Y-65.5
X131.0Y-94.29
X131.0Y-101.91
X134.07Y-57.88
X134.07Y-65.5
X137.2Y-57.89
X137.2Y-65.51
X140.37Y-57.88
X140.37Y-65.5
X145.2Y-73.19
X145.2Y-80.81
X149.8Y-111.99
X149.8Y-119.61
X154.59Y-121.0
X162.21Y-121.0
T5
X83.19Y-103.08
X83.19Y-120.86
X90.81Y-103.08
X90.81Y-120.86
X100.71Y-103.08
X100.71Y-120.86
X108.33Y-103.08
X108.33Y-120.86
X118.23Y-103.08
X118.23Y-120.86
X125.85Y-103.08
X125.85Y-120.86
X135.75Y-103.08
X135.75Y-120.86
X143.37Y-103.08
X143.37Y-120.86
X154.025Y-111.3
X156.565Y-111.3
T6
X83.19Y-98.0
X83.19Y-115.78
X87.5Y-70.0
X87.5Y-84.5
X90.0Y-84.5
X90.81Y-98.0
X90.81Y-115.78
X92.5Y-70.0
X92.5Y-84.5
X100.71Y-98.0
X100.71Y-115.78
X105.68Y-55.328
X105.68Y-57.867
X105.68Y-60.407
X105.68Y-62.947
X105.68Y-65.487
X105.68Y-68.028
X105.68Y-70.567
X105.68Y-73.108
X105.68Y-75.647
X105.68Y-78.188
X105.68Y-80.727
X105.68Y-83.267
X105.68Y-85.807
X108.33Y-98.0
X108.33Y-115.78
X108.728Y-82.76
X111.268Y-82.76
X113.808Y-82.76
X118.23Y-98.0
X118.23Y-115.78
X120.92Y-55.328
X120.92Y-57.867
X120.92Y-60.407
X120.92Y-62.947
X120.92Y-65.487
X120.92Y-68.028
X120.92Y-70.567
X120.92Y-73.108
X120.92Y-75.647
X120.92Y-78.188
X120.92Y-80.727
X120.92Y-83.267
X120.92Y-85.807
X125.85Y-98.0
X125.85Y-115.78
X133.3Y-70.0
X133.3Y-84.5
X135.75Y-98.0
X135.75Y-115.78
X135.8Y-84.5
X138.3Y-70.0
X138.3Y-84.5
X143.37Y-98.0
X143.37Y-115.78
T7
X94.75Y-58.55
X94.75Y-65.05
X99.25Y-58.55
X99.25Y-65.05
T9
X84.5Y-77.0
X95.5Y-77.0
X130.3Y-77.0
X141.3Y-77.0
T8
X165.6Y-106.5G85X164.0Y-106.5
G05
X165.6Y-111.2G85X164.0Y-111.2
G05
X165.6Y-115.9G85X164.0Y-115.9
G05
M30
